<mxfile host="app.diagrams.net" modified="2023-04-24T07:28:31.269Z" agent="Mozilla/5.0 (Windows NT 10.0; Win64; x64) AppleWebKit/537.36 (KHTML, like Gecko) Chrome/112.0.0.0 Safari/537.36" etag="-suCYurwQqsGdpaZ0Ifp" version="21.1.7" type="device">
  <diagram name="Page-1" id="2uw7GFGLgA2PVg44XDYT">
    <mxGraphModel dx="880" dy="852" grid="1" gridSize="13" guides="1" tooltips="1" connect="1" arrows="1" fold="1" page="0" pageScale="1" pageWidth="850" pageHeight="1100" math="0" shadow="0">
      <root>
        <mxCell id="0" />
        <mxCell id="1" parent="0" />
        <mxCell id="sv7QqwGItXfnHkpMQwmk-2" value="" style="rounded=1;whiteSpace=wrap;html=1;strokeWidth=3;fillColor=#f5f5f5;gradientColor=#b3b3b3;strokeColor=#666666;" parent="1" vertex="1">
          <mxGeometry x="60" y="40" width="150" height="140" as="geometry" />
        </mxCell>
        <mxCell id="sv7QqwGItXfnHkpMQwmk-3" value="" style="shape=image;verticalLabelPosition=bottom;labelBackgroundColor=default;verticalAlign=top;aspect=fixed;imageAspect=0;image=data:image/png,iVBORw0KGgoAAAANSUhEUgAAAHEAAABoCAYAAADGpx+DAAAgAElEQVR4nO296W+c13k+fD2z7zMcLkMOOSJFipvERVJEyoptyY6cxMmLFnBiBwjqF3GLokCQT/3aLy36qcjfUBRIgLaGC7dpajhJI9uyvEmyZVEbKVHiTg6HM5x9338f2Ov4nkdDO3Zd/PC+6AEEjmZ5nnPOvV/3fZ9HazabTfwPj0gkglKphMHBQWiahkKhAIfDgUqlAk3TsLGxgffeew8bGxv46U9/Co/HA7PZjEqlAofDgXw+D4fDgWg0Ck3T4Ha7oWkaNE2D1WoFABQKBVitVpRKJTidTuRyObhcLhSLRdhsNmQyGRQKBbhcLjidTrzzzju4ffs2uru78fLLLyOXyyGRSKCrqwsOh+N/eku+1qElk8n/USJqmgaj0QgAqNfr6j2+bjabSKVS2NvbQzAYVARqNpswGAxoNpvQNA2NRkNdR/Jdo9EAgMe+azAY0Gg0Wv5vMBjUPHZ3d1GtVjE0NAQAMBqN6ru85v/UMBgMcLlcaj7/3aENDw83zWaz2hhuoKZpLV/UC+znfU4p4XtystVqFY1GA3a7HR0dHejr60MgEIDX64XNZoPVaoXVaoXRaEQ+n0exWITZbIbJZFLvGwwG1Go1RVhKY6PRQLPZRLPZRKPRQDabRSqVQiKRQDKZRCKRQD6fRz6fR61WU8zEtXDdnC+vJdeiX7dcv/weh2Qm4ICB/H4//vmf/xnDw8NfRJ8/aJhWV1e/lgtxstwAEhI4mHiz2YTJZMLAwACmp6cxNzeHrq4uaJqGrq4uVKtVFItFmEwmZDIZxGIxRQCj0Qij0ag21WQyQdM0WCwWAFDEN5lMAIBKpQK/3w+LxYL+/n5MTk4qKc7n89je3saDBw9w+/ZtRCIRZLPZx9bB18BnxDQYDC1a5A8ZkkE4Ojo6UK1Wv9I+txsmAGqB8sbkKnIYJyO5jRzP900mU4saJFG7u7tx4sQJnD59GsPDw3A4HAiHw3jjjTeQzWbVplP6qtUqPB4Pent7EY/HUa1W4fP5UK/XUS6XUavVYDQa4fV60dvbi1gshmQyCbfbjWq1ips3b2J8fBy1Wg3pdBo2mw2Dg4MIBALo6+vD0NAQAoEAzp49i+3tbVy7dg3b29tIp9OoVqstal+uUzKoXjL5l9rgMI0GAFar9VCJ/spEbEdA/f+lvZGfUb0BB4ut1+uo1+twOBzo7+/HqVOnMD09DbPZjEQigY8++gj5fB5LS0sIBoN44oknkEgksLW1hUajgVgsppwZs9mM/v5+2Gw25HI5eL1eFItFrK6uwu/3Ix6PK8lxOByo1+uYm5tDtVrFiy++CJPJhMuXL2Nrawtra2tYXFxEvV6H3W6HxWKB2+3G8PAwpqamYDKZYDAYsLq6ilwuh3w+r9YrmVaqWxKNEioZWk9oydhfJwEVESUXSY6TQ06Ak5aE42I9Hg/m5uZw9uxZdHV1oVQqYXl5GfF4HB6PB52dnQiFQshms0in01hYWEAkEkEsFkOpVILJZILJZEIul8ONGzfgcrmU7RweHsbe3h6Wl5dx584d5HK5FieoXC7jypUrMBqNMJlMOHr0KHK5HJxOJ2w2G2ZmZhCNRvHo0SOYTCbs7e0hl8vBbrejUCggGAzi6NGjcDqduHPnDtLpNPL5fIsq5T7pNRRtq57g8vvcwy+jjv+QoQFocoLyxpJb9EZbLoCE93q9OHv2LL75zW/C7XYjkUhgd3cXmUwGPT09CAQC2NnZweLiInZ2dlAul1GpVJRzYrPZYDAYlJNSqVRgMpmQzWaRzWZht9vR09ODTCaDYrEIl8sFm80Gj8eDRqOBUqmkmCyfzyvGqlarat7BYBBOpxMulwsulwuFQkGtw2QyYXBwEI1GA+FwGOFwGP39/bh//z7W19dRqVRazI6eSIdusNhH7lV3dzfef/99jI2NfS1ENAGfueecpFQh7QwzR71eh9VqxczMDM6fP49gMIhKpYJHjx4hk8kgGAyiu7sbOzs7uH79Ora3t2G1WuFwOOD1epUqNJlMMJvNMJvNijHoDDmdTnR0dKBSqWBvbw8A0NnZCZvNBofDAafT+Vh4UKvVUCwW1Tqq1Sry+TwikQiq1SrsdjtsNhssFgu8Xi+OHTuGvr4+lMtlZLNZNBoNnDhxAsPDwxgcHMTi4iI++eQT5HK5FuJI71vazXYhkJRayaxfx1CSyIuTYJLTpATKQadlcHAQJpMJxWIRmUxGBelmsxnxeByJRAIGgwEOhwMWi6VF2rlIo9Go7Ckl0+PxwOFwwGq1olaroVarwWw2K2aTxCchgc/iUXq0tVpNOUVkjkqlglQqhVQqhVqthp6eHnR0dCCfzyOZTKLZbMJms8Fms8FoNCIcDiMejyvG0Ns2PUHl+3Ifm80m7HY7XnrpJfh8vpb9rNVq+MEPfoCLFy9+KSK2ODbtjO4XqdhoNIpIJNLyG33cxU2XbnU7O+z1ejEyMoKpqSn09fVhcHAQDocDmqbBbrfDZDKhUqkgmUxie3tbOSlGoxEWi6Ul5uNvSARKDmPifD6v1HAikUAsFsPOzg4ymYyKL2u1mpqvBAtofsiEUso+L57m63K5jF/+8pdtCdLf3//fI+JhQ686OHFp8CViIkMPvZPE/5N4DocDR48excmTJ3HmzBkMDAygWCzi0aNHePToEZrNJhKJhNr4TCYDAC1SW6/XFShgNpuVFuD3OLdMJgOr1QqbzQaz2YxAIICOjg4MDAxgfn5eOVTLy8u4d+8e7t+/j83NTWQymRbvXB9ycf3SgdF7+XowhDGtjEFrtZqKfb80EfVOjf6G+njnMMJwQnxPz6HNZhPlchmapqGnpwcnT57EyZMn0dfXh0qlggcPHuDdd9/F8vIy3G43bDYbarUaZmZmlJPk8/nwxBNPwGAwIJfLodlswuVyYXNzE0ajEdVqFT09PUoFV6tVuN1u9Pb24tVXX0UoFEJ3dzc2Nzfx7rvvor+/Hx988AF8Ph+6u7sBAA6HAydOnMDRo0extramQpS9vT00Gg1luyV0SC3AWFkSh0wrmZyf6dXvVxmHSqLEKfU2oJ1Bl46RHPxutVqFy+XCzMyMchqMRiM2Nzdx5coVZV/NZjOsViueeOIJFItFfPTRR7h+/ToePXoEu92OSqWC27dvo1arYWhoCLlcDt/5znewtbUFALh+/TqAA+/WYrGgWq3CbDZjYmICyWQSoVAIw8PDOHr0KDKZDEZHR3H16lX09vbi3XffRTAYRCQSwdzcHPL5PGKxGKxWK6amphAIBJBMJrG5ufkYobgXEihoF6pJLaZX/3K/vjIRpcRxMnIieo+VKpMLkaqGxG00GnC5XJifn8fZs2cRCoVQKBSwubmJSCQCn8+HsbExFAoF7O7uYmVlBWtra9jY2ECpVFLXJkZaLBaxv7+PcrmMeDyugIVkMond3V2VveBc6/U6CoUCrl27hmaziY2NDbz55pswGo3IZrO4d+8enE4nzGYznE4nQqEQ9vb28OjRI2SzWbhcLpRKJRw9ehQWiwXd3d0wGo0oFArY2dlR65d7oQ+/pLTp1bCc51cdJj1xJEfIm5tMprY6v533RQIbjUbMzs7i/PnzmJiYQD6fx+LiIorFItxuN44dO4Z6vY4rV65gfX1duf9dXV2oVCpwu91wOBwKKzWbzXC5XDAajSiVSsjn88hms7h9+zYqlQpcLhf6+/uVR+twOFAqlQAcaJZKpYJSqaTAc4fDgUwmg0gkggcPHsBmsyGdTreoZbfbjWazCa/Xi3q9jlQqhbm5OXi9Xly7dg1LS0sqpSZx13beqh4g1yM6X5WQShLbEYKvJfgsx2GhR7PZRCAQwNNPP42TJ0+iXq/j/v372NragtFoRFdXl5KOvb09WCwW9PT0KE+SRp7epHRS7Ha7cv/tdjv8fr8Cya1WKywWC0wmkwIPKJWNRgM2mw1Op1MRsVarqdiwVCq12Lrd3V3E43GcOHECJ0+eRKVSQSwWU3tlNptx4cIFBINBfPDBB8hmsyp8kU6f3hbqiakP575KekoD0JT2T0qXHg+U3wHwmJ3ka6PRiO7ubgVIV6tVFAoFFecxY9FsNmG1WmE2m1smL7MF/Mvfut1udHZ2wufzKS+UgIHJZFJhAYlPsFnTNMUYBoMBJpOpBdXhvUqlEtLpNBKJBPb395HL5eDxeOB2u1GpVJBIJFCpVGC1WlVOMB6Pq5BF7tcXaS39PjabTUxMTGBkZKQFBarX6xgfH8ff/d3fwW63H05EvSfFibSLg/SEbsdp+uRqO1Wtv46eWRhCdHV14dixY5ibm0N3dzc6OztV+spgMMBsNiOfzyOVSiEajSKVSsFms7XEqLwf01oEwaW6c7lcCl4zGAyoVCrKuWHIw5BDxrwye8Mh1anc08PUqSRYuzE7O4v33nsPbrf7sc++MNiXm6sPPfSTkuqDG6E34NKu6q8vF+tyuTA6OorZ2VlMT08jEAggGo3i6tWrSCaTMBqNcDqdSqpZhmGz2ZBMJqFpB2Uc+XxeXddsNisJTqfTyo5Go1HEYjEcPXpUITt9fX0IhUIIhUI4efIkTp06pUCGpaUl3Lx5E4lEAsVi8bHNPwzp0gsEGUjuhx6fpWkhU7YbCjuVwXk77FROph1BD5NOqVb4XToqHFRpJpNJxY+nT5+Gz+dDqVTCnTt3cPnyZSwsLGBkZATHjh3D+vo6arVaS/YjGAyip6cHw8PDiEQi6O/vRywWg8fjwe3btzE4OIhEIoHe3l6F/gQCAUxNTWFxcRHPPfccMpkM3nzzTcTjcdy5cwd2ux21Wg19fX0oFosYHx/H4OAgrFYrlpeXUa1Wsba2phwms9msbKM+bpZSqZfadvum39/DxmPeKZ0GenX6G+kJ2y59JdENqTrlINPUajU4HI4WxAYAVldXcffuXeXWj42NIRwOw+VyIZvNIpFIYGVlBYlEAjabDdVqFffv30ez2cTo6Cg07SDzX6lUEI1GsbKyorIT77zzjnJOqtUq+vr64HQ6sb6+joGBAfT19aG7uxsWiwXPPPMMLl26BJPJhFKphIcPH0LTNLhcLuRyOUxMTCjbe+vWLZTLZaXm5X61S1/pVavcN72j+Xmeq7KJJKDJZMLIyAgePnzY8kNZZNRuIu2IqPda+Ts6FG63G7Ozszh37hx6e3uRy+UQDoexv7+Pjo4O9Pb2IpVKYWVlBTs7O0gkEirLQA8UgPI46dTkcjkUCgWEQiH4/X5Eo1GV+adKLRQKqt6n2WyiVCope1ksFmG1WmEwGHD69GkUi0X4/X4Ui0WUy2WVCtM0DePj44hEIkin09je3obX68W9e/cU6C/3SjK7DPQfI0obIZmbm8Pbb78Nl8vVnoiyUGpmZgZDQ0P49a9//ZinJV1nPfEkcfWqVh+emM1mnDhxAk8//TRGRkZQq9WwsrKCTCaD7u5uGAwG5PN53L59G2trawAAu90Oh8Oh7mc0GlvSV2SMRqOBXC6HcrmMcrms8FK/369CDKfT2aLaGGrQY67X68qpyWazKlRxuVywWq0IBAIIhUKw2+0qzZXL5dDb24u+vj6srKzgk08+wcrKymOFWHomb5e+0hOzVqvh7Nmz+OCDD9qiYkoSiay88soriEQi+Jd/+Ze22F4775SboZ+sXjVw84PBICYnJ1X6KplMolQqwefzwWazYWtrC7u7u0pt0ajLhdNxYu6RXiozF2QE2imLxdJCeJZjSCaTJY7EXZm+Ag6gQ9avsrTDYrEgHo8jm80qJqHqXV5eVuB5uzhbz+iH7XGj0cDg4CB+9rOfwWq1PiZQShLr9TpmZmbwyiuv4I033sClS5ce0+uciHSE2k3i84wwmUKmeeT70oa2s8GScMABWD00NISxsTGEQiEMDg7CbrfDarWqhHGtVkMikUAkEoHJZILFYlGggJ7pCMFxMPFNUKBQKCCbzaqSknA4rIAB6UfI8Ea/R+2cRr6v/6yd3dQPEwBVBzo/P49SqYT9/f1DY0B+v50tbGcH5caT24HPinXl72QNj/ytlPZqtQqHw4GBgQGcOnUKc3NzGBoaQqVSQSQSQaVSwe7urkrsZrNZFYLkcjnU6/UWFUymIeGlpBMQoOQ6nU709fWhq6sLU1NTquIgGo1iYWEBS0tLePDgAfb395Vz086LZ/wr5yA/1xP68xwio9F4IIlWqxWzs7P48Y9/jE8++QQfffSRygro60faOSt8X//682JMfVzY7nd8r1arwWAwoKurCzMzMzh58iRCoRCq1SrC4TD29vaQyWRgMBjgdDpVGiuTySCdTiMUCmF8fBxOpxONRgOVSkUValWrVQUgpNNp1Go1dHZ2wm63I51OI5VKIZlMIpPJIJFIoFAoKKest7cXXq9XVdoRPXrw4AE+/vhjbG9vI5vNKodReppUk3omJeNKhpdaUI+umUymAyIODAzgT/7kTzAwMIDXXnsN4XAYm5ub6sLcWOkq80J6J0d+po9/+B1JOJlM1hOPucDjx49jYmICY2NjsFgsKgPSbB5U1zmdToW+UH2ur69jfX0d+XxeVZsHAgFMTEzgyJEjAIBUKoXV1VXs7u4iGo2qEsju7m4Eg0G4XC709vaiu7sbgUAAZrMZ6XQa6XQauVwOyWQSyWRSpbvcbje6urpQq9UU8ZeXl7G2tqYqBfTMrMdWJU59mADJ/K2SxLGxMfz0pz9FNpvFr3/9a2SzWayurj4Wu7CyjB5bO+lrN7l2Xqv++9JWNpsHid7p6WnMz8/j6NGjKBaL2NraQjgchs/nQ09PD8rlMmKxGLa3t5FIJJBOp1Eul9W9bTabUonEcI1GIwYGBvDNb34TuVwO//mf/4lCoQC73Q6XywWz2YxSqdRSPWez2eByuVSNkM/nw/j4OLq7u5HJZBCPx1XFQW9vL1wulwLZG40GMpkMFhcXcefOHaRSqZbAX6+BDvM7pERKITEajQc20e/3w+Vy4f79+4qb9RCRyWTCiRMnsL6+rjyudheXOpzXafc9PeTEBZvNZkxPT+P8+fMYGxtDJpPB3bt3US6XYbfbMTk5iVKppLqoqtWqyl4w/cSaG6owVoyzNjUej+PVV19FvV6H2+1GX18fHA4H3G63Ko8g4ZnyqlQqKBaLqFarWF5eVu6+z+dTKtVutytp1TQNnZ2dqlqvv78fwWAQN2/exOrq6qE2jvvULo48zOkxmc1mZS+oTvSFsI1GA2NjY3jiiScUYtHuYu1EXnJXO0dJSnpfXx+effZZnDhxArVaDYuLi9jd3YXJZFJZ9d/+9reIRqMwmUzo7u5W4QQ3nkgN1RKHzFxIQjmdThWWyLCD37fb7fB4PC0ZD8aflUpFAQW5XA61Wg3xeBynT5/GkSNHkEqlsLy8jHK5jK6uLvT396OrqwvXrl3DnTt3HjNN0mQdpr30+20wGGBihoAcqvcUNe0Anjp58qSqlNYTsB3H6CWwHcfJz8+cOYPnn38ejUZDVYyz/axWq+HatWsoFAoKhiOaz+Iis9ms6k056GwQieHaTCaT0hKSAWT8yf9z7izI0jQN1WoVmqbB4/HA7/fDarWiXq+jVCohHo/j8uXLmJ+fx5NPPolQKISbN2/i1q1bsNvtOH36NL773e/CZDLh1q1bLd6pJCTnIEMuKQwUrkajARNrO/f29lT/AzeWejkYDGJ2dlaBznr12Q6VaefsSD1PjrNYLLh48SKefPJJPHz4EA8fPoTBYECpVFJxndvthtvtVlCbx+OBxWJRdodE0atyBvbcENaf6jeGkB2JyBY6Kc16p8tqtSovmBitzWZTVepXr17F7u4uLl68iAsXLqC/vx+XLl3CJ598glOnTmF+fh7pdFpV9OmdGT3DH+ZPGAwGGAcGBv5mZmYG4XAYa2trMJvNKJfLqkyQIPDg4CA+/PBDhMPhlkD9sMBe721KGykncP78eXz729/GtWvXsLi4qJCc9fV11ZTj8/lU0pd2i7abGREWEnPzidIwL8h/lGyWVFAdU9LoAFED6SWDbQEEDMgkeinSNA2RSARLS0vI5/MYHR3FyMgI7t+/j2QyiaGhIUxMTCAajWJ/f18xodwziUodtqcGgwHGQCDwN8FgEJubm0gmk6oEIhqNwmAwYHJyEt/73vewvr6OpaUlZDKZFkLodXe797kofWhx4cIFPPnkk7h8+bLi2nq9juvXr8NgMKjSQ2lfSRh9yEPYjZ6fpmmKWKVSqaW8ULavmc3mlkpvXovXoJ2kFFcqFfUbzgVozSeSuWw2G8rlsiq6OnPmDLq7u7G0tIREIoFgMIhQKITt7W0V50qpa6fZ2pkmA7k8lUoBgOoNpMo4ceIE+vv7sbm5+ZhKkRyhL8/XOzP6kGNqagpnzpzB8vIy9vb28PTTT6NSqeDy5cuo1WqqV4Hqj96n/vp6d52qtVqtqmYcggX0Wp1Op/JiaVeIlx6W8qGEUyMQxZGtApRSdjVbrVZ4PB7l+f/mN7/BkSNH8K1vfQvFYhE3btxAuVzG888/jyNHjigNJ4mpD/jbhR0G9sjncjnViWSxWNRkvF4vcrkcUqmUel8ShGFBb29v26y9XkrphU5MTODu3btYX1/HuXPn4HA48Jvf/AbNZhP9/f0qm1GtVlX3FEMJySzcVBkkMzvP37Dim2rWZrPB5/PBbrcrSI6Mw7ZzfXEYiUjNQEJKSZREkHbZ6XTCarXi+vXreP311zE0NISnnnpKEbJYLOKZZ55BIBBocXQkoaSqlppC0zQYbDYburq64PF4UKlU4PV6FYf6fD6VDWf2XFFfpISmp6cVCnIY8bi5drsdMzMzqFar2N3dRSgUQjAYxKVLl1CpVNDb26vqX/gPgOoQJpczJpPSJ22GwWBQ0sBiLBJTEoEhBIN5Xkv2j9BTpTZgCCO1Ej1d7ovFYlFZDab6zGYzbt68iVdffRUulwtjY2OwWq14+PAhUqkUzp8/j/7+/scIR8BfxtPSGTK4XC6kUikV93R1dalFjoyMIBgMIhqNKnUDfAaA1+t1+Hw+XLhwQS3msAAVOOitP336NNxuN3Z2duByuXDkyBG899572NraUjZQuv/MRlD9SY6k80LVJj/TZytk6WOj0VApJkq23uNrFwtzTtRIkmnZ9yhjVMJv2WwWFotFVc3duXMHV65cwczMDObm5mCz2bC3t4dyuazOMmin0do5kZqmwdDX16c8s2azqYplnU4ngsEgzGYzdnd3W1xyudCJiQkEg0EkEonHCCcl0mq14vjx43C5XKqjaWJiAplMRlVhy/hMqka6/tITlO1r5FZKAZ0KZiZIPNqtXC6HSCSiOo0Z+1Gtcn1UwWQKCT5LZ0sv5XSeyuUyzGYzOjs70dfXh56eHlXYvLS0hEgkgvn5eUxNTcFqtSIcDqPZbOL06dPo7OxsIZo+PSf32kDIifaFOTjWVWazWcRisRZu5Wuv14v5+XlkMpmWBkx5A/5zuVyYmppSHUzEHa9cuaKaTplMzeVyCr/k62KxqBASGbwDn3U+yUVKVUTisbyCmXhN0+Dz+RSILolNZpAVAHpURcakeik2m83wer3o6OhQJgo4qFBgNuXatWsolUo4fvy4spuJRAImkwnnzp1Tp4voa5T0xDTIxCgPI6BKqNVqCIfDasEGgwE2m00F2NPT0wiFQlhYWFBOkf6GlJaRkRGF+BDtX1paQiqVUg2eDOolFso4rp1rTfvAuemdLv6foQZrRZnVMBgMSCaTKBaL0DRNlYDwOBVKoPQWD0OdpPahJyyllWuw2+3wer2wWCzY2NjAvXv3FHDBWDYWi8FiseD8+fNKtZJR5DUV42QyGZRKJfUFbhxxxt3dXVWDQrWhaRpCoRC+9a1vIZ/PY2dnp60zw8VMT0/j5MmTCkzo6+uDz+dDLpeDz+drQUh4D75HYlI16qWA3C+NPqVI2kdmIlwuF/x+v8o2MPvB7MnnEU1qFpnUpaQTMCcxaHfJPHIudrsd2WwW7733HqrVqqpI4Jq2t7cRDAbx7LPPKrutD/HU+mkHWaJBAtjtdnR2diIejysiss8egDoFIxqNKihOAroAVL3mhQsXUCqVkMlkYDKZFOFrtVrLxGW9jLRDUn1KRmnnrcl7S1SH0i2zHT09PRgfH0dvb28LkC4JRNCbZwBIhqnVaqpcg4VZ/EdkSNbtNJtNZRqYwOZpIIODgzhy5EjLGTfLy8sIhUI4fvx4C1ihx1oNLM8zGo2qjoRSx6NDuLmsuDYajfD7/TAYDAiHwypWIwNw2O12PPnkk7Bardja2oLBcFC8xLYyxoDkZNpBCY9xI/maDhglQO8lNhoNFAoFlT7Sp3Rk/EapkBir/B4AZDIZpFKpFtSHDhjnyViTEkpplhIt8Vu2EXBvP/30U+TzeQwPD8Pv96v7J5NJ3L9/X7UEynlJBjYQXvN6vWg2m6oe0263q354lpHzOCvGOJqmqVYwPZIAAN/4xjdw7NgxLCwsKJVts9kQDAYVV7MpRv6Tk+Vm0bHhIGNJxIVSSqiNhwqRmHLxEp2hdEmcslQqKTyZKTq9tjEajSoWrNfryGQyqrpOerZkHIL3DDXIQBsbG7h8+TI8Hg9GRkaUJjGbzape56mnnlIdXnonyhCPx2G1WhVCsr29DQDweDwAgEQigXK5rPQ4sxojIyNIpVKq5VofGrhcLpw+fRrZbPaxk58KhQKSyaQKiKXOlwZcSjhRmEKhgGKxqCRMn7KRsSVNBOtHy+XyY4wmB5mA3cDxeFz1S7Ivkt+Tqp59k6yKI1pEpiEj1ut19Tu5NqvVikgkgo8//hgOh0NpOTLtysoKLBYLhoeHW7xvFezH43HkcjkMDQ3B6XRic3MT9XodAwMDLbEKERKTyQS/3w+73Y7d3V1UKpVWCOi/XhO139vbU4Evg+D9/X3UajWVXqJUMSXE71NSpOTINjRKhv61w+FQ/6hNCoUC9vb2EIvFUC6XW+ZM6eRZNzwsye/3Y2hoSLWhS3soPUVKB9E/a0sAAB2NSURBVJEmVpbzs3K5jHQ6jXg8rrxhmg4ybq1Ww71791Cv1zE6OtoCQhSLRcRiMUxOTqKnp+exXK0hmUwinU5jcnISgUBAVXjR5edkXS6XOobE4XCgVqupYiWqFnKG1+vFE088gXg8jq2tLWWsqXZ3dnZUtzDtB/sZqIK4YbJWhXGePh6U2CmlQzpHDocDHR0dMBqN2N3dxerqqmIkJnMjkQi2trYQj8cBQFVzE/Yj4KAP+MkMZEJqF+4bE9WSyFT5kknNZrNS/2fOnMHIyEiLk8NQbHZ2tkVzGQwGGFi6193djWPHjkHTNOzv77dwPeNDaSPD4bA6CZiZD007OAl4bm4OExMTKpcmwYGBgYGWDIQ00LSTEiaT+CaZh6qR35cqmNfUAxNmsxkdHR0qVt3e3kYkEkGxWFRHcrIqoKOjAz6fryWIp0rXI0TyO3QMU6kU4vE49vb2VF6W6S4J2Eviswfk0aNH6oAKYq5UrZlMBmfPnkUwGGzBUg2pVAobGxuIRqM4fvw4Ojo6VPVWsVhs2SACxB6PB+VyWRXjNhoHLQCNxkE95szMjNLz5EbGh0ajEblcDgbDwREm6XRaFfiSOyl9NN4SrGbFmTxFSiZlJSTHTeb3GF5QDebzeRUOSLXMdSp1JSDHduqb8azD4UCzeXCSciwWQy6XUwAKi7aotuPxuNIqfN9oNGJ9fR1bW1vo6uqC3+9XxDKZTNje3obP58Px48dbvF9DJpPBxsYG7t69q4psyXVer1dBRMwiAFAdQvT86GXRSHs8HsRiMVUTw5rMarWKu3fvQtM01bJtt9tVyomoBbWAlFBuKKvSJIojk9QymyBVq/yc1+JrPWwmh15r8DsS1JDojtfrRSAQgN/vV/tHX4KYKs90JYhB7JoFz/fv34fdbsf09DQcDofag2QyiZ2dHUxNTaGzs/OztVarVezv72N7exsWiwXHjh2DxWJRx2PZbDYVelA12u12BAIB2Gw2lb6is9HX14e+vj51mJ5URzs7O9jY2Gg5IIHOB+2t3ExKOT1b6SxID5acTM9QhhM0BzQD0qYS46Tt4fcZ8+lhM/0x21LapX0k8+hjWV6D5+EFg0H09fWho6ND+QOapuHTTz9FNBrF9PQ0xsbGlMYDgI2NDfT29mJqagpGowFAEwYA2N/fV5XKPHSHcBy7aok00Dam02mFYgQCARU+TExMqBZqTdMUmmM2m5FKpVoaMCWAbLFYWtSl3BxuqCxckvZI4pRSqmRMRdtNN5/XYcAvESF2/VLCuIGSySSSJO8rr6tpGorFoir/p9RKJpahBivJt7a28NZbb6FcLuP06dMwGAzqiOu9vT0YDAZMTU3B4XBCM5oPiJjP57G+vo5r167BarXi3LlzqveA5YHRaBR7e3vw+/3o7OxsUa9ut1up376+PtWUwwX6/X5Vh+l0Oluchnb2S3K0VHskhkxLSSmhauLQA+eUXG42VT3xYmk3JezGIQEFqXqlZBuNB2cJMKCnAPBgJRKrWCyqUzroqDHEMplM+OSTT3Dnzh309/djZmYGhUIB9XoduVwOuVwOw0ODGDnzLfSf/u4BEWu1Gvb393Hv3j38/ve/Vzfa29tDIBDA4OAgyuUyIpEIurq6lOtNCWMukKpxf38f6XRaLZBBKoEFxoU8GoWQFkMKwlmFQkE5HoVCQTWPSsJIoEF6o4To5P8tFgtcLpdylGivZJmiXA+vwXtJgknMVjIY70cJ47msAFTj6v7+vjrlg8eXESygtNbrdXzwwQfY3d3F5OQkrFarqtCLRCLo8Hegd3AMmwuXD4hItbezs4O7d+/i3r176mEfTqdTlREyOSxBa2YHqHokuM2wIhQKYWNjQ1VUS1umDwtkvWcul1MVB1RZegkk98t4lZtOZqHUsOSR2oDoEfFjluPTg9UH9HqgXb5HCZdVDxJfpVPDWiaZ6acW6ejoUI4k4bhPP/0U/f396O/vVx1W0WgUaAIupxPVUqH1CBR2CXk8HhQKBRVmjI+Po7OzE9FoVCWAadsI5jKDzj5BqumRkRGUy2Wsr6/D7/crFUO1ycYVOiD6wifGUCzFkMQjA/Kvvppaqj3+jslXBvlshKEmYYeVjDXl9eS99V4q18S0FMH4QqGg1sWDJij5cn0AlCdL739hYQHz8/MYHR3F7du3VaH36uoq7PYDaNRAXU/uiUajiEajyGaz2NnZwa1bt+DxeDAxMYFGo4FUKoVGo6Ekio6Cph1kyZ1OZwtY4PP5sLGxgUwmg46OjpZsAW0Qi3Q5FxKD9ooqX080vVrTb2o7iaTqJHCtaQePPTIajapGhteVNlGvuqlB9JCjDG+oeXiMSj6fV5qMHjeBcamZqILNZjNisRi2trYUBEqVnE6nD06Xav6Xdyo9q2q1ilQqhXK5jP39fVX4yroP6mVuQKlUUkd+MbB1OBzqXBqC6tJrlIlXSpjMpjNcYKkipUw6U9xYXlMiTDJuJAPItJas26EGYSEWCSXBA8kEvK8krAx/yEBEm9xuN3w+nwpPHA5Hy5N46CMQ7JAOHc3c8vKyUr+yAt1oMj4uiVw4F5xOp7G3t4dIJIJQKKTKGiORiJoIswTMN7JbllJos9kQj8cfq1fhPUgsnl5B9ZNOp9XRl1RFzWZT5RulPZUOBjdWSo6E4KgG5Tyk1ykJIplBMrkE4eW15JBqn9f0er3qPDgSC/jsyBap9hmKmM1mbG9vQ9M0heAAODgKpt74jIicoCQkcPAkNBpXm82Gp59+GvV6HYlEQiEu9XpdnZTo8/kUxkcQgDATN0CfsuLGMSlML5SeqXRYyDiUPHktubl6z1EPqMsAnAlpxrNSLeqljtfkfCkVEgQnQcmYmUwGyWQSLpcLnZ2dLXBeo3HQsEs1S7NUr9dVoRXj63w+j97eXmVz2Z2miCjdZMlJzWYTsVgMS0tLuHbtGiYnJ+H1ehEOh6FpGvr7+6FpGh4+fAi73a6klZvBc2d4rWw2q+IcIkJ0kIg98hRFnjtDyaNUyPwjiSklSS+B0m5J4sjQo9FotNQZSYbWS6ckmIQG+VuagnQ6jUgkgkQioY70lLnRarWKeDyOVCqlwhy5Tkoq+zkymQx6e3tVC59kRJOecPrBE3Y//PBDhRow2zw7O4vr168jEongyJEj6OjoUKc8GY1Glb2mjZR6n3aIMBcDdsZJTqcTwEFSenNzE52dnaomVhZB6V36dpJEYkpCSCkEoAJynqDBwdey/oj3oHfJa5NxCGWaTAfnzXm9XnU/zrNUKsFgMMDj8bSk8YgWSdvIImRWEMg1tBBRqg1JUKPRCGY6NE1DIpGA2WxW7VrBYBD3799XkBq5SQa6tIcs1SPBZK6OtokEYXa+Xq8rb1ePwOhb7KR3KlU1cUwZjOfzeRQKBeUFc2PJSHrwQKo6Pa4q40NKcCAQUDlYqWrVxoueF1bHydiSmozrYqs57+12uwCTGdAMrScPy0nLCdXrdVWWmM1mYbVasb29jcnJSUxMTGBlZUWlXqjHOVEevm4wfNYbYbFYWjIIjK+kE0I3nnWa0pWXRNLHgvq1yO9TGng0Cjmec41GoygUCsqb1Ese7yNVrVS/MvCXPRhU2eVyuUVtEyCXalTWAUsHiHaYMbTVaoOv04P5/+f/bX2kwmHSSHWzu7uLer2OeDyOpaUl9cSzmzdv4sGDBwAOEqoshpUH2jFtxRBEAthcKKuzWbNCD83v96NUKrWUVVAypfTpN52MIivk0uk0MpmMCqpl3Ge1WpV37PP5FJoiPUnOV76W4LwEJeT92e8CoAXio52X+02pZQcyQxA6dWazGT5/J/ptRfir4dajMvVDqgoGxSR2NBrFxsYGnnnmGQwPD+Phw4eIx+MoFovK1vGpocyYy/IEvYdKO2m1WpFKpVAsFhEIBBTaT0y2Wq221L9Kx0PPFFwXvUWqKZ43LtfGDWctKT1jeUQ1JUI6S1IrSBXLQW89n8+3hA0kot7+UuLIqHLerBLo6urC8PAwVldXEY9FHndsGHxyEXroiZ9FIhE8evQIc3NzmJycxOXLl1UfQSAQgMFgUCdKMJCnmjIajcqtp4qS2Xce4yzVq8FwcKKU3CSpLjnahTD05KjOpZco013kcrvdjnq9ruJVqnUJlUmPVF/cTMbhPKRaJaFpownG08Gjs8XP2R7B2l2TyYTOzk64XK7/SrwXH39qm91uV3pbr2a5cQaDAYlEAg8ePMDNmzdx4cIFjI+PK7sYCARgt9uxsbGByclJDA8PK1VMDuTTZ2SJAwcnLSVEAuOyzlXaF/msYAmK65tGKVVUuRJak3PweDyw2WzKLLCoWqrJer3+GOaqXxMJxVIUecwZCciibO4L87e1Wg0ej0et0WKxYGxsDEajUdUFKXVKTpGPBpC6X3IYABSLRYTDYVy9ehVutxuBQAC3b99GLBbD2NgY+vr6sLy8jFwuhxMnTiAWiymwV3Kk9CplXCZtEAkoa2H4OSWG8yZmSQdDepu8nozteF/ZiyHNCIlJNctEOAC1HtYkBQIBZbf0xKSEkxkI+ZHI0jxIzLZWO3iiHIkfCoUwNjaGtbU17OzsHCBaUhXpL6BXVXpEJ5vNYm1tTT0Xgm3h3d3dGB0dxYMHDxAOhzE2NgaPx6OeXyEz5AwvqBHkfWVaid+R+KamHVSg81RInjVaKBRgNptVgC29Rm4uT+/noxCazYOeFL/fr+yg1ETUUkzgMndKe8uiK/Z0SCiTjMq/eseHgxCkrLH1er3o6urCjRs34HA4MDc3B6PRiPv372Nvb+8ArtOrEb2TI22LlBb+ZVpkd3cXhUJBPTdiYmICHR0d2NzcRLFYVAcLEK7SP4ZPllpIO0X7RYdCzotIBu2urG+VR3xJCaQDIk/MoGfK0EeiMZR2SUh+DkDBa5IZ9fOVmk4SiDAj+yUpoWRGAJienoamHZypMDU1hbNnz+LRo0dYXl7G/v7+gc3US1g7T0s6EtJ+GI0Hj/vZ2tqCzWZDoVDA2toabt++jfHxcYyMjKhzQHt7e5UqYimkrJKTxUbSluhVudQEktsZwANQ9aVSo8g1UOp54CBDDra+6U0JJctgMKh+FNojSrYeiJf7RaLpwxH+VhYx82lzxWIRo6OjOHbsGC5duqQOt7Db7crrV887lguTQwa4+viRm873mN/iqYcrKyswGo04efIk3G43bty4gWw2i+7ubtRqNdWDL8FgGSpwMyi50q3nHKSD1Gw2lTPm8/mUROm9RxJeSkSj0VCBOXHdRqPxWKu3tFvd3d3o6el5TFXT6aGqp+Mjk8R64Jy/Y1SQTCYRjUZht9tx4cIFVWkv788CaoYiJqqLduOw+FF+RgKwhCIej2N7exuxWAxDQ0PweDxYWVnBw4cPcebMGVy/fl1NXG8bpYcqITig1fjLv2xSbTQaChyXEiHtjoTSuNm8r5Q+qT6lkyftG9Ns+i4yeR2Z9dCXLvJJOPyMHiuZd2BgAHa7Hb/73e9gNBoxNTWFU6dOIZfLYW1tDclkUs3d+J3vfOdvJicnMTo6ivHxcYyPj6vqNkkoeld6W8a/lBZyn9VqxZkzZ2A2m1V72KlTp+DxeLC2tqakUNo5biA3V6L1MqnMTWecJUsAJbbJA/Mk7irtL/FdoiKymJn34v316S0yFsssZaWdHuojI9F+8jN9dzGl1u/34+mnn0YsFsNbb72FkZERvPTSS+js7MTHH3+Mq1evIhwOfyaJv/vd7x6Tsn/7t3/Dj370I7XJDFgl8fTxI9+v1WrY29vD3bt30dfXpw5m+NWvfoVLly7hRz/6EWq1Gu7evaviRG4+/09VKWtPOPSpIg45H6k66WnKWEw2gcoUlyyR0FfQSTUsg3veT0qzHnDgvTgPgiqyDIXlG81mE7OzswgEAnj11Vdhs9nwve99D8FgEB9//DFu3ryJaDSqSiCbzebhTzLVqwRCZ/oN1P8FoB5y+eGHH8JsNuPs2bPY3t7GW2+9hZs3b+KFF16AxWLB9evXUa/XVccsVYwMQ6Tao22SG8tNog3iZ0ysslyQ2CxLICm5BKCZcZfOklSl1BDpdFo158gwRDpdEjIjkWhfASi7K2Ndlvf39vZicnISKysrWF1dxbPPPoupqSns7u5iYWEBW1tbSCQSLU7bl34wtN6TlX+ltCQSCWxsbODjjz+G3+/H97//fWxsbODKlSs4fvy4OsuNj5YlpkgbKNur5eMPqGK5MZLbZRAvi5AlY8pmHEJx+qPG9GaCBDSZTOjq6lLMIvdDxq4MWZhCojfO+VCtkikZt7rdbszPzyOfz+Ptt99GMBjExYsXUavV8OjRI+zu7qpOLjnPQ5+4SO7Sv8fFyQXr4yE6Otvb21hdXcWtW7fgcrnwF3/xF+jq6sIvf/lLrK+v47vf/S6effZZaJqmyg2IM9LQc5GUGNnyTbtG4rbzYHkNm82mjlih5BOY5sbSdkovkhivTKVJ8Jzerwwd6Imygo5STqns6OhQHVQMJywWC5599lkMDg7i0qVL2N/fxwsvvIBQKISdnR2srq6qxxnpMeNDiagPL8jlegRffkduLnAgTTs7O7hz5w4++eQTjI2N4U//9E+RyWTwT//0T3j48CFmZ2fx7W9/G16vV2VJ6DDIngkSQ1bGcV68p/QG5T+qUm6uDPjZZEOCEVqT8BgLjllCQUaSqpT7QCkjjktm4uONXC4X3G63OqiITalPPfUUxsbG8Omnn2JpaQnz8/MIhUKqDfzBgweIRqMqoyH3+QttoiSWVKufR0BpNzOZDB4+fKgI841vfAMvv/wyXnvtNbz++ut44YUXMDw8jEajgd///vdIJpMqZUXi0XaQgfRMRIZj/CU5lZtOBqQK0ztOMuaUqBTtHg9zIPEZHkipl960bNcGPsuucNCZ0zQNZ8+exfj4ON555x28++67GB8fx/nz5+FyuXDr1i0sLy9je3u7pSKOdvdQIsp+eX0MqZdQqjTaDUlM4EBSEokElpeXVeXzxYsXYTKZ8Itf/AK//e1v8eMf/xjDw8OYmZnBtWvXkMvl0NnZ2RLzycBdP/Qok2QiAs3SG6X9oorkU99ITG6+tLNEm+QJV1T10ss1Go2q4lsCIvL8GjJAPp9X59e8//77uHTpEsbGxvCTn/wEwWAQN27cwEcffXSQN4zHW9bVwhDtiDg0NIQ///M/V1wq467/+I//UKdhcNFut1s9Eq9d+NFsHpxIcefOHRUTnTlzBs1mE6+99hp+8Ytf4LnnnsPs7CxqtRoWFhY+C2RF9kIyiLTFUiKkwyFtFjmXdot2jyqb3cskhBysHZKV23JtstxRwmZSkmkKuI+5XA79/f0YHx/Hu+++iw8//BCzs7P4yU9+guHhYXz88cd49913sbq6ir29vZZCLf3Qmp8Hy+hGoVDAk08+iYWFBbV4bjTdaXkjyfnccK/Xi5GREZw7dw5PPfUUwuEw/v7v/x7hcBgXLlzA5OQk1tfXsba2puwFE9RSncpYUNoIPWHJVKy0Y96PKtZsNqu8HU/4lyqbjko6nW4p/ScTSC3A8KdaPXi6G+NPyUiNxkF5ZFdXF3p6enDjxg08ePAAc3Nz+NnPfoaOjg7cunULH374Ie7du4e1tbWWnk49MQ0Gw5cjYjKZxDPPPIPbt2+3cKsU78NwWCkZLpcL/f39mJ2dxcWLF1EoFPAP//APWF1dRSgUwlNPPYV6vY719XXlistF6NVqu9wkCSkJSpUvA34AyrHhaSHtwAQ6M8yUyK5jMglBdMa88mgw2lweTp/NZnH16lXU63VMTU2p89Dv3r2LS5cuYX19HQ8fPlTMIJlT7qnRaPzD4sTPG/p4qd3QIxf5fB4bGxsKAXn++efxV3/1V1hcXMTvfvc7vP7665idncXk5CSSyST29vYe6x6Sm00GYYAv50U1R2eD4DHTSkajUeXxWMBFIjSbTaVC9QXLAFpCCvaikGFkcppSz/BmYWEB6+vrGBsbw0svvYTjx4+jWq3i5s2b+PDDD9XhC6zzlTa8nbn6ykQkUeQF5YbJ15RAvqahX1tbU/0XFy5cwMWLFzE/P4833ngD77zzDpaXlzE9PY0TJ04gkUggGo2iXC4rYIC2CoAqi5Sojj4VxfCFT5zhBjOhy+dt0Ibxd7yWVN3S2ZLteGQm+Zg/AheFQgH7+/sAgB/84Af4/ve/D6fTiXv37uHu3btYXV1Vz77iwfpy7u3Alc+F3b5otAs3DsMypZenB5fD4bDayHg8jrNnz+LP/uzP8Pzzz+Pf//3f8f7772NlZQVHjx6F3+9veRglr61pmpIq4p5S3UhVTELSdlG9VyoVVRGgz3xQEgj+6+0zr0fbTSlPp9Pqmjz0aXx8HK+88gqOHz+OjY0NvPnmm1heXkYsFlMthQwlJMEk8zxmH7+sTXzqqaewuLjY9nMZnPPGvLn0CvXqADhI5A4NDWF0dBRnz57FqVOn4PP5sLa2hjfeeAMfffQRKpUK+vr6oGkHZRk8fsXr9bb02cvOYpnza2c7KTXkfNabkslIFA4JgstNppfKxw7xOJPt7W114NG5c+fw4osvoqOjAx999JHKRkSjUeTz+cf6QSQAL82DjD1NJtOXk0RNO2iiYRmdVJuxWAzJZLKFeOx9Z9EvFysLnvh+NpvF0tISotEowuEwFhcXce7cOYyOjuIv//Iv8dxzz+Ff//VfsbS0hP39fQVllUqllsYdQnQM6LlYyb2sWqvX6y0ZAem1Mjzg7xnnaZqmMiPUMCbTwXl3XV1dqvXAYDBgbW1NnSLyR3/0R/jhD3+I7e1t/OpXv8KDBw+ws7PTguy0EwKCC2Q46V/w8y8liYz3pG3g+PnPf46f//znLdl6m82mPEIJTwGPP/xSGm+n04lAIICBgQEMDQ3hzJkzmJmZgcfjwc7ODv7xH/8Rb7/9NiwWC86cOYOBgQH1wOZkMqkKloDPEBt5TgxtIRtVGo0Gurq6MD4+jr6+PhU3UupY/8LsB4uaKY2sVjCbzYhEIlhfX8f9+/dRKpUwPz+Pixcvwmq14r333sPS0pJ63qM8RKKdwJBIMjUmTZT63pch4ueNv/3bv8Vf//VfK/WlB2n/0NuQ09jP0NHRgVAohFAohNHRURw/fhydnZ1YXl7GO++8g4WFBeW29/T0KDhNAuhUO/IJMmQWPnrP5/O12EZm6yuVitpweqvsciIatbW1hZ2dHezu7iKRSMDn82F+fh7T09MAgMXFRSwuLiqHhRV2EtWS+6VPifG9dpDn1xJicEgQWE5I7+DoJ633bvm32WyqxwTFYjE8fPgQd+7cwQcffKBKFV5++WWcOXMGV65cwe3bt9FsNtHR0aFOiPR4POjv71fqVs6j2Tx4bERnZ6cqw6CjwyQt12S1WtXJF8yVbm1tYX9/H5FIRPWPdHV14Y//+I9x9uxZ5HI53Lp1C7du3UIkElH9mNKMtIutvyjO1u/bf8s7PWxIlKQd5+jDEACPVXQDrSV/fJpoMpnE7u4utre3sbCwgOHhYYyOjuKHP/whXnzxRSwtLeHGjRtYWVlRXU8MwHlSFcMT2s9ms6mkjHZOVpMTN6Udlx1fHR0dOH78OEZGRnDixAn1SKZbt27h+vXrKoHLEEN65nKf2hFGLwj6fSRRv1ZJlFL0eYTTE0r+bedOA59lMlgqyOfcP3r0CFevXkVnZyf6+/vVk1Cff/55daqVbPThvXh9OhI82B347AgSSiSPQSMzsCeDTbA8GerGjRuIRCLY399HIpHA/v6+OpBCjyR90b7pnRu9M6Pfp69dnbYDwfX/14PZejRChgSML+Wk2dWbTCZVwndpaUk9JIWPXPf5fBgaGsLRo0dbzt+WD7CkFshkMohEIirG40kgxEHlw6dp0wqFgmpZY/cXc5F6eKzdkPujd/q4TzI0kvEvf99oNL5edUp46oucmMOklRPXf0cvmfrvykMO9vf3W05yZDkGHRhKmTxAvlarKQJRRcnTQWSPJQuUgc9iRllLKkOTdkOPbrVbczuTIgknheJr9U7v37+PlZUVVV5xGKHafdZugV/183bf0XvKn/d7vaeod9DaSdhhKvGrrEP+Tv+63fxrtdrXR8T/Hf/3xqE1Nv87/r8z/peI/z8Y/wcl1eInim+xrQAAAABJRU5ErkJggg==;" parent="1" vertex="1">
          <mxGeometry x="74.15" y="50" width="121.69" height="112" as="geometry" />
        </mxCell>
        <mxCell id="sv7QqwGItXfnHkpMQwmk-6" value="" style="rounded=1;whiteSpace=wrap;html=1;strokeWidth=3;fillColor=#f9f7ed;strokeColor=#36393d;" parent="1" vertex="1">
          <mxGeometry x="280" y="40" width="190" height="140" as="geometry" />
        </mxCell>
        <mxCell id="sv7QqwGItXfnHkpMQwmk-7" value="" style="shape=image;verticalLabelPosition=bottom;labelBackgroundColor=default;verticalAlign=top;aspect=fixed;imageAspect=0;image=data:image/png,iVBORw0KGgoAAAANSUhEUgAAAG8AAABqCAYAAACyCA/TAAAgAElEQVR4nOy9d5id133f+TnnvO/tc6cPZjDAYAZlUAiAAAkQ7D2SKEqWrWIVU7ItW1LsXSWxvXrsZPOss8laXjtyEsWJ144dy4pldVNdlEiRFDtBNBIA0dugTC93bn/LOWf/eO80YAYYgATlrPf3PPcZ4N73vuV8z699f79zrrDWWq6jvDxW5iN7hxguVxEWQimxiEuOE9biGI1Wipvq4nzj1mV0JJ3reWv/08t1H52DuQoVP0QaaHElvdk4cSWYPWWEgEJgOJKvUjAwVvU5WfT+f/CuINc8OhO+5kLZpzcbJyblJZ8bCycKHj8ZLFHxNVLG+PnONP9mYxtxCbPVXQCD1ZDf3D3AcxMBY5WAH/YXWJOJsSTpznv9yUBzrhywpi5OXF6qyf8Y5JrAmww0f3JklJ+MVPknrQl+bWUj3ZkYEIH63FCRp0YqHMh5HJooI42AGGzMxsm6lwIN0JVyWZmO8fx4QBhavnx6kgP5kC11Lm/vyHBzS5KkkhgL+yYq/PnxCQ6VNB9fkeaXe5pw5j/t/6flqsEb9zT/4fAoX+grUQw0JyZ9Xhqp8vGeLI6UfPnMJPsnfcZ9A1KCdTBC0Cktq2sAzydCCG7IxknZIiUZYzK0PDtS5YXBEo+eL3FbS5z3Lc9yZNLjb88UOF0KMFLwR6UAYQWPrGwg9o9MA8XVBCwTnubfvz7KF88UqYYhAmrBhyUdc5BA3gsjJyYVKTRrsi6r6uLc2ZrkPcuzNMbVguc/XfT5+zOTvJrzOZGvcqoYEkoF2qAEZOIufqiphhohBFiLFYKWhMNn1jXysVUNxNQ/HgAXDd5YNeSPD4zyd30lPG1QEjZmXcY9zbmKBsBaEFLSEhPc357mrrYE21qTdGdiOGLxg1rVliOTVXaNVnlyoMTLox7F0CKwYEFJ6K1z8Y3hZDHEAi3JGL+9NsuvrG78RwPgosAbroT8+wOjfLWvjBeGCCl5x9IUv7uxmXyo+e9HJnh6xMMRgre1x/lATz1bmxNk3Lla5huLpy2BsYTGYgEJOFLgSkHSEaiLQB6phLw0UubLJyd5ZTwkpQS/0JXkIysbGKmG/J+vjnEg54O1NCUcPr2unl/rbSCh3nonWA4NhcC84fMoKWiIyStO+CuCN1gO+eP9Y3z9TJHQGJRSvH1pgn+zpYWuusiHTfqanw6USDmS25ekSM+KHvK+5nTB50TB5+CYx+mCz2AlpKgFFoGymmxM0pl0WNMQ54bGBCvrXLrrYsRnadBoVfPMQInmhOK2ttT0Z68MV/jX+0Z5bcwDLPVxh9/sreOT65tIvYVRzIVSwOcOTPDyhEZafc3nMVLRknT5T1vrWJWNX/bYy4LXXwr5w32jfOd8hVBrpJQ8vCzJv97awvLM/CH8lIxUQp4dKPHT/jIvjVQZCySB1mhjMJYoP0DUbG2kga6SxJSiM2G5qyPN/R0pdixJzpkM88nukTK/v3ecvWMeGEtd3OGfrq3jk+sbySwQ3b6ZcqEU8gf7xvjuuTKhMbwR1sNIRUcmwdfvbGBdY+Kyxy4I3rliwB/tG+d75yvoMCTmSN7VleZfbm2iI7UwcJXQ8ONzJb5+ssCukSoVKzFG13yVIOYoHClQUkahjgVtLYHWeKHG2CjylErS7FruXpLkw6uz7GhPXmJSZ8ve0Sr/ds8Y+8Y8QmNIOw6fWJvhNzY2XVcAzxUC/mDvGI/1V9FhgBKSdCIWBVTXIFOa91c7Mqy9AngLpgo5T7N/zCcMDQrB+jqH//WGhssCd2rS5/95PcePzpUY8wwSgbUhLQmHzrRkc1Oc9Y1xOjMOda7AkQLfWHKeoa8QcHCsyqFcyEAppOBrxgLBt06X2T3i8YsrM/zKugYaE/NHqze1JPiN9fX87ztHGSobitZycDygGprrBl5fIeCze8b40fkKxhhijsv7VyR576o63GtMWywQcxRddVfO4hY8Yl1jnA/0pPn8/hy+EVwoao6O+6xpiM/DTMIL/WU+9+oEe0d9jI0AX5pyuL0jxju7MmxtTZKJSRILRILGQjU0jHua5/vLPH6uwq6hKrnAcL4Q8l9fL3AiF/BbW5pY3XBpvuhry4HRKrmqRiBZ4sKHV9fRnLg+FNupvM//tWuMn1yogjXEHcUHV6b4nS3NNC0wwd5suazPG62E/M5zwzw3UEVbwdbWOJ+7vYXVjXMH74m+An+4N8fJvI4eRAru7UzwyNp6bluavKZZWPANj/cV+dujeV4bC7DWYoXkro4k/+rmBjY0zzhzCzx1tsS/emmUoYrGVYKPra3j97Y1X7MGXE6O5zz+YNc4Px3wQBtcR/LI2gz/bHMDjbMmi75cLDjlHsTMMxgbpUIIwWKynctOy5akw0d6s7w6ZshXfA6NBTx9rsSqxti09j1/ocQf7c1zKhciraUl5fKxtRk+si5Lc/LaZ2BdTPK+NVm2tiX4iwM5vnumSjUIeaG/ymfNGP/uthZ66qNJVPQNj50pMlQGYWF5xuEX11y76bqcHBv3+OzuCZ7tryKMJRFz+KU1KT59YyP1NQJCW8uPzpT4wZnInHJJCGPRMs7d7S4fXV8HwMmcx389WKbohzQlHf75pgxLrxAUXhY8C/TlArRvkUbQFlOsb54xmycmPD63O8ep8QAFtKcd/sXWLD+/JvumDdzK+hj/cnszrfEcf/N6gUpoeLnf50/3TPD7t7dQn1CkXMnGxjg/pIJnJGXPcD4fsrbx8qH21crRcY/P7pzghQEPYSDhOHx0TZr/ZUsD2RpwxsL3ThT53J5JzpUMws6X91lCR1CvLB9dZ0EIxiuaJ84G5KoBSzOWj/dquAJ4l/XkfZM+3z5eouppHCTv7k6wvT0JRGbtz/flODDko7SlLeHy2zc18P7eNw+4KWmIK35zSyMfW58l7SiEtjx2qsxXD09iLCgBD6/KcHt7AmEFoyXLt48XKfjXnm9dLAdHqvzbFyd4sd+D0JB2HT6+IcOntzbOAs7y6NE8n9udZzAfENMBrlDEpHPpS0R04pROCguuEMSkgyMWF2BdVvOeOFWiLxcgkaxICx5eVTedHP/4VJGnzvooGzEjH12X4j2r6y4bIpcDy9Fxj0PDHiMVjWcEKQeWZhw2t8XpbnAXBD7lSj55YwNDhZDvnywRIPjGsQo7OqpsaU/QmnJ418oUrw355HzBnv4qewaq3LsivaiBuJwcGKny2Zcn2TPgIayhLuHysQ0pPrGlgXQtkg0N/P2RIp/fm2ekFCKFZFW9w7tXp8nGFRe7Pyslaxrd6fFa0RDj926yVANNOqZYkl6YxJ+SBcGrhIbdgwG+VjhScm9XkrXN0QkHiiHfPlKkUIkI4zs7E3x4Qz3OAgNfDQ0vnqvyzcN5jk1qRgo+FQ1IB2ECMq5kSV2cm5Y4fGB9HZva4sh5JkFDQvLrW+o5OhZyYsLnQt7w7WNF1rXESTiCe7pSfPtYiRcv+IxWBPsG/TcM3qtDVT77wgSvjQRIa8nEXT6+McOvbq4n6Ub3GGjLNw4X+C97C4yVNVII1jTE+N3bGrhreXJR12lLOXxw7dVFxvPq50RF85OTJY6PejgIWmOGHUsT01rxyoUKh8csjrUsSSk+sqGOxgWCk4mK5s925fj9Z3M8dabK+VyIbxyUjCGtQMo45VBxatznW0fL/O5T43zzUIFqOH+ktrY5zgfWpohLCaHhmT6Pk+M+AI1Jh1s7EqQlSAM7z1XY1V+l4F0b3/jqYJX/+4UcB4YDpDZkY4pPbM7wK5uzM8AZy9cO5fmzPUUmiiHSwrrGGL93a/2igbtWmYb65LjPK+er9BcCTo77HB71GS1rEC6rGuLc2Bo5/1xV8/TJElXfoIRkR0eCrR3zMwGTVc1/emmC75zw8IMQJQRZV7BpSYzuxqgdouBrjo1UOTJm8TScHQ/4jzuLlH3LIzdmL9FmKeCBnjTfP1ri9THDeDHk6VMl1rXEURLuWJ7k0aMe53M+h4eq/P6Tw6xvTdDd4LA863BXd5rmVDTR9g1U2TPoI81ccIWI8sYnT5U5OKaRWLIJl1+/Mc0v3VhPwpnRuC8fyPPnewrkPYNEsq7Z4TO313PrstSbh9ICMg3eEyfK/NneKmHoTz0CwjoILKsbFC2Z6NCBQshrgyFoSyaheGhVitQ8DIY28OX9Bb57rEoYhsSUZMfSGO/fWMeW9jit6eh8xljO50NePl/hKwcKnBgz5Mshf7W3SEda8fbezCXnXpp1ub8nxbHxMoG27BkMKfqa+oRiedalMwV9YyCkQ98knJmsgpBkYpI/SbvctSLSiOf7KvznvT6uDS4dGWuRNjKB9QnFp27K8KFN2elykxca/m5/gb/aWyRf1YBgY5vDZ+5oYFvn9dW4KZkGzwsFWHBNSEwpmuviNCQU3VnLO3ojv2GBI8M+JS9KHZanYF3L/OH4ngsVvn2oROBbYo7D21Ym+Oe3N9BxEe0jpaCrwaWrwWV9S4w/fj7PawNVciXDV/YX2dSeYGn2ou8I2NQWp8EpMhZKhvKa0xMBWzoUmbjiAxsypFSZwbJgshIwXvTRxqB1gkDPMsdWIIxE2Pl8tcAKRWtK8qmbUrx/Ux1uDbhyYPi7V/N84dUKhUqIkorNS2L8b3fUsWXpWwMczAJPAcpYLDFuaHP59G1ZVjS6ZOKK+CwzcWI0QAcWRyg2tMSon8fXhcby7Kkyg/nonBuaY3xqe/YS4C6WTe0JPnGz4d89FTBc0Bwdgz0XvEvAA1he79Bd7zBRMRTKIafHArZ0JHAkvKM3w709KSarmoODPp97boLBkkVaO8fJr2uJ8Z7VFrUAEWKF4rblMd61LoNTe8xKYPjS3gJffLVMuRqihGJzm8tn7qxnU8ebm1deSeaMirASCyyvj3HzsktnUKAt/bkArcFxFSsaXFLupbN2IK/Z3z+VyAoe7EnQ03Tl0Bdg27IkOzrL/PBoBa+q2dVX5oFVKVKxuddpTTt01rm8OuBT8SyD+ZmcTgpIxSSpmCQTl2R3OgwWNcIImMXMPrg6xQOrL++bZrvckm/44u48X9lfoVzVCBQ3LY3xO3dl2dD+1gIHs6JNYaMITZjIDxlz6XTUBgqeACNQVixIf42VQvpzGmGhOemwo+vypY3ZknIFt3clSLoONjScHgsoz1OdTsUk9XGJMKC1YLIyf0SpDWAs0oC00XNOP7OIwLnca0pKvuYLr+T5yr4KpXKIRLKt0+Uzd/9sgINZmicQCCuQVizgA8BaizEOkhCFWLBXxAssvnaQ1pJQiub01XGcbRmFi0JgKFXlXD81SxKOQtT8lh8sTAKL2jNd/Fz9kyHnJzWChVMJQUR5PXeyzKMHq3ihxREON3c6/Pa99axpXZxFuR4yA54BZWb+zlv3ASQWVZvJC5HmSoroGBudL7hKlirQAlG7hnuRBswWa2x0r5YF2/4EoGz0TMrM1bzHDpX4wl6DY/15vztbfD9Em1p61OXyz+7JsvpnCBxczLDY6CUQzMdyKSmIoyPUjKDiz49e2pXUu5aSJyhXNGfHAzobFsceGAunRnx0GIHfnJxfw42Fim9r1sLO63shMo0LEXZBCKWKwZ2XPL5IrEBKl9u6HT59T5aVLT9b4GC25lmizmYr0CbyFRe3jigpaElJlI1m/Uheo41FXTTrl9Q7rGpxGShociXNs8cr3NKTXFSNaqykef54lcDTxB2Xje0xMvFL88h81TBRNEgLCQlNqflNc6DBaoE0ovZ8M581pxSrGgwOVzbrRih6WwSfuKuOFU2XZ/vfKrkIPJAm5Oh5yxeeg54Wl/Z6h57WGOm4wFVRThYXHkFoODnkU6wa6i8auKaUZFtXgt19ZYJA8tKJgGe7yty3/vKRXWgsP3itxNFBjTBQHxds705M51ezZTAXcGHURxpBNunQ1TgzoONFzZnRgMHJkCODPuOFEMeAMmqOFr5rc5oH1tXMzRXEIki6UaD0D0WmwTMaMAoZWgYmNH/7koeSPs0pyy/fkebdWzM4EjZ0xEhIRehZTg9bxoqXggdwT2+KF475vHo2ZHRS89fPlQDBnb3zg5GvGL63r8iju6sEnkVYxV3dio2d80dyZ8c0Q5MCaaAp6bKyJXoUL7R8dWeBH+yvUvIl2hgwkStAqTk4JV0xzVH+zyjT4C1rUCyvDyj5Caq+xvNDTAgDvsPeMwEP3WhxpGB5s0NbBkpVyJcF+85U6W51LwkqljY6fOiWNIO5AkN5S99IyOd/PMkrJ6rc0RtnZZtLzJGUPMOh8z7PHa2wpy+gEliEUGzuVHzglgzJ2KWDWw0s+854BKFEmZCeJkFLjQCYLGt2n9ZMlkAJn4SrSKfiuI6gIQUNKUmoLaEBbSzGRJVva2udbMaiTdSVrWTUpiCEmJVWCBwVuRT5M14bMQ3eAzek2LIixnA+5ORQyMsnquzv87HWcn405NxYQE9rjNasw46eOBfGAzxP89PDHvduSNGcuVT7bl+TIF8xfOG5MkMThomC5YevVXjpuE825eAoiR8acsWAfMWAkAihWLtE8Mn7Mqxsmz8oODnk88oJHxtakq7k9lUxEjUNOj7oM1EwOEBcCta3O6xpVzRnFBbYf8bjhcMVciXDZMVQCSyelgQ6IiiMiYqqUgiUBEcYHAVKGmIS0nFBc0bRXKdozCiaM5KGlEMqLkjFBZmEJOa8NaBOgxdd3GV5s8vNPXBzT5zPfjvPyWHD+VHDwbMReHFHcFtviqdfzzNWEpzoD/npwTLvu7XukpNLKXjoxjTNGcXf76yw/2yAFyomCoaJogamcgiBki71Ccuta+J84NYUq5bMHxRUA8tj+6pMFMBB0LtEsX1VxAaNFzVPH6wyWYj6aVxHkC8ZnjvsERgXYwVV3xBqU9Mwi7UWISRzw+upf0fqaGt/BdFhjtIoJXGUREqBEpa0G9DRoOhsculqdljSqFja6LCsySF2nUzzgvF7T6vL2iUupwcr+IHD7uMe925IUpeU3LAsxm0rHX74mqHqWX6wx+OGZXHWLbtUU4SAHasTrGl32XncY3+fz/F+n4miwdeChGtprZdsWBZnS7fLtlVxEpcJCp47VOb51z2EtsRdyZblLgf6fI4OhJwcDHn9rIc00aKUqifpGwZrBaZWOVBSRM2/UiIdEZlEmAYGLJgQhATpYGsdXZZahmQsxlp0YAg8jTGRWZ0UgoFxw97TAVIEJF1NR4Oiuy1OV6tkU5fLmnaXZFzOm4Zdi1y29e+Zg2X+4/fyFKuSdNzymV/Icuf6aJYf7PP43HcKnB/TCAG39bp8+uF6WusvH3ZXPMtIQVPxDIG2xJzI1LRmFe4VzM2hcz6f/36BkwMBUhikhLZ6l4pvmCgBUoExWCLwYo4glVCk4g7JmCET1zRlFM11kqaMoj6tSMUljoqOdZRESZAiOoOxoLXFCyyhtlQDS6FimShqxguasYJmsgyV0KHsGcrVkIpnMEggmhgIgbQBrfUOSxslW1c63NqbZGmzM23qr1UuC16xYvjDb+TYfSLECtjR6/JbP5elqU5hrOWbLxT54pNlAg3Kkbztxhi/+mCGhqukwxYjp4cC/uwHBfaf1ZFm1NTBoLBCgpA4BDTXSdrqFa0NkuUtiu42l85mRTYVTQ5XgaOiv9fakh5qS6gjoj7UUPENQznN2eGAvmHNwERUJB6Z1BQqAqQD1mCtIe5GwdW2NQ73b07Q2+nOG30vRq64SujZgxU+/70KxXJIIib51DtSPLQthRBQ9gz/7bE8j+/TaBPiKMl9m2J85N40S5vfvE7lg30+X3yyxIEzIdgAalohhIPrQGezoLczTk+boLfTZcUSl2RM4FztoFiLsRF7I4gizqu1ccZEoI7lNScHAk4NaU4MhBw755OvKrTWWMBRkoa04e4Ncd6xPUXPAj7+cnL5vk0LozmNCaZ4RkF81jdScckj99dR9Qo8d9BiAsPTr/qMTGg+cHeKLaviVz+As6TsWZ7dX+HRF6ucG9FIG2KRCKloTMHmlQ7b18ZZ2eGyrPnSwMDaaCCD0FKqWnJFzUTRMFEwFKuWimeoeJZqIAh1lIgbE2mTEOA6AiEsjgBHWRIxSCUE6YQkm5I01UkaM5JsWhFzBK5ToxClYGmzw9Jmh7s2Qq6oOTMUcuhswEuHqpwbtVQ8zcSk4Dsv+bzep3nfHUnu2pS4qvG6rOYdPefzx1/LMzBukQIevCnOr70zQ11ybkAxnAv52ydKPH9Q4wfRStWmOsldN7g8cFOSZW3OZYOQi6VQNpy4EPDYKxX2HA+peLrmhyTN9ZHJeWBrgu52l3Ry7sOWqhE4A+Mhp/oDzo1o+sc0FV/hBQY/sHh+5G/D0KBNVHQVQkZR50VibcTAWxvdg+NEGh1zJHFXEo9J4i40pAzdSxxWtDt0tjg01kW+1b1oQg1PaPad9Hhyr8eJfk3Vj8x/Ni14750Jfv7O9KJTjQXBmywa/vy7BZ7b74OITNPvfKie3mULbK1R1Hz7uTKP7fIolKNTKiVoyQq2rXXZvCpOZ4uiKSupS4k5rX1haJksW0ZzmrPDIXuOeBw4o5ksmVq5xoKQ3NDt8L6702xeFSN+0aCcH9YcOuPzel/AsfMBEwWJH2j80GCMqJm/KNkWU/8GqEWbFmpuVIPVUYuEdKa/Ez3R7MjT1Koq0ScCg6MkMVcScwWtWc2mlQk2rnTYsCJGXWruxBjLa57aW+GxnR5D49E6/kxS8rG3p3jH9hRqEWHDguAdPRvwJ18tMjBuEVbT0Sz5xM9l2LZu4cJjEMLLr1f5/osVjp23BGHE1jvKwVEhrQ2WjiaHpjpJIi6QErSOAqPxvKF/1DBRkmgNxoQIEY2U4yju3OTykbdlaG+a+1SlquGJVyo8vdfj3IhFW4nWuoa3wHEkSkocqalLGuprZi6TjMxfPC5IxQQxV0aLPIVFimj1pzYCSzS5PN9S9Q0V31KuWiaLmsmiYbJk8EIXbYg0WZtpP+k4irgTsrHH4W3bE2xbH7+ExH/1uMffPFbi5IXIVrc3Sn77QxnWr7hy1WJB8Cqe5cndFb7xZIVcISpBdy1x+eWHEmzbcPnK+NC4ZufrVX6616N/1FKqGJCKCIvpOcz07K+9IxBYa5DSIGsFUoNk+7oYv/G+OpovSkPKVcOXflTmiV0+nh8dL4Ulk1RkM5auJZLuDoelLS4NdZJMUpCIS5JxSMQiJmQxM3z6Di0EocUPLBUvepU9Q6FsGJkwnB8KOD0QMjQB5SqUa6yRBZqzgvffH+ehW9OXXPPQGZ8//XqBgdHo+Hff4fLIQ3WXWJeL5bI+TxvLU7sqfO2JgLFciMHS2erwsYeT3LpxrgaWq9EOEfFZvm0spzl4ymfvkYDBcclEPqBQDPFDgbEqmqHWIIUmGRdk61yWNEWz9bVjARU/MrG//ZE0W+fR+Kd3l/mLR8t4gSDuGJZ3xFm3QrK112V5u0MqIUjGJfNs0HRdJALVkC9ajpwJeO1EwMnzhpFxn8A4tDVa/sWH6rhh1aVa9Z1nynzlcZ+qF7KyU/B7v9xAW9PlZ9Zlo00lBQ9sTyFEma/+SDORh8ERzRe/W8EauG1zNKAHT/g8s8cnEYe7t8ZZsyLyi80NintuSnLnjQkmCobzgy5DY4ZcMYrytLE4yiGdFDTVSzpaFCs6HM4PaQ6dLFE1hoQr6Gid/yEGRwyVCjjSkooJ3nmby33b37rWu4sl5gpirqI+A8vbHe7bnuD7z5b5xhMB1jNM5BTnhzQ3rLr0u6uXOcQdg181VCrOZds6puSKyZiUcN/N0Xrwr/3IY3TCMDyq+dL3q+TzmlzR8Mxun5EJBcLw2uGAmzc43L41wYqOKHxXStDSoGhpWJyNslYDEonBq1r6Lmja58kbly1RZJOSShVKpZAfPlel74LmhtUuq7tc0qmoBvlm0VGLkTCEimc40x9y8HjAgeNRqyRWkY5DQ2Z+MzAybtCBjtyIvXRhynyyqExaKcG925I4Ar72mM/wqGZ4KOAr3w/xA0sQCmpFM/oHLUNDPrsPWLqXwpb1Lmu6XZrqJenk4ng9a0BpiTKGaknyo+d8ejod2prngn/T+jj3bQt58sUQL3A53Wc50+fxwp6AlkaHlkZL91LFsnbFkmaHdEoSc8GZyslUVDm4GpmizMIw8n9BEJEVY+OGC8Mhp8+HDI1JxnIho7kwcg/WIe4I7t3qsmnNpSZzeMzw1EtV/HLU2KXM7FhgYVk0DSIE3HlzEteRfOV7VQZHBZWyARSugp7lDlIITp8LCELJ0LBhaMhw4Cgk4iFruy0feleKjrZFXNLWOr6MQAjN4ePwN39f4oMPp1jROfP9dFLy4XdmaG+s8sI+zdkLIX4omZw0TE5qTpw27DtoiMcMrhMScwIa6gX1dYL6jCSdEiQTklRCRBaiVlxQNW0NtcWaCLAgtFSq0atcNRSKllzeMJE3VDyXMBR4vqbqa7DRiYRwiStLZ7vDXTcp7r8jSeqivLR/OOTL3y1x9IRGiohEF4vQuqsCD6IHu/XGGErAV77rMTCiaKrX3LUjzr074kgp2L3fY88Bn1NnDYF2qJYDqiXBvqLktq160eDN7rO0WPYe0ORyJd52d4wdWxIkE9EgJBOCd96XZOtGzWuHPI6d1pzsM0xMKqx10aGh6EWUGgiGhi1CWIS0tXxPT1cWooe89F6mtouZiu2stbXX1BdCICqBxaSDEIames3KLpdVKxxuXO+yfOnc5/YDy2uHAn7wdJUjJ3VEZdfOKRe5qOnqCUgh2L45jjVw8Jhm2+YkN/S60+HvO+9LsmNLjLP9msPHQ55/JWRi0mKNw/Do4u7KdUSURNT2blFK4QeWM+fgS39fZc/+kHtujbNulUMmHdm9jlZFxz0p7r7FMjgSMp6zDAxrzveH9A9Z8kWHUCvCUBOGNqrpaTvTYCymC0NRygLM9ExMtdXZWiU92kfGcSSOo3AcSCd82tskHUscli9VtLdGrzzEBDwAABhMSURBVIs1rVKxnD4X8szLHq8dCskXQU516031lS6ureYaN0sVsH1LnC03WGLztCk0NyqaGxUb1rgEvuGp5wJsqDl2zHJ4RUAqKRZ0yELAuQshNtRIo2ios9xxi8PeA4YLg5EP3LMv4MRJy4pO2L41xrrVLs2NkkRCkEoKVna5rOyqDVbN1FWrhnLVkstJJiYNhZKhXIpa/zwP/CBKjYIgCjqsBceN2iCUEriOIB63pJKCVFJSlxbU10sas5K6OkkqGY9yyMSluaPnW3I5w5lzITv3epw4A+O5GpFgJUtaBcs7Ba8fje5TsXC74my5ZupfCOYFbrbEY4L1q1x27hIUix6vH7GcOhNEvR8LzSwBoTYEFR9pFTFX8eA9SbZtsTz+tMeBQ5piyaE4aXl90nLyVEgmU6V3pWJVt0tHh6SjTdHYIFFKkEyImomdG5lEhdXIn02bwFlF19qtgJj5K0XE2kjBFXPHfMEwMGg43x9yui/k+OmQ3KRDuRLRalI4xOOGdWsUD/2TOK6CU6c1XsVDTBmCK8h138R5abtDXIUUjIv2DUU/vKJFENio4ccKRM3Sru5x6GxXHDjks2tvwKGjmnJZ4VU0XkXw0qhl5y6PuoxhabtDS4tDU6OgrQXalyjaWiXJRJSwSxlRc0pR69i8+lzC1Krq1oDvW8YmogBtcFgzPiEYHTNc6PcZn5QYHU0eazWOE1mI3tWw/eYEm29wydZJjp3wQdtZ/aVXvqfrDl59vWRVjyWViC1qNgkBVU8zNlbbh8zOaGkyKbjl5jg3rI9x7nzI/oMBhw5LJnJQKAToUFLIOxzLS44dN1gbkkxY6jKKTEYSj1lSKUtDvaS+PjJ7qaQg5oIbE1E13RU4DmAh1BGvGQRRWSkMI5+VL0BuUjM5aSgULJ6vKJcNhaKmWLRY3BrVF00NJTSZjEt9PaxdI7hxk0v3CkW2bkZ9bW2pgbDz7X0/v1x38DJpwa88ksL3Fhf/CgmnTgu+8DcJSiWNnGcGplOCdb0uq1c6PHifoa9Pc+iw4MIFw8SEYWLCxwsUSjh4ZUu1ZBkZmlpcYZFK14KNqJ9FSsFUD5IU0b+B6TTB1hqVLAKtLTqMSHdd6/wXwkQBlojSJWstjvKpb5Q0Nyk6lsZY26tYvdIhWy/nbUgSRIt8pBXXMdq8ShGCKCK8ik0Z6jLR3mXROgQW9I+OI2hqVDQ1Km7cHMPzLIODmgsXNMMjlvExy9iYZnxMUyxJjHFrgFhMEFUJZrrDpnybuOSCU6WfqH9TIIREClnLByVKBiRTIc3NDi0tksYmQXOTw7Jlis5ORSJxZX51qrokpl6LGKfrDp6x4FUj/yAEJBJi+kF8H4Iah+e6gliNfNAhULP9wtoFVwnNFikjs9rT49DTU+ue9iz5vGFy0lIqWcplQ6kE+bwhP2nJ58GrTkWYljAQhDoyk9ZGk0NKcByLUoJE0pJOQTIJqfSM6U2nE6TTgmxWUN8Q+bSLResoYVyoiiEsNa0TUeqwiLG97uBNjGm+8iVLflLguiEf+LCiuza4Tz4esHePwhrN1ps1D/9cVGoSNrL/EtC+wKsuknK4SOJxQWurorV17vumFmQEAbVcr2Yip7Rypv4bmVIZmVOlwHFAOSKi2BbRdpKbMJw5pTl8OKRzmeTue+evh3pViw1t7dkX97zXHbwwgIFzlrERTSJp8b2ZzyZG4exJjTWG7u65N6ysQFlDOQ+v7tW0L3XeNIJZysgCJBJwLZHmfFIpWyZzlkLe0NwiaWqJzMuunT4//I7B8xzWrg/YelOMuuzca2oNr+/XBNVoWZtc5D1df58nqXGGIY5Sc0ygkkT7MUs7p/FmKucS1hD6gueeDGltFdy8Y3ER6/WSILAMDRjGRw3GWlb0ODQ2ScIAXnzWZ9eLhtxEyD0PurztXQmUgtZWiRIhQgsGzsLZMyE3bJ5RWWth5ws+u18KMUGtK/t6cJvXJNNLxy6Noqbs/NS/p99naj2dBGHIjWq+9WUoTMKOO11S6Z8NgvlJy2OPepw6oXBjAe/9sKCxSSIk5MYN505LrIlx6pjGq1pSaUF3j8Oa3hApQzZscuhcNuP0KmXLS88EPP59n3IepLRYqyJOdxH385b80pKYFUUxB6SZ9+bc7EXHKyGZHLd8/+shJw+H3HF/jJ41ikTyrQVRKcjnLMUJB4RmfEQDEa+7rEvR3GRJJCWZ9NSGDIKGRslHPp7EcSCZiu7X8yynj2uef8rn8KtQ9Wy08NQSVdb+waQKtfxF1TTvYpCkqWnebCdde18YQTwhSNdZJscUQcVy4BU4fcRnwxbJDVsVq9Yp6urfmj6HRFKwvEuh/ZBkGhoaZ67bu94h+VFDc5ugqcWZBgrBtI8rFS0nj4a8vldzcI+mmI/wijuKREpTKUu0WXhDh4vluoMn5cwWIRfPqKnVuFP/npZatClCSWO95OcecTmwy7L/FUOlbCnlYM+zgoO7fLpWSpatFKxap1jWrUjXCdR1WmIVjwseeDiG71tS6dgc893YLGlsnjuJdGipVuBCn+bUEc3ZE4YzJzWVkoM1EgnEk4Ltd0Frp8OPv2Ep+vofhtm0Fk4eCqkWo92HbCiY/XsRUzU7mHuzkS+M/KESlhWrFavXQ+9Gza5nQs6esJSLGi9UHH3VcuxAyJ5nLA3NhvYuS0+vYskySX2jJJGE2DxM/7WIENC8ZH4ttyYK970qFAuGofOG00dC+vskE6OWyZzGBBIhHawxJNPQ2SO49T7Jjbe6nD+tUcLUxsQuKtO7buBZC3ueC/jx1wyVgkFYSUOTJFU3B6aaxtk5RKydqqTbiKANA6irl9x8p2TDFoejBzQHdxounDGMDoENYxTGLPlRy7njhoMvSpyYJZGs0LZM0NYpaF6iSGcgnhIkU4JEUhBPRbmaVLWWCIdaU+7MHRoDRlu0rrXC+1CtWLwyVCqGasVSLcLYkGHwgmGk31ApxvB9qJYtRpuoGxsXRxoaW2Fpj8PmHYK1Nzqka+MR+ET+zgowP0OzaQzseSbg8a9aJkejxYutHfDOD0vaZ0VbihmzKS8ym9OVdDOXqE1mBFtuc9i4HfpPa04dNvQd05w/GVLIKTAOXklTLWqKCMb64YgUyFr13ImFpDKQyQpSdZJYTOC4teTbjQB0p5keS1ir7+kw+ut7lnLBUioYSgUIPYXRslZlEFELRK2yrhwH17Uk60KWrZSs6FX0rJcsX6VwLyqnCaai8kjzFiNvOnhaw56nA37yNciPG5SVtC0TPPSIZMP2mcsVJizjgxZhTdRuftFGO1ERRSAXIDYdB7rWKLrWKMpFh7EBl7Ehy/mThnMnLPkxh6Aq8DxL4JsohxISv+riF2ByUMy0uospMzUzUaJYcaqiLqI1f7b2/xofWvslHaw1CGVJxiSxuMKNW9INIctXW5avUTS3O7S0SzL1l9MoUUvQr7Dx9+wxWORxixJjLHue1DzxVUNhwiCQtC6Dhz8mWXfzbOAMP/67kFMHolZ6JV3SdTMgiVodT+haTe8KmXkqI0itUSxfAxt3QLnoUilZJkcNQ+cso/2C3KilnLdUypbAM4QB6BqnqYOp6oHAmtoy51r3dtTvEgVeyp0xr44LsYQknoRUHdQ3S1qWCtqWCZqWSJJpl1QG3Pgigydja0FdbautRXzlTQNPh7DzxyE//SYUJywCSXu35J2/IlizZeYyk6OWH/9dyIHnBaGviTkum+6EWx6cdSuz87zLbH0V+jAxYkjXC1KZ2voAF7KNgmyjYMkySe+W6N60tpgQykVLccJSLUO5ZKgWo2RZB7Z2HFgdzX0ho2qAEwPlWBIpSTwlSKQi851pEKSzUf1PzvKZ1yLWzJq0byXDEgSWVx4LeeYbUJw0KCTtKwXv+FXB6htnLpEbMfz4f2gOPi8wRhNzHDbdZXjbR12ys8LsqRRCWUE1D2P9hvrmS8PF/lOan3xZE4spejZZbrxXkqnlfLa2f5oQoGpkMnFIpAVNS6bO8Nb8bMxiZPSCjX6/ws6TDy8gbxi8wLO8/APN89+EatHioOhYBQ/9mqR74wwg44OGx7+oOfKyAB0Bt/keePCjMeoa596qhSipx1DJC176rqZ1mbzkuJOvGk7vE0gr8Uohm+6K3i9NWnb/OMRYaF8R3Ueyppl+1WJ0zQQ64i1bx3A5GblgeO0pQ1itpQn2op+zXkDeEHiBb3npOyEvfktSKWisFSzrhbf/mpgD3Fi/4Ym/MRzdKTBa4zqKLffD/b+kyDTOM8fm0GOG469InkgG3P+IS0NbdLzRoH1Jus5SGA9pbLNka4xHftzyyvctlbyivhU+8HuGZCZqId/9o5D+k1G0ue42QffGn632jV7QPP7XIYMniNYiThWgFyHXDJ7vWV76lualRyWVkkah6FwHb/t1Qdf6mQEZPW95/K8Nx1+JorJ4zGHzg5b7HlELRl9TnOdUDmg1HHhakB8O2fFzkjXbFY4Lt71H0bVO03/a0rlaTduaiX6LLiuMJ9F+QCIZPaYO4fRewcndCoQlXW/o3nitI/DGJAzg2K6QFx81nDssQJjaesTa1iKLcJ7XBJ5fhRe+GbLzUYlX0SghWb4B3vZJSWfvjMaNnDM8/t8MJ/cA1hCLSW56u+Xujzikspe5gGW6i0qqqK6sQ0vfq4LRPs3qbYbND0i6Nkh6b1H03jJXe5o7BTt+3jJ8JiTdAPEajeWVovYHR4IRmvhbTGwDBFXL+aOG/U8aju+ylCYkUtZ6YKzAXk9us1q0vPhNzZ7vSvyywRGSFZvhgV+XdKyeAW74jOYnf2k5s1cgMCQSiq3vtNz5IUXy0s2S5sp0gi5obLes3g4nXpHkBqA6ITjwhOXMXkv7moANdymWrpFkWyFWA2NJt6StC6plCQYSNX/nxgXb3iXp3mTwPcHS1W+Nw/MrlvwYDJ4wHHpW039UUhiLUhKJpalD0rhUc+5g1DB1XcymDuCVbxl2f0vgVyPgujZbHvykpH3lLOBOGX7yl3B6X5QrxROSmx623PlhRWIRtThRW2whjCSREtz+fofeHZad3wo5+5okrEqKo5YTo4Jzr1rqWkK6NkPnekXzMmhol2QamQ5SpiSWhPV3KOzttdB8sTH5NUg5bxm/YBk9a7lw2HL+kKEwovDKotZ0q1CuYcWNcMcHJV5FMHwEfGuuT6pQLVvOvAK6HFXBV2yxPPhPJW3dM8ANnjD85M815w9IhLHEk4pt7zHc9kE1bb4WI6KmeTa0SAkrb5IsWelyfKfhyLOWC4cgqEj8omWsJJk8Lzj4uCXVoGnuEjQsgWyboKlT0LhUUL9E4iYiHlMKEAreSAuEtdEEsCYK3AojEVgTFyyTwzA5bBk6ZajkFDaUhDpqplKOxE0Ylm+GtXdKVt0iyTQKTu4xoGs9LIvs3by6VULUzJmOfll54/3MAa7/iOHpv4DzByTWWpIpybb3WnZ8UE2btMWNDEgNSkcpwxTVl24QbHm7YvV2y8Axw8md0LcPyuNQLWnwBcWyQ6E/Gl3hGBJ1lkwDpOstsQzE0pZ0kyXdJEk3RnmfEwMVA9eN/jrxqNE3DCD0IwZG+9H/vRKUJ6JEvzQOXl5QLVsqeUtpAip5MEFEcgmhoq1ApCaVVqSbDSu2wsrtkqXrJOnZkbau5bZaIPXiEvWr9nkz5RrmdE8NHbc89aeW/sPRJuKJtOTmX7Tc8osK92p3rp9OFUQt254rmSbBmlsVPVuhOG4ZOGLo2yfInRPkRwyFMYv2JCJU+BOC8QnLeC1xMjbK75QLTiwqFdV2v4qab6e00k6tZxC1ptuIfzUawlBEoIa1+xRTayEiLlYKi4hpsi2SbKugYblgxRZYusEh3RRNloWfefH24Ko1L9rCP+LhZo9r3x7D8GEJNiSZlWz/INz83msAjmjQ5PRrYZ7PiUNDh6ChQ7HuHqgWLCNnLCOnLLnzlvxwZM4Ko1CdBGGcWhu6xVSjftLpHSqm/s7cBRcPoxRTZLaNfJasHaI08ayhrhmySwR1rYL6DknbKkHbSkE8M9OFvfBDT/GakdlcjFyT5s3MDjH3fUAZSftqy9b3RD7mWkTMmYViUVNRSEjWC7puFHTdGL1XLUJpzFIcg0reEJQs5ZylNGEpT0A5ZwmqNdPoW0JPRItCpuppAhAG6VicWJRyxDKCeBqSdZBuEqSbIVEnSdYL0k2QaWFe325qHK1ciBMQs6za9Wn9i3g3ZaLfKri440vVWPFY3C6eTZ9H3ATT19HlKMq9FklkojSheQXM5jF1QASaF20gaKYab/VM8RUicyikioIcCdKNan6Oa6d945Vy6Woehk9Yzu6yZDtg87vlvJMxKEWxhDIC17VX1lSuQfOi5bfz2ObZlJZZePHkYiTdKIilDX5RUh61nH7JsuUX3ryEWrnRi+l88+JzX+lal37ul6E8bilPWNLNgvqOyGIcf8bw8l9a/JykeaOl+xZLtn3u90PP0veyQVckCkHDEkEsdeXnveosVczqwZzNBESVYDHdo/lGpKFT0H2LRWEJS4J9X7acfvH65WSLFRPA+BnLmZ2WU89bCoO1IEjDsacMT/yB5bH/w7L/O4aw9oMh9UtrXGwoyJ0UDB6a+xzWwKEfWE49IzGhQElL1zZB4tKfDbxErp4em2oYumgsxSwz+kZ1xE3ChncoBvZZcn2CwgXBM//BUhqz9N4viP2Mmm79Muz+W8OFXRIjDbd9SrDhoSgYKY/CyH6BDiQDr2n8chRQta4WdKwXhL5hxQ7JkrUz56vmLa//APZ+CYJiREgv3WrpuVVeP7MpaznJxcGZ0DNtfm9Ulm4WbPuY5cX/YqmMCQrnBS/+Z8vAq5aNPw9t66Jw/60UqSylYaj2C7SQFC9M+UZo7hEkGyzSgXRWYnU0wRJZuPczEuVAsgFAEHow+Lrl4Dct514WVMsRcA09lu0fE2Q7rhO3Obstb84lQogD1kqsbxZVj7r8hWDdOyRSWvZ8AfJnBWEeTvxQ0L/T0n23ZcXtgvZNlsRle0PePHGSgpYeSTBmiaUh0zpz3SUbBHf+FmQ7oL5TEK+vPYaIIlCAyqRl8DU4/byl73mojkdkhgO0rLds/5Rg+fbFP8vVgTfV1WUu3Suk6zZJoi6y4XWdAvkm1OiFhLXvEGSXWg581XD2BUFQgcqQ4NDXLSefMHRsFrTdYOi4SdCyWuAkLxOOv0GRCjb/omDdw5Cog0T9zGeZVljz4NyBNxr8EowetQzut4y8Lhg4YPFyUcYMUVrRfa/lxl8StKy5ukl4DT5P1Da3sXP8Xsva6BXJm6sJHZsFjV1w5jk4+l3LxHGBV4RgQnLuWTj3AmSWQKbd0rwG2jZBwwpBsgHcdORD34zJBFC/bP73jYagHIX8XgFyfZYLey0TxyTFISgORyUua0XUKZ21NK4WbHivpesOQfxKlZZ55Op93kWLQN4qSTQI1r0blt8KZ5+HMz+F0aNQGQGpBcVzUDgLQ/ssJ38ATsISb4RsNzT1QP1yQbIpAtJJgZuCWApkLNIooRbQWMtMDqijiDMoz31VczB53jJ+CvJnwJuI3vdKAhtE+aIiyv1TbZbmddBzP3TdDqnma5/oV0+PzaKuZl92eD8M7orMZnYFdD/IoiKmq5V0K6z/BVj9dsHQARjaaxk9JBg5AnoSjBb4OQiA8gBMHoV+J2pCshKIW+L1kclL1DRTubUEPCZQMaYDodAH40dJvQkigjqogJeLXtVJsNWo40uHAh3WmJQaW+I40XndRkvLemheBx03QdumyLy/Ubk2zavlcrPN5sAr8Nrno5vvuNvSdW80ENdL3BQs2wHLdgjKo5A7DZN9MHrIMnY0As74gtCPQAgqU7+AKQiGoVhbUnUxg2mZad+bs5lOrQH3Ej0REdktnagiEU+BTEBqqaW5F5rXCRq6oaFbkGx+c8fgqsCzFvDADaKUwcymrWx0MsPi+w7fLEm1RK+l2yEoC7xJ8CahcH4KVEtlGGxFEFQiPlNXBUG1Ro8ZMKGFKWIYqHUlALWqQ82sKjcyyU48ij7dOIg0ZDotDT3QsEqQXkLEgWapadj1iYavCjwnBp13Q113ZIayXTOfNfXCindFA9G4fhEs+nUSt+bPMh2RmbIGTCCiUo4X1d+8caiMQWUc/t/2zl0FYBCGoldbxQ4O9v8/tA5iB23tYyh1MnDPEnBSDoZIAqYNSLGmyFhSZIrl9una5zviZAHjgSUouBVwAbC+PMb1rKBN/9BtD58/mjzJl0JFtYr37H+91iWRW7htf9Cz/JZHxmGAeWHSC+UJhvIEQ3mCoTzBUJ5gKE8wlCeYHZZlYgCZQ+0ZAAAAAElFTkSuQmCC;" parent="1" vertex="1">
          <mxGeometry x="290" y="50" width="111" height="106" as="geometry" />
        </mxCell>
        <mxCell id="sv7QqwGItXfnHkpMQwmk-10" value="" style="rounded=0;whiteSpace=wrap;html=1;fillColor=#ffcccc;strokeColor=#36393d;" parent="1" vertex="1">
          <mxGeometry x="401" y="104" width="60" height="26" as="geometry" />
        </mxCell>
        <mxCell id="sv7QqwGItXfnHkpMQwmk-12" value="" style="rounded=1;whiteSpace=wrap;html=1;arcSize=17;strokeWidth=3;fillColor=#FFFFFF;strokeColor=#36393d;gradientColor=#E6E6E6;" parent="1" vertex="1">
          <mxGeometry x="543.36" y="10" width="230" height="240" as="geometry" />
        </mxCell>
        <mxCell id="fuJm7WYey03xl-y6ym7f-3" value="&amp;nbsp;OTSU&lt;br&gt;&amp;nbsp;THRESHOLDING" style="text;html=1;align=center;verticalAlign=middle;resizable=0;points=[];autosize=1;strokeColor=none;fillColor=none;" parent="1" vertex="1">
          <mxGeometry x="544.17" y="95" width="120" height="40" as="geometry" />
        </mxCell>
        <mxCell id="fuJm7WYey03xl-y6ym7f-4" value="&lt;b&gt;PREPROCESSING&lt;/b&gt;" style="rounded=0;whiteSpace=wrap;html=1;strokeWidth=2;" parent="1" vertex="1">
          <mxGeometry x="315" y="170" width="120" height="30" as="geometry" />
        </mxCell>
        <mxCell id="fuJm7WYey03xl-y6ym7f-6" value="NLM&lt;br&gt;FILTER" style="text;html=1;align=center;verticalAlign=middle;resizable=0;points=[];autosize=1;strokeColor=#36393d;fillColor=#ffcc99;gradientColor=#FF6666;gradientDirection=east;" parent="1" vertex="1">
          <mxGeometry x="399" y="96" width="65" height="39" as="geometry" />
        </mxCell>
        <mxCell id="fuJm7WYey03xl-y6ym7f-7" value="" style="shape=image;verticalLabelPosition=bottom;labelBackgroundColor=default;verticalAlign=top;aspect=fixed;imageAspect=0;image=data:image/png,iVBORw0KGgoAAAANSUhEUgAAAHkAAAB7CAYAAABQMi9CAAAJ1ElEQVR4nO2dQWxURRiAv5n33u5ahNqmFagVQoFIUKOFREwMopEECAkJARIuwM1EPcCVkwkXoxe5cvbgoTE1SMNNookaT42kkrQgKYnVLKW0wO6y3X1vxsPbme5CMXLA7duZL9lsG3abffneP/PPP/8sYv369RpPR6K15quvviL8+++/2/1ZPM+QxcVFZLs/hOfZ4yU7gJfsAF6yA3jJDuAlO4CX7ABesgN4yQ7gJTuAl+wAXrIDeMkO4CU7gJfsAF6yA3jJDuAlO4CX7ABesgN4yQ7gJTuAl+wAXrIDeMkO4CU7gJfsAF6yA4Tt/gD/BSEFaNCkBzAFAgRo5Q9k/hcyE8lGsPnZiF724WkhE5GstYZHglahnvDiZ/95skYmJFtxoul3L/M/kw3JAAKklKAbUax58tDsb4AWMiNZCokUMk24Eo0WOv29gRCpca310k3gATKUeEEqUGuNEAKBQAiBlJKuri5effVV+vr6kFIihCAIgjQrNzickGVSMqSRG0URhUKBHTt28PHHH7N27VqiKCKQgX3d0pvb8IFXCJkZrh/FRPHzzz/PSy+9xODgIF1dXdTrdTt0C0RLNCv1hIy8w8msZICenh5OnjzJvn372LhxI0eOHKFYLDIzM4MQgkQldlhX2k3BBp2Fh5Sy5ZHP5/Xhw4f1xMSErlarulQq6QcPHuhz587p1atXayFE+l6BFlJoRPuvoR2PS5cu6UxFshDCzrVdXV289957bN68mTiOyefzAOzYsYNVq1ZRqVTQWqcJmBAkSUKSJO38+G0jM4mXlJIwTO9JIQT9/f1s27YNwApOkoQwDG2GLaUkiiKbsEkpH8+yHci6MyHZJFLm566uLoaHh9m+fbuNVPNvAwMD7Nq1i1wuR19fHzt37qS3t9feIC6SiSs3EqWUJCpBa01/fz+rVq2iVqsRRZGVuHXrVs6ePUt3dzdKKU6dOsVnn33GDz/8kP4dB5dSmZCstELoVHQgA2q1mh1+8/l8S6QHQcDrr7/Op59+SqVSYXx8nL/++oswDKnVau26hLay8odrkYpNVEKtVkNphVLp49HECtKoz+VyrF27lpmZGc6fP8/09DT1ev3xAokjrHzJDS9SSJRSSCEJggApJVpr4ji2pU7zDFCtVhkbG2NqasppwZAFySw1DJgMOwjSIbter7dEsMmqtdYopahUKsRx7Gyly5AJyYBdGimlqC5WGR8f5/r164RhaIdvM2xrrbl79y7FYpE4jgGIoqhl7naJTEjWSlt5SZIghGBmZobp6Wn7uxm+zZD922+/8fvvv6dRLLDJmousfMmNZgEjUwhBPpenXC5z+fJlbt++TRzHCCHSb2lvRHupVKJaraYJmtI+kjOBSJdHWmtqtRoPHz7kxx9/ZHR0lEqlglKKKIqA9KYwyZm5MVxm5UvW6T6yFJJ6vW6XUFpr7ty5w4ULF/juu++o1WrpblMjyTIRbX42w72LrHzJpMUQMx+bJVWSJCwuLnLz5k2+/fZbHjx4kC6xGnPz8PAwBw4coLu7myAIyOVyaXQLme4xO9S+m4mKV3NjPWD3hqVIh+PmCpgQgjiOGRoa4syZM2zYsIGxsTHGx8fTpVXTe7XWLX+3U8lEJLfQFH1m+C0UCnZ9bKpgSim2bNnC6dOn+fDDD+nt7U13pcKo5f2BDP7vK/jfyY7kpuHVdG6aeTcIlkQppajVaoRhiBCCQqHA7t27eeedd+zrmjtFXOgYyYZkYZ6EbcNtjlzAbj6YipiJaCklAwMDHDx4kMHBQepxHcDOzS6cp8qGZMMyQ7Vp5CsUCkvJWePfm6tdhw4d4ujRo+RzeXsDBDK9CTqdbFyhTiPP5Ei2r1oI9uzZw7Fjx1izZk1LBJts2pQ8C4UCO3fupKenh0AGdiRoHuo7lUxIFjLdPszn81ZKohJ6e3vZu3cvb775JkmS2HZcs0FhniGN5q1bt/LGG2/YdbOpe3c6K38J1RiizZyrSTPiXJTjrbfe4oMPPiCXy9nXPLq/bNbNAOvXr2fDhg0tR2pcKJCsfMksrYebNyFWr17N/v37GRwcBNKsOo5jrly5wtzcHLt372ZgYIB6vU4+n7cVLxPtUqYVNBfm5JUvuVHWTFRCoAM7z7744ou89tprRFGEUopyuczY2BhffPEF9+7d4/jx43z00UcMDg4SxzFSypb95iRJnBAMWZmThbCZcBiGhGHItm3bGBoaIkkSlFLcuHGDCxcucP36dYrFIl9//TU//fSTzbAh7RYpl8tAo2+sqY+7k8mEZNMQABDHMUmScPPmTf744w9gqWOkp6fHzskvvPAC3d3dS6cgheDatWuMj4/bv+dC0gVZGK4BROthNSklxWKRe/fuAVCv19myZQuffPIJSimKxSInTpzg7bfftvvItVrNnpMCCIMwHQUcqHhlQ/IyVCoVrl27xrvvvksURUgpef/991m3bh2VSoXNmzfT09NjGwqCILBzc5IkCJmWNqWQHS86E8P1cty/f58rV65w+/ZtnnvuOSDdfnzllVds0aNer9vesHK5zM8//8zDhw/t11K4sDkBGZYspWRxcZFyuWwPpEPaPWIKJqbaBVAqlZicnLTzsz0b5QCZvsqpqSkuX77M/Pz8Y+24ph1ouZ7s5kTOBTIhufkrJJrlzM3N8c0333Djxg277jXlzObCycLCAt9//z23bt0iTmLbKOBKS1AmJBuay5AmYufn55mcnKRUKhHHMWEYEscxc3NzVCoVgiDg6tWrnD9/nj///DN9r1qKdhc6QzKTXTcPtwYpJbOzs4yMjLBr1y42bdrE/Pw8Fy9e5Ndff6Wvr489e/YwNTXF7OysE1G7HNmR3Ig4gbBzahAEVKtVJiYm+OWXXxgaGuLq1at8+eWXTE5OEoYhFy9eRAjB3Nxcm6+gfWRGMrTOzc3Mzs5y69YtSqUSo6OjthKWJAmTk5P2df58ckbQNL4aoimdqFarjIyMsG7dOiYmJh7rwW5OxFxEkPF723zDgJSSl19+mYWFBebn55fabc3RV9mobGX6ap+eS5cuZS+SWxDYM1IA09PTLQ0BzbiyGbEcmVpC/RsmGXN1SP43sh3Jj+BytP4bHRPJBheKG09LR0lWWjnRLP+0ZHu4bhyEs9HbeOr0/eGnJduSDY8Grw/mFjpquPYsj5fsAF6yA3jJDuAlO4CX7ABesgN4yQ7gJTuAl+wAXrIDeMkO4CU7gJfsAF6yA3jJDuAlO4CX7ABesgN4yQ7gJTuAl+wAXrIDeMkO4CU7QLjsf4DlTyB0FKEX2vn44doBvGQH8JIdwEt2AC/ZAbxkB/CSHcBLdoDw888/b/dn8DwjtNZs2rQJsX//fl/z6mC01vwDmI0GJGCL7nMAAAAASUVORK5CYII=;" parent="1" vertex="1">
          <mxGeometry x="670.81" y="20.42" width="73.36" height="74.58" as="geometry" />
        </mxCell>
        <mxCell id="fuJm7WYey03xl-y6ym7f-8" value="" style="shape=image;verticalLabelPosition=bottom;labelBackgroundColor=default;verticalAlign=top;aspect=fixed;imageAspect=0;image=data:image/png,iVBORw0KGgoAAAANSUhEUgAAAHkAAAB4CAYAAADWpl3sAAAMxElEQVR4nO2dz28bRRvHvzOz641NnIq6NFXVOOmPlCB6qJKitkIqEjTQnAI9oCIh1Bsn/odXIDggwQmJIycqLkggVIkKUSF+NFVJaWNVVaWWpFSQJrFxieMktnd35j2sZ7zrOKVITdrZnW+1qmOv1+t89nnmmed5ZkPm5ubE6uoqjDZXnHOcPXsWX331FQghGBgYwGuvvYZnn332oX8Wef3118VPP/300A9s9O8SQqDRaIBzjlQqBcbYhnyOVS6Xcffu3Q05uNHjIfqoT8Bo42UgJ0AGcgJkICdABnICZCAnQAZyAmQgJ0AGcgJkICdABnICZCAnQAZyAmQgJ0AGcgJkICdABnICZCAnQAZyAmQgJ0AGcgJkICdABnInkUd9Ag9XBnJYEq5o+7nTfhpdCAZyU4R0prbmeQJQotevzXrUJ/C4SAgBkChU0fwX3TF4vv3px1l6XZKbIEIIGGMR2O3WLIRGhGEgrxGlNPo/oSCEBD9rNA6Hpb+7bo6RAgJCCDAarAzknK9vcevAUjCbjy0r+PU0Gg1wwaMumkAbl609ZEYZhBCwmAXf9xWoNVD+RQQE2e4sDh06BMdx8Ntvv2FxcRGNRmPjTn6TFAt3TQgBFxyWZYFzHsD+j76VUgrbtjE+Po4PPvgAY2NjsG1bWbbO0v4bKLg+B+dcPa/G0E7bOqrVarh16xaGhoYwMDAA13Ujx9RVernrDoAooRBCYNeuXXjxxRexbds2LC8v4/z587h562ZHi+ZiLTi56v/evXtYXl7GwYMHsW/fPty4cUN/0MePHxcIRq/HfyPRjVAiKKMin8+L9957T8zNzYlqtSqmp6fF+Pi4AIFgjAnGmKCUqq39OHI/SqkYHh4W58+fF6VSSXz66adi69atrfe0n8uj/n084KaPJTcTFYwycM5VgJXOpPH222/j9OnTePLJJ4MgrBkV21ZrTPU8Lxi7OQclawMzzjlAgHv37qFcLsNxHOTzedi2/Si+7UOVPmOyvC4RwBZCgDGGo0eO4pVXXkFvby+EEJHXCCHwPA++7yv49wukUnYKruvCdV1YlgXXdTfsZi2bKW0gU9pKSsgMVD6fx+nTp/HMM8/A8zxYVjCNyuVyGBsbw86dO0EpheM4yrrvJ9/3sbS0hHPnzqFYLCKTycDzvI3+ahsubSDLZAfnHJRSdHV1YXR0FMeOHYPjOMHcmHPYto10Oo1XX30VY2NjyGazeO6553DixAlks9l1LZPSIIDzPA8zMzO4fv06fvzxRzNP3kwRBDllzjlcz0VPTw+Gh4eRy+WUZRNC4Ps+OOdIp9PYsmUL0uk0Tp48iXfffRejo6NIpVL3/RzP85DNZjExMYHPPvsMS0tLm/H1NlTaQAagMllOysHTTz+NAwcOKMuklIIxBsaYepzL5dDf34/t27djaGgI4+PjyGQyHY8tp1VCCFSrVVy/fh2VSkW7YkQnaRNdS3dsMQtccOzZswcDAwORXLMMvOQd7k6dOoXR0VHs2LEDQgj09/ejr68PCwsLgAAIJSAI3ie4gKDBcHDp0iVYloV6va6Oq7O0seRwANS7vRcvvfQSHMcBsLYUKKPqrVu3YmhoCLlcDowxDA0N4fnnn0cqlQrgcaEsWF4cnHO4rotarXb/IodG0gYyAJWX7unpwd69e5HJZEAIiRb6hVAWbdu2gkcIwfLysgrc1HtkEwBaEXz7MXWXNpDD89+5uTmcO3dOQetkbTIIk69dvnwZH374Ib799ttoTjpUMhQisGwZvAnRoTNEQ2kzJsvImnOOarWK27dvKxcehhyOtOW8+s6dO/jkk09w9uxZVKtV+NyP7MMRulAE4BNfTdcIIdo2C0hpY8kSTLhzQ7ploHOLjkyAzM/P48qVK6hUKio1CtKae1NCo1UrKYJYWLI2kAVvNdoJIbCwsIBKpYJGo6Hca7izQ47NANS0SiY7fN9vuejmA9Wc19w452sfR05oU772Q5E2kBljqhXW8zxcvXoVU1NTKkctoUrY0sprtRoKhQJKpVK0Sa/dBWsE7b9KG8jKtdLAtVYqFUxNTaFSqQAILgLfb421MuhaWVlRrTzSfavoWVqqiMdUaT1pE3hxPygFCjew0OWVZUxOTuLu3bvo6uqCbdsKorwYAMCyLDDG1J8BkG47AjW+fAEAbM+ePf+bnp5+1OfxQJLu1rIsVR8+cOAA9u/fD8uylIV6ngdKKXzfh+u6WFxcxFNPPYWdO3eiVCpB/mGVcAQeZ2kFmTEGn/ugJMhNLy4uYn5+Hrt370ZfX59y5Z7nqbE3nU5jcHAQx48fx+HDhzEzM4ObN28quDLPDejXNP+g0gaynOJYzFJZLBllr6ys4NixY+ju7gYQRMMSnMxjd3V1IZvNghCCqakp/P3332ofz/MgINaucdJ8fiyljZ+SUbNsu5XZLyEESqVSACpUb+703lQqhSNHjmDXrl2RsZlS2nlcjolhawOZ0KCg4LpuAAhCRdGO46hsGAAFXwKU+wGA4zh44oknItUl6baB5jhN9c9yhaUN5HB+2feDcbnRaCCbzWJ4eBjpdFoFX7KQAbSKDvIi2L59O9566y2MjIyoahSAWPRyrSdtIKs5MqPwuQ/GGHp6enDq1Cm8+eabyOVyAII+LRlMhatN0j1zzvHyyy/jnXfeQW9vb1Cjbg4BQHM+zpvZr5hYszaQbdsOIPnNxgHOsW/fPrzxxhvI5/MAWgFXuFwoM19yPGeMwbZtvPDCCzh8+DAopWi4jUhnSFhxKDlqA1kuZpNzZcYYstkstmzZEilahAsX4aSH/JlSilQqhR07dig3T0DUasiIRDymVdpABoFyt57nIZPJYGRkBLlcLhI4tdeXw49931cb5xzbtm1TjQdxgLmetIEsgylpxel0GocOHVKrJuQ+0oo9z1PTKqnwHQQopThy5Aj2798fmzaf9aQN5HBLLiEEe/fuxeDgYKuwj5a7dl1XpT3bO0Tk/vV6Hbdu3UK5XI5NB8h60gaytFCfB9Hz4OAg8vm8iqRlrbjRaKBSqeDPP/9EqVRSzQPSJVuWpcbq6elpTE9Pq67NuEobyIQSdUcBzjnm5uZQLpcBAK7rKldu2zYcx0E6nQ6CqqYlS8uWF4vrurh9+zZs24Zt2R2Xs8ZF2kCWcBhj8DwPhUIBly9fVq+HOywzmQx6e3tVrlpWrsJufXZ2FhMTE6jX66pXLK6gtYFsW7ZyyZRS/PPPP7hy5Qqq1WpkeqSWp4YSIlIyeJOrJGq1WrDWKb6eGoBGkD3Pi6z4bzQa+PXXXzE7O6uek3PpcHUpHHHLi+DOnTv48ssvMT8/D0opLGbFphjRSdpAlnfHk1br+z4ajUZk/VOkjRbRpTMyuhZCYGpqCmfOnEGpVGotaY2xNWvT/iN7ssKlRLleST4Xniqp96CVRAGCufLq6qrqDZPjcZwTIvpYMhdqVaME9vvvv2NychK1Wm0NXDl+t9/Uxfd9VKtV5Q0450HBo1NaMybSxpJBoO73AQQgy+Uyrl27htXVVdi2rSpQ4aKEDMSAwGqLxSK+++47LC8vhw4dZMjiOi5rY8ntpT9pqRMTE7hw4QJc14005smUpnTh9XodALC0tISFhYVgukRaJcw4Z7z0seSm2ldIFAoFfPzxxyCE4MSJE+o1zjl+/vlnXLp0CUePHsXIyAgsy4osQmeUtVx6fBlrZMlAZBokIfu+j6tXr6JQKES6PIrFIj7//HN89NFHeP/993Ht2jX1eiqVCha2NbtHZNQeV2llyRKqfCxTlisrKygUCvjjjz/Q19cHz/Nw48YNXLhwAUtLS5icnMSZM2fgOA6KxSKq1SpSqVTLxYMo1x1H6QWZC3DSKgvKNlrXdXHx4kX88ssvGB8fh23bWFlZUXPgWq2Gr7/+GhcvXoQQAjMzM5H7dPm+b8bkx0nty1sEBGzbRqlUwjfffIODBw9i9+7dKBaLKoIWQuCv2b8wOzur7qgruz7a59ZxlHaQO0la5Q8//IDu7m709/fj+++/j6Q8IQDLtuB6bgA11P0Zd8UCcr1eh23bqFar+OKLL8AYU+VHeZe+8KqLpEmr6LqT5Fgqe7/aW4Gk5QohYp/ZWk/aW7Ls6JDZLrmSUeaz5ZTL9VxQ0FhPldaT9pBlxsrnPsCh+rVkS5C0aJkOTaK71h4y0LxpjIh2dsj5tJRuf7DrYUr7MRnAg8FLKGAgLpCN7isDOQEykBMgAzkBMpATIAM5ATKQEyADOQEykBMgAzkBMpATIAM5ATKQEyADOQEykBMgAzkBMpATIAM5ATKQEyADOQEykBMgAzkBMpATIAM5ATKQEyADOQEykBMgAzkBMpATIAM5ATKQEyADOe4i97vTQPJurRFb/R+JRE4dbPb5QAAAAABJRU5ErkJggg==;" parent="1" vertex="1">
          <mxGeometry x="570" y="20.42" width="75.2" height="74.58" as="geometry" />
        </mxCell>
        <mxCell id="fuJm7WYey03xl-y6ym7f-9" value="&amp;nbsp;EROSION" style="text;html=1;align=center;verticalAlign=middle;resizable=0;points=[];autosize=1;strokeColor=none;fillColor=none;" parent="1" vertex="1">
          <mxGeometry x="667.49" y="100" width="80" height="30" as="geometry" />
        </mxCell>
        <mxCell id="fuJm7WYey03xl-y6ym7f-10" value="" style="shape=image;verticalLabelPosition=bottom;labelBackgroundColor=default;verticalAlign=top;aspect=fixed;imageAspect=0;image=data:image/png,iVBORw0KGgoAAAANSUhEUgAAAHkAAAB8CAYAAABNNx/6AAALx0lEQVR4nO2dS28cxRqGn+rLXOwZzAQTYmMrXGQRJEBIRMGgsMkiILIAASvyM9jxM1giECt2bJEsBVB26JBjiBdRQiQUIeQEmzGyiRPb091VZ9Hz1fQMjmMdzkl6uuqVLNvjHs9YT3/X+qqsjDEGr0rqr+07AKgTJ054yBXVvy79GwAFeMgV1dbtbQCCh/w+vB6APGQH5CE7IA/ZAXnIDshDdkAesgPykB2Qh+yAPGQH5CE7IA/ZAXnIDshDdkAesgPykB2Qh+yAPGQH5CE7IA/ZAXnIDshDdkAesgPykB2Qh+yAPGQH5CE7IA/ZAXnIDih62G/gnlL3+7HCGAMKlOp/bfLnKRRBECBbrw0mv578GvnsisbSksMgpFarEYRBDsvkYOXGMBgLOIoiwiBEKWXhB2os/+z/WuW15AMsLdMZJskvCMOQMAwxxqC1JtMZSuW0tdForTHGkOkMTH69ayov5INkQKOJoxhjDEmaWHccBjlEY3IXnekMGLF0x07QGE/I5HFYrNRogwqUBVy0bLlWrs+yzEMujQ5IvBTKxlVtcpDG5HFYmxykUoowDNFao40mUIGF7SGXRAclRwKp0+nQbrcB0FpbsABRHNFsNPnjjz9YW1sjzVJqcS0Hb7RT2XVpIUvZA9hySKxQKcVTTz3Fu+++y+LiIlNTU6RpSpqm1qKNMSRJwrVr11heXubnn3/mt99+Y29vj0AFQxk4UGkLL+3pP2KVxhjq9TppmhJFEVmW0W63+fDDD/noo484duzYwFVrbW8IcdnGGG7fvs3Fixf55JNPuHLlCnt7e4NsvH9dHMdkWWaz8Cqo3Kf/qH59G+b1bZZlpGnKzs4OcRxz8uRJ3nrrLY4ePUoYhnntGwSEYV4/h2FIo9FgYmKCMAzpdDqcPXuW8+fPMzs7ay0esOVWkiRkOrM1dZVUTndtsJkzMMiIFczMzHDu3DlOnTpFFEUYY2wclmw6jmNr3Uop0jSl3W7zxhtvsLKywvr6Opubm0PPFQuukiWLymnJYF1u0Q0HKmB6epoXXniByclJkiQZeo6USUmS0Ov1SNPUWnaWZSwsLPD++++zsLAwlGnLzRCGoc0DqqRyQlZ5siXQtNGDr7Wm0WgMwRd3Drk1F5MwwLrzWq1Gp9OhXq9bqEEQ2DIsiiL7ulVSOSGTW2UQ5G8vUIH92hhDmqYWGmATqOLjtVrN3ghFdz4xMUGn07GJlryO0YO2aNWy7HJCNnkcFrCQWyMK2+AQK5Tr7A1RSMIk0w7DkDiOCcOQ48eP88477/DKK69YjyAuOsuySrrrciZeDLJeASZJlVhnmqY2rgZBYC1T4qtSypZcciMopWg0Grz99tvs7u6ytrbGL7/8kr9WP6MvuvmqqJyW3FeWZba9maapbU3WajUbn8WaRzNxuUkkzgIW/NTUFKdPn+all15icnLS3gBRVNp7/h+ptJCLmXUv6WEwRFFEFEUkSWJrYgGYZRlRFA0tXBTdPQzaoXEcMz8/z+LiItPT00NdsiqqtJBVkGe/YdAva/q189raGlevXqXX69mEyy5ESKnVh1tchSp+zrKMOI558cUXefzxxwEGgwUVy6yhxJCBofiqgrymvXXrFisrK7ZGlhalNEbs9fvUwfI5iiImJiZ47rnnePLJJ21JVcV4DGWG3M+wkzSxFhmGITs7O1y9epWVlRXu3r1r42ixBQoMwZXvi1aqtabZbA79XLxC1ay5nJDVAJoMAhRbnVeuXOGzzz7j0qVLwGBIoAiyCE8Sq9HYK2CTJBl6vGqQy5lOmuEkqZhBK6XY2NhgaWmJdrvN3NwczzzzjAU9mmzBYK25CDoIAqIoIo5j2/2ShkrVXHY5LZm+1RbWfA3GJleQl0btdptGo2F71fslXMXOmTwGeSiQPnfxhqqiyglZDQYFekmPJE3spKV8zM/Pc+bMGebn5+2qk7jeouUW3XcRuniFmZkZms0maZb6mPygJdYoc9VSI0MOrNPpcPToUdv5ku5WsYQ6SGEY0mq1ePPNN3n55ZepxXmDpV6vH+r546Ry/jWFmCyxE/Kul9aa+fl5Tp8+zdzcHHt7e3ZhIgxD2xA58Nf3f3e9XmdxcZFTp04xOTlpR4bsDVYRlRMygyF4AZJm+fLhE088wXvvvccHH3zAkSNH7HqxAC6O4t5LQRDYTP2RRx7hyJEj+Y2kGIrRVVE5Iau/l0AyrTE7O8uZM2d49tln0VpbyxU4Avx+kmxcKUWv1wMgjmKazWbl3HVpSyhpatgY2x85DIKAVqtlHy8OzhfLo4Mk10p2DfnrpVlauaQLymrJfUVhZIcE7Ga1wvCAdLjs6E6/Dr6fu5YWpmTZMzMztFotFMrH5Aep4hx0EORz0jCckElSViyNDrPIIG7dGEOz2eS1115jdnY29wimWoChrO6aYZgSY8Xydnd3AQ4FdD/JzSDLk1NTUzQaDQBqca1yyVdpIRcnNSQxyrKM27dv0+12/7FLLQ4SjDZBqraboryQTV7OoLCLFLLTYXT1aFT3s27piMGg9pZEL0kTjK4OYChrTO6vQhkMgQpsF0opRavV4rHHHhsqgWAA+zBWWHTXkrTt7u5Wdu66lJYcqDwOp1k61JOGwRTnfiM7h10ulLpaYvqdO3dse1QaJVVSKS25WL9CHx7GDvH904G74hac9fV1Ll68yMbGhl2ZqppKacnQL3OC8G/ud2dnh/X1dbsFpjgscNhMW2vN1tYWm5ubXLhwgc8//5zV1dUccPW8dXkhw6Ce1TrfNK4CRbfb5cKFCzz//PMcP3583+z4fi5Xa813333H119/zQ8//MCNGzfsSpYxhsRUqyFSSnddXE+WSY0gzMHdvHmT77//nuXlZba2tgDs7ojiPmX4e1y2pwJpzfT0NDdu3ODXX3+1N8noHqqqqJyWXFhqlElMyEuqXtKj2+3S7XatxQpgGB4OkO9HJevRowlYHMe2pKqSygmZweqTgJSPMAjt3JfEZJn/OszqkWTQvV6POI7tsP7O7g5RWM1tMqWFXNxCWsx65QA2GNTExdWnw+yEGLpp+jE/05l121U7Bqq0MblYH0ttLG67mJAVt6jKx2gNPdowqdVqTExMkCSJXY2Kozyu1+v1/DjHCqmcf43JLVaOkJAhAqXy87u2t7e5du0av//+u328uBEdBkClZVlcQ97c3OTHH3+k2+0OJWpZluXbbzIfkx+MzGARQbaqirobXZaWljh27Bjnzp3j6aefpl6vD4ENgoA0TW1pJY+trq7y7bff8sUXX3Dr1i3r4mUQcPSIiiqotEc8HaQgyPvZjz76KK+//jrnz5/nxIkTNJtNOp0OzWZzyFWLa9/e3ubTTz/lyy+/ZHV1lbt379plRRvPMZWxZDniqbyWfIDEwtfW1vjmm2+4efMmCwsLzMzMcPbsWV599VUbX+WAGKUUly9fZmlpievXr5OmqT3pp7iX2RhDov168kNXmqZ2wb/X67G8vMzly5dptVpsbW3RbDZpt9tDixmbm5t89dVXXL9+3bpukSRpEhLM+Dm3AzW27lpKLIm9MmAwNzfHyZMnqdfrJEmS745IU/78809++ukn20QZ3eEonw2mMuvJ4q7HFrLUs9Jz3rdf3R84yHSeXStUvnypC+d2Fcqr0SMpxl1jHZO10ZjM2AlOgJ3dHWpxbWgSM83yKU/Jruv1OoEOSE2aL13qwU7H4gpUFQAXNZaQFfm+5TRLIWOozi32rsMgtI0TGaI3DP45iUhqcrkhqhaTxxKydMOkaSIWKJABa8Uw+O8xxf8iY7QhU4Vzu4S5OtwI0ThpLCHDiEs1+z9uZ7WzewAzw5m0wdz72jFWOduaXv9TecgOyEN2QB6yA/KQHZCH7IA8ZAfkITsgD9kBecgOyEN2QB6yA/KQHZCH7IA8ZAfkITsgD9kBecgOyEN2QB6yA/KQHZCH7IA8ZAfkITsgD9kBecgOyEN2QB6yA/KQHZCH7IA8ZAfkITsgD9kBecgOKPr4448f9nvw+j9LmSqdgOI1pL+27wDwH79bbOvQ+rvdAAAAAElFTkSuQmCC;" parent="1" vertex="1">
          <mxGeometry x="670.81" y="140" width="74.17" height="76" as="geometry" />
        </mxCell>
        <mxCell id="fuJm7WYey03xl-y6ym7f-11" value="&amp;nbsp;DILATION" style="text;html=1;align=center;verticalAlign=middle;resizable=0;points=[];autosize=1;strokeColor=none;fillColor=none;" parent="1" vertex="1">
          <mxGeometry x="664.98" y="214" width="80" height="30" as="geometry" />
        </mxCell>
        <mxCell id="fuJm7WYey03xl-y6ym7f-12" value="" style="shape=image;verticalLabelPosition=bottom;labelBackgroundColor=default;verticalAlign=top;aspect=fixed;imageAspect=0;image=data:image/png,iVBORw0KGgoAAAANSUhEUgAAADgAAAA4CAYAAACohjseAAAP/ElEQVRoge2aW29dx3XHfzN79uXscz8UbyIpiaLjWLbkRA6oviSI81CjSVG3QIGkL/0Q/Qb9AM2HaOr2IWjjpglaGAFiOajTBCia6BI7sSzqGori7ZzDc9u3menDbNKX2iIZqihqZL2Qh3ufzfnvtea//mutEYDlM2qrq6vI/+tF/G/b7wH+f7fPNEAhxGcboLX2sw3w9x48zAQgy0e43wWivPZJDz64Jj647+PXnqbJk3rQAgZz8LsVIDwJQmAAKQV8CLRTFML9FAIh3BX38+kHk7EW9TQeJIRASgnWYoyDJKQgiiLiOEYIS1EYRqNRCUbQaNbRhWE03ENri/Qk2mh0oZ/Gkty64OkAtBY8T3H27BLz8wsopVBKceXKFS5cuECeZwwGQ9566y12drZZXj7HH77yCqYw3Lh5jR/+8F+5det9sBopBMY+JfVYboVjP00IgSclxmjqjSbPfO4Zzp45y6VLlzhz5gyj0ZCtrW2effZZTk1Ps721iZQeGxsb3L17l9XVVWamZ4irMYPBEOV5/OCHP+C73/0um1tbeEKgjTkxvtXV1eN7UABSenhKcen5F3n1T16l3WkRhhG/+MUvmZ+fp9M5BQiUUiRJwnA4QkpJpzOF7/tMTU2RFzn9vT2KPMePq3zrL77F8vkV/uHvX+PmzV9h8wxzQpBCCDzgr48Dbp8clpaW+OY3v8nSmSWMsQRBgO8r+v0+s7MzxJUKudZMxmNq1ZhOZ4okGbO3N2BmegZPevT7PfIsZzgasjfos7S0xJUrf8DDBw+4f/8+4hPY9jh2+vTp41GXEAKEQCmfV175I5aWzvDo0SOKoqDX69Nut4jjGK01Qgp8FXDq1BR+EPJ4a5ObN3/FeDxmkkxIsoTxJGU4HrE33EMKSb+7i8Dy1a9+mUocIaU8US137DRhLWAN7U6LIPDY2d1mbm6OdrvDcDhAa8PMzAxBEGCMRSmJ1obhcMRkPCbPUqKowmAwIJ0k6KIgNzmBCsiyHIzCEwoVhlSiKkafLETNcRK9EI76lfJ5/sIFZudmqNcaCOmhdc7s7Cx5nmOtPUgbnqcYDAcYY2i1Wpw9d45Go4G1lkIX5HlOIH3iOCAe9Zm5fYPqrV/x4vIKX3zpMtITKOX9zgCPnCbcgt0Xzp9fYXFxiXt3HzA6lXJ6dppas0mjUafRbJFnKf1+nziOybKUR+sbpHmKyQt+8957fOXLX0YpRVEUeFLSaNWZ/eV/8sLPf0ZkNVjDrelZFtKUQHqkWiCERVgDCKywHDWLWI4qHyxYK4kqMSsr54njmOc+/3lOn57DSsFoNMIYixTuZbi8KCmKnEajTrvZRoUBtVoNTyl8P0BrTb3VYOreGhd//h/UjHFKCMGzW4/5myjnby8/x1JFIqUF5RSStSCPwTxHDFGLtYbl5WUajTpJkrC5tUWv1yPN0vIfW9LUUbtSHkJ4aG0oigIweNJjeXm5vC/BVwGz6/d54cdvEJsCIyzSGpAWIaCWW/64VuF7Lz3PhVodaYMDwWrs0RAeq5qIooiZ2VlqtRrPrKwQhiFpmpKlufu/1iKlwPM8KpVK+VJc+tDagrVUwhApJWmWUcsSnn37Kq0kwwqJQLvFWBAWLAZj4bnA49sXn8EzGdbuYzxajB69mhCCKAqxZeINw4gwDKnX67TbbWq1uhPb1uL7fimyQUqJEDCZTDDGEFZitDFIAfO33uFUbxcwQIGlFObCgTAChJBgJF+IfaYjdbAWccQQFUIcTjL7qXZubp5qtcrt22sIIeh0pg6Uymg0otPpuLxl7UE60VqT5zlFkVGtVAFBUeQ0k4yF37zjQFiQVmGEYZ89jHB7x5aVSsVa5ipVHk76R0NW2qEeFICQgjiu0Gq1Ucrj9OnTaG1IUpfHhIDBYEBRFCjl3pfWphTMFq0Nea7xowAhDELA0u336Oz1kHgH+0pYsNKVXAclFWCFwJavWUnHqEeVN0IckiaEkHjK4/LlL/HCCxd4+HCd8ytztBpNlO9TFAVxHBOGIcABSM+TGGPxPIWU0qUE4ZEnCYGvmN7aQFpDVoabIcfDw1rBvnYx7IeqJfE8ekVWelmWVw83aw9hUWMNlShidnYG3w944YXnqYQVBsMhUkparRZYyPMcpTystRjjmNOYwtWI4DhBGAolUTJACIEREiFBGYuy7j0LTMkfH3jJswJlFasvXsaTvqs1j+pBDgEoECAkg+GAVrtFFEWcmp4qw9SxXiWuUKvV8TyFUh6+7yOEIM9zwBGSUh5SKmpRldxTPFg6jxUCX2tcENkSmHS5sGRSI0ALS5xP+HbN8mfPPuPAHVWgiicAdM+xVOOY88vLCCtIs5xer4+1lmazCdJJMilF6T33XSkFReE+RFFIGIVMkhGBCrA649HZFR5NTVMIyLzCMTACaw3CfND+8AwoI9BC0Ew1fzXXpBOGR1cyTwpRpz09wiii19sjiALOL5+j3WqTZTmDwQCjbfkgzT7F77OodMIDrQ21Wo0kyfCkJYhC0qDCg5eukAmPUINAY6WTKFaCFgLhGjcU0kWSEZpOEBCH/gehf4g9MUSdaDZMxhParRaP1tdZW1sjSRNqtSrtdotqrVaSio8x5kBoW+vY0wEVDIcjdKHJtaESxHhKsHX2Gd752tfpRhUK4yGNQVgHTnuOR60wSKsd2RjBnZkFRK159BrxSSHq3OEYa3FpkQsXnkcIyebjx9y+/T6bG4/Z6/XIi6KUZ44x90kmzwvAEVAUhXie514ChkolZjBOeLC4zDt//pesXbxEN65TCOlEtbYUFnIsY6V4XGvws+cu8s7551BxiDnGJvzUNKE8j7woqFZrGGPQRjM/N4tUijRJGez1+fX77/HFF78AgNYFnue50P4QzQ0GAzwpCcMAgDRNUKpKo1ahP9jjvgwZfuWP+O2LW5j791DJBFVq60JFbEUhvSBg4lepd2rU48ZRs4TD8WkXCq3xPI9ms0l3d5eiKCiKgjAImF84TbPZoDCWfq9Pq93C87yDEDXG6VJZioQ0zRju9YnjaqlNC6KoQiWqMRj0eZRMkIGEMytkaUJic4wWCCz5JENJSaMe4ksfqbx9BjwZQLeXXLhNkoTOqWn8wOUhlyIk55fPkSRJqTmd0N63MIwwxiKExGKZjCdMKhOCICBNc3zfR0mo1Sv0+0OSQUaeZxgr8IVHGIQIJRBaU6vXSNMckw2YmmodbAV7CJ3aJzV+XUdLgIV2u00UKIIgZDgaYbRhY2uTxYV5lPIpCk0YeiW56A+xnCOavf4evq8odMF4PCbPi4Pc6KsK9Zoky1OKvHASz7pKpMgy4jgGA2kypto5ReAH5eKfggelhLgaU61WicIKQRRR6AIE5FnK+voGzWaDarWK5zmJtm9ZlmOMYDjcY2pqiiRJ6Pf71OsNsswJ9Fq9jjEQBgFB4FEUGiEkRaFdlzsMKfKc0WhEJQiJgoBkMtpvDp0MoHO/x8bjDarVGt1+jzivopSPrxRLS0sMh0NGoxHD4ZB6vUGzWUdKr8yFlqLI6XSmEEKQZSn1eg2tC6T08X0PU3rbzTdcb0frjMl4gpASKSXdbrdcj0+aZWxsbru97hLJoQCfmDGttfz24W+5cfOGUy5YwtDtock4QSlFs9miUqmglMdwODpg0CDwD8ql9fV1bq+tMRwOAVxFgGPcoiiw1mCMxhjDaDQhzXLyPGc8HqN8RbvTIQhC+ru77Oxsl8rnhB4EsMaireatq1dpNhoopahWq+R5Trfbpd1uYYylElWY6nTo9vpkWUYYhljjXoYQkla7TZam6MIghGA0GmMttFrNkn05AOlypiQMw1K0W5LJhF6/x521u/S6PaQUaA2HhemhBa/FIpA8frxBVAmp15oURcZoPGZ6aorp2Tk8TzIYDNDWElfjg1SR65xur0eRu+7ZaDxCKZ+8yInjmH6/RxC4RlQY+OwNhhSFS01aa9I0ZXNzkzCK0EXOeDTm+vVrZFnmRMgRk+GTRV2ZryeThNu31piZPsXi4iLL55ZZOrvM7s42vu8zPz9P4CuiMCxbFm7/+L6iXm/QaLXw/YBms0mtWqdWq1Gr1RmN3MwiL5wSCoKAnZ2dMmxtOeQRzM8vsLKywsbGBkIIdHH0TH+E2YQTz4+3NllYWGB2do5qNUZ5kjTPmYzHjMdjksTtyTAM0MYtLooqaF2wvbnJ9WvXEFKiPEkYRQdFcqPRKIlHorUu93UTKSVJknDt2jUuXbrI669/nxvXr5W59WgEs7CwcISeTEkaO1vbvP7Pr9NoNGi1Wuzt7bGy8jkmkzFgyfOCfr9HHC/goTFl+QNuRtBstZnqtLHAeDRiqtOhWo0PvGWMYTQcYrEMh4Y0Tdnb22NxcZE7d+7y5ps/xliLseZYA5lD6w5Hya78ubt2l7/7znfwfZ/TiwsMh33SNMFay3A4wAkDgzZgjKYoDL6vmJmbZ3HxNO2pU4RhhBBOChaFxlrLu+++y/37DxkOh+zudsnSFCEkaTqh0+lw9epVxpPxB2t6mgDBtS4KYzHWsnbnDt/7p38kCkLu3bvP5uYm9+/fB6DVbnHr/ffRVhOGIUEU0O32yLIErQ2+UrRaTdrtDr4f0Gg02N7eJgwDlPLY6XYZDAbcuXePVqvJ5ctf4tZ7v+bNN9/Ekx72mLOYJ0q1j5vTtwZrBVff+gk73S5/+uqrhGHE22//O5cuvcjdu3dpdzrEUUyaTghDNwIbDIYkSeKaWJ6kKAyVSoWiKBzx1Bp0uztEYcj8/Dx5UbC5ucn6+jr/9saPMEZjxe92LPLIA1DXBpcIKRBCsvHoMTdvXmcwGLr+o5S89NJLzM/NMZmM+a9f/JJ2u00YBmxsbOB5HvPzc/R6PaZOdRDCCeYsy7DWMD09zdrabfKs4OLFi1y/fo3XXnuN3Z1dp8yMRZbC/ah2JJLZN2ute7jGteKFZWtrl5/85C1arRaTyYTV1VWiKCLLcnZ3XOhVKjGtVpdbt26xtbXtOgBSsb29zb17d2k2m0RBwOONDXa7Xd5440f8yw++z+3ba+WpDNjXLYdVD5/oGE5wIFYK8JSPsRopJPPzC3ztay8TVypcv3HDteujkFq1ztrt9/n6N77Byy+/TL/f56c/fZvBYESSTFjfeER3t8vjjQ329vbQ2iCkU1InmdOvrq7+7gD3ey/7c3trBUIYPE8hpMRojdZlM6pcbLVa5dy5s2Rphh8EzM/P8+6777K9tUWW5wfdAIstO78CYc1xCviP2JUrV07mwQ+DhTKEhMt7xnzwWCEF1tiyzwNCgnDDQKRwo+b9+11n7qQrcnblypWTn5/a9+SH/oL92Pxun97LsYP7TsmK1vWzP/J9nvj5eHbik0774A5A7pPRR+/6yD37/VSAjx/c+p9EcjJ3fqaPUwKohw8ecvCWPmWqsa/sP2KCcrOIJ977iZu8PEjw0WM+n3Tnx/4m7P587VPuKmccwtX7fhDy38g18oM7zJaeAAAAAElFTkSuQmCC;" parent="1" vertex="1">
          <mxGeometry x="566.57" y="140" width="75.2" height="75.2" as="geometry" />
        </mxCell>
        <mxCell id="fuJm7WYey03xl-y6ym7f-13" value="&amp;nbsp;ANNOTATION" style="text;html=1;align=center;verticalAlign=middle;resizable=0;points=[];autosize=1;strokeColor=none;fillColor=none;" parent="1" vertex="1">
          <mxGeometry x="554.1700000000001" y="214" width="100" height="30" as="geometry" />
        </mxCell>
        <mxCell id="fuJm7WYey03xl-y6ym7f-14" value="" style="rounded=1;whiteSpace=wrap;html=1;strokeWidth=3;fillColor=#ffe5e5;strokeColor=#666666;fontColor=#333333;gradientColor=#d2d0d0;gradientDirection=east;" parent="1" vertex="1">
          <mxGeometry x="115.86" y="286" width="505" height="143" as="geometry" />
        </mxCell>
        <mxCell id="fuJm7WYey03xl-y6ym7f-24" value="" style="rounded=1;whiteSpace=wrap;html=1;strokeWidth=3;fillColor=#f5f5f5;strokeColor=#666666;fontColor=#333333;gradientColor=#CCCCCC;gradientDirection=south;" parent="1" vertex="1">
          <mxGeometry x="120" y="500" width="450" height="160" as="geometry" />
        </mxCell>
        <mxCell id="fuJm7WYey03xl-y6ym7f-26" value="" style="rounded=0;whiteSpace=wrap;html=1;strokeWidth=2;" parent="1" vertex="1">
          <mxGeometry x="262.09" y="640" width="140" height="30" as="geometry" />
        </mxCell>
        <mxCell id="fuJm7WYey03xl-y6ym7f-27" value="&lt;b&gt;&amp;nbsp;CLASSIFICATION&lt;/b&gt;" style="text;html=1;align=center;verticalAlign=middle;resizable=0;points=[];autosize=1;strokeColor=none;fillColor=none;" parent="1" vertex="1">
          <mxGeometry x="265" y="642" width="130" height="26" as="geometry" />
        </mxCell>
        <mxCell id="fuJm7WYey03xl-y6ym7f-28" value="&lt;b&gt;SEGMENTATION&lt;/b&gt;" style="rounded=0;whiteSpace=wrap;html=1;strokeWidth=2;" parent="1" vertex="1">
          <mxGeometry x="593.36" y="244" width="130" height="26" as="geometry" />
        </mxCell>
        <mxCell id="fuJm7WYey03xl-y6ym7f-35" value="&lt;b&gt;&amp;nbsp;MULTIPLE CLASSIFIERS&lt;/b&gt;" style="text;html=1;align=center;verticalAlign=middle;resizable=0;points=[];autosize=1;strokeColor=none;fillColor=none;" parent="1" vertex="1">
          <mxGeometry x="271" y="512" width="169" height="26" as="geometry" />
        </mxCell>
        <mxCell id="fuJm7WYey03xl-y6ym7f-45" value="" style="shape=image;verticalLabelPosition=bottom;labelBackgroundColor=default;verticalAlign=top;aspect=fixed;imageAspect=0;image=data:image/png,iVBORw0KGgoAAAANSUhEUgAAAGkAAABrCAYAAAB0SqwxAAAgAElEQVR4nO2daXBk13Xff2/pfQXQABo7QAADzAaMSIJDUqTERRySkilHLktVKVZsOXHFUVR2xbEqdlVsJZYrrnIq5bKTyockzvLFKZmmFNuUZFIuUqTIkUXOjpkhOJwFA2CwNoDel/f6LfnQuJcNcBYABGY4Mk8VagaN1+/ed889557zP/97n5JeWXavvPU3qLYBKPxMiAK4d6Zp0exOjKRlVUnufxA9u7xI9uU/4b5GC4+mbenZ3G0PxAdfVBRQUHZ0fmz1Vi631qu45pb32qHJoSiwks5h+7+BrqoKmarGcsWmMaTjbKIRRfT2Fr3eVIfdDf/erN1N3O5Gt9/MVbe69ubtKzf57UYtbriDUjdmrouhePCqGrq4YcV2KFedTT3UZgdrpz3OnWp3O61uS0kbPnfXzFevv0DZYV9+p1a4u2FlvVEfr/e5uu63O7TYfiI3F/XWl3wid1o+UdJdIOuU9Im3+3jKJ5Z0F4h+60vWy45EgB+X8OtO5QhsLendtJIUoGK5VCznxg2zuX4qW1SSQu2hrvdcLh88sCI/u/4IbGxX2eHZsqnncmsXhrwq2iab35IlaRpcXjJI5coofDBqLjeflPV9udF1mnKDh3TX/XNd2YiXKTdqUPlwf+QlGxqo3UPZcN311a8A9o3n7roLdd1DX2OAkNe7iS/UZNNKcgGvqpAIahS6niDc3o8qOn2DWb6pmwKKyg1n1QfWef0LNpvZf1gx7qZdTh1Sc1O54Uqw1rhhGFjnfohHKWyu4bWvbsmSXNdF83i578tfp3VwlGwmjUfXQfnojuNuiCy3+4yO4+LzeQnHorzxzQu4i2e29P0tBw6goDgOb/zoNc6Nn6G1tRWPx4Oy1YUG5HfcW0xRRVFuec317vtxEdM08fv9PP35n0PZIkzusi0lubiuSyKRYP/+/XR0dOD3+z/SwGxGSXezmKaJZVlo6vYynm0oqTaooVAIva2Nzs5OAoHAlgfSdd0P/YjPxb0URZE/6jYf8E6L67oYhkGpVEJV1S15BCFbVpK7Fil4dB01ECCw9rNVJTmOg+04OLaNbdu1321bKklVVVRVQVU1dF1H07S70qJc10XTNBzHERXOLcv2LAnqBlLd8gC6rovjOFQrReauzbKazVG13VrRy7awLBuvL0BjooXmRJyg37+tdj4OIpT0Ufq9LSV9VHFdF9tVyE39hH/+y/+Wtgc+jTNzlr/90XG0SDdPPXsYY+48lfbP85+/9WsoriOTH+H+rnfPm0m9y9zoYuvvWf95/ffu5OTQb3fjYhBsq4rpaeBXfvsP2be3k/Hv/3de+tu3oKGJJz7/c/RoTzGdNikWikQ00HQd27LQvT40VUFVwLYdFE1HUcC2LKqmCYqGpro1F4qCR/egqbXoUF2b0Y7roigquDaObeNSU5Kme8B1sKomVcvB6/Wg4KJqOrqu33CC7Lbopmne9oYVRUHBJdi0h8+MZUmtrFIoGwC4dpmVpSU6urv51MEEyxdPM541CAQi7BnuJ3vtKqsVC184wejIHopzk7x7dQHbVunu76Gcusx8zsPw/iEiqsmF9yYwtQijhw4S9ftQdA9uJcupUydJZR369h7gnmQMFIepiXGupctogUb2dIWYvrpE18ABOpJR/P7AtlONjyr66dOn8em3z+uJh9R1Hb/Pi1UNEAwF0XWtdoHrgOugaSqKplNeucgf/cbvcaGU4A/+7L/iO/Ntfvu//D/0vif43l/+Cd5rp/i93/gN3p318/mvPMfMOy9z9mqZL/yzrzHmWeR//uVfMrOq8ZV//Yd889eew1tO8We//9v8cDbEQwea+Hf/4U/5p7/5O3zx4S5Ov/4C/+r3/ze+fZ/jlx/28T/+19/y5d/9P/zHXz+CtmZNd0LUsbExqtXqbW9Y0zR8Pt9adBjE4/lgABRFW5u1Gq3DY+y5pwEUWFpYpqFvkKQOGlVS83Po8SFG7kkAVdJGjF/8xX9Ch9/g+//3BaaCg/yLr/4iAdfgzVde5/LcIq9/97/xx999i74HnuCZZ58kkX2LP/pPf8zJ9xeIdwzSHIbM3AR2YoTPHuxG0yyqRhXHcbYVPu+ErJsa6yhFuyhiMfZ4PPh8PrxeD5qmrvu7rmtomkbJMDBsF7DJpVOkynnQwLVM8rkc6apCqWIDOm3JKIqnjOYDzQwSjQeoLCooKlhGlsW5SV7/4ZtY+PEoFZYW0niCXrKX3+X0xEV6nWUMGwLBZtraOnjsd/6Q9r4BgDsaWd4Z+2V9orp+QV7/meO6OACug1EuU3YrtYnk2BiVCqauYTs1HL5qmlSr1TXuoINZqWBWTQBc2yafy5DNVQCoGhUqFR3LUcAyyOYylNTavfVQgIBXJ97cQnNjnGAwdMfWI4WPQWW2ZlUaHl2TKLKme2o5mKKgaTqq4iCg9lIhiynywrVygrr2r8fjxefzrSHqKrruQdc8a+2A6wboHe4GTKqWDWqVcq6KEmsgEQ6iKmot13RVguEw0UiEcCRCIBBA1/U7hnqodzo1VBQwC2nevXiJMlDKTTM7nwbVg67rBIONDAwPADle/95f8zcv/4S0BZXlNNm8jVtdYWUlB5TIFw3KuVVW82CXs5RNF6OcouRAPr1Aoewy9sRz3N8RY+r9i0y/f5GpTJjPPftF9nQ2Uq4sk6lAfm6O1YJKOBzC7/ejadodhaUkg/VOiaapLE+eZbnazJe+9CUsyyIzO4eh+QkGfLjEeOb536Siv8i1gpf9+7tYuDhByfVjWxaVQpGesX9E84hJNGBTrvp4/AvP4QI+q4obbOWLzz2HputUbZf2wQf4rX//B7z82k+4umzwK7/1bzh83z7CfoUlvYEv/MIvAApGqYQ3EN55BW1xzZco+FZcrcLObVqolSAUBg9/nt/dc5ilpSUMwyAcChKLxQgEQ+geL90Do3z113sxyiUMs4rnqWcJh4IEA35Uzcu+B45QKZexbQtQ11ybWwvn1SMouHi9Xvw+Ly4KjU0J+kcfwLIsFIWau/V46fjH/5LPVQ1wXSLhEOGg/46tRfVyxwIHqClJ0zS8Ho1QKERzczO2bePz+QgGg/h8PhzHwev1EgmHME0Tx3FQVRWv14vX60VVVSzLwrIsCc46Tq2WXQ8DiZBfVVVs26ZarWLbtowydV2v4YnVKq7r4vf7CQaDEmm4k3JHlQS1gRSD5/f75YAK5BvA6/USDAZlriKUW68EoRjxO6yvQ4nviAKi4zjyO+Je9fep78M/eCWJnMnr9cqMfmNYLmb79b4LHwZFb9RO/WDXf6d+zdkIuu6GgmoJw2a5VR8DJcEHA3KjBfpOz+Q7LVsOW/6hD9idkHX7k3ZKNpbDf9ZlW65x895uZ92dUI7jOFiWJcviP4sKq+dhiABjt2pOO74mWZZFpVIhn89TLpelonZC6pW8HYVvjPZ2QnRdx+fzEQqFZNqwU/cWz7ijSrJtm0qlQjqdxufzkcvlOHPmDKZZAzk3uoXrDXr9DJVV3DVFi1mr6zoej+dDaIAIz13XXfe5sOxqtSot3LbtD4XyQm42yPX9DAaDqKpKV1cXPT09Mn24WQJcz13frGxbSes34NZ+cxyHUqnEysoKe/bs4f333+db3/oWmUxmHcHxZoMg/ibYQ5qmkUgkaG5uprOzk66uLjweD16vF03TcF2XarVKpVLBNE1KpRK2bRONRvH5fBIYFYmrpmksLCxw5coVlpeXWVxcpFwuA2wJ/vH5fPzqr/4qPT09HDt2jFAoVENJ1sDYnXR5+k5GDI7jSEsyTRPbtimVSkSjUfbt20c2m6VarXLixAk564S1iGRSKFLTNHp6enjggQfYv3+/fPBcLkehUJBKchyHcrlMoVAgmUwyNDREpVIrRxSLRaampigUCjQ3N0vF7dmzh6GhITweD3Nzc5w6dYrjx4+TTqc39ZyKouD3+9mzZw/33nsvb775Jvl8HlVVSSQSO7727qi7E7CKWIvEwIdCIZ544gnS6TR///d/v26xFeuVsByfz0dvby+PPPIIIyMjlMtl5ubmKBQKqKrK0tISqVRKTohisShhoa6uLh566CH6+vrIZrOcPHmSs2fPUi6XCQQCtLa20tDQQEtLC6FQCE3TiEajPPXUUxw4cIDTp09z4sQJcrkcsN7iN3oBYZ01/E+hWq1iGMauVHB3PLqrx7+gtrDOzMzwF3/xF1SrVS5duoSqqhKDc10Xy7LQdZ3BwUEeeughBgcHSaVSvPzyy2SzWfx+P6ZpSrepqiq5XA6/34/f7wdqg5fP53nxxRelm9M0jcHBQfx+PysrKziOQyaTYWpqCp/PR3NzM7FYDL/fTyQS4bOf/SyHDx/mzTff5O2335YK2Djo13PbYpLtVJBULzteqhCKqndjpmly7tw5DMPA5/Ph8XgwTVP+PRAIMDY2xjPPPINt25w4cYJTp06xsrKCx+OhpaVFztqRkRH6+vooFApUq1VM0ySdTuP3+4lGo6TTaWzbJh6PEwgEiEajRKNRub5lMhnOnTvH1NSUXL88Hg+dnZ1MT0/T2trKU089RUNDA6+//jqFwo23qdQrr96CPvYh+EaxLAvTNPF4PBKxFsxX4QofffRRBgcHGR8fZ2Zmhrm5OWzbZs+ePXR1ddHQ0ECpVKJQKBAMBrFtm56eHqLRKK7rUi6XZejv8XgwDIPGxkaCwSBer5doNIrX60VRFAqFAq2trfT29uLxeCgUCkxOTjI3N0csFqsR6zWNxx9/nHvuuYe/+qu/Ynp6el1katv2tsdjO45wV5WkKIosA7iuK3MIYRWqqjI6Okpvby/nz5/HcRx5TX9/P0NDQ8TjcQBKpRItLS2yfGFZFn6/H5/PRzgcJp1Os7i4yMzMDI7j1Chjfj+BQI0v5/f7ZXkiGo3S1NSEruuEw2F8Ph8LCwusrKwAkM/nOX78OAcOHOCLX/wif/7nf046nf4Qs/V2kSWlknYDC6iH/gVVV9d1ORO7u7vp6+vj0qVLUgmXL19G13UaGxtrfAVNk25LDL5wkZqmUa1WSafTpFIpUqkUxWKRaDRKuVxmdnYW0zRpbm6WlpxIJDBNUypPMJYaGxtJp9NMTk5SLBZRVZWXXnqJvXv38ulPf5pXX31VhupCbpeidt2ShKK8Xi/mGpsHIBwOs2/fPjKZDLZtEwgEuHjx4rpim8fjIRQKEY1GZYIoAgWR01QqFXw+H4lEAo/HQzKZlAmvZVlAbRukaZpSGSKqFH+vVCpUq1WZk2UyGXp7e4lEIpw9e5YHH3yQhx56iNdee203h+v64u6ykupzHlFkE5FdX18fw8PDvPfee9i2TTqdJplM0tnZKWesYRgUCgUURZGuTmyPEZXYdDpNLpejUqlg27aM6oLBIOFwGGCN0BKUYbNhGDJKFOG7CMc9Hg+pVIqzZ89y+PBhkskkV65cYWRkhPPnz7O4uCifbSPxfyuyFeurw1S23M6mRAyGcFUAzc3NHDlyBMuyZCAQjUbp7OykpaWF/v5+2tvb0XWdSqVCqVSiUqnINU4gB4ZhkMlkWFhYYHl5Wbq+hYUFstmszKcikYgMHITLFZYpAgufz4dlWTiOQ0tLC47jMD4+Tnd3N9euXaNUKjEyMnLDwuFuiNjVv8WNzVtrRLg70zTxer3SpRw5coR77rmH999/f+2+Lg0NDYTDYQKBAPF4XOYc9eV127bxr+1VEolvIpGQUd7q6irpdHrdprZqtSojSWFBQiGWZWEYBtVqVbphv99PR0cH0WiUCxcukEql6OjoYG5ujvvuu4/z588zNzd3W3dY3JbKrHBPAGNjY+zfv5/33ntPRn6FQkFahlCs4DuoqkowGATA4/FIEokgljQ2NmIYBvl8nmKxCNQCkmg0iqZphMNhmZdpWo26LNIC13Vl5BcIBKQlGYYh71MoFDh8+DCnT5+mqamJzs5O5ubmbsewSdnV6K5ehBs5cuQIPp+PcrnMhQsXKJfLeDweXNelVCqRyWRkkqmqKvF4XCpNhPIC9xNINtTIKnv27MFxHILBIJFIpPZcawCs+I6qqpTLZYnvBQIBqtWqjPIqlYpUUmNjI16vl4GBAVZXV5mcnOSxxx7j7NmzMmrdbWtSlNtgScJn+3w+vvCFLzAwMMDMzAzLy8tMTEwQDocZGBigra0Nj8cjoy7DMKSF5HI5mpqaiEaj+P1+LMtidnaWUChEIpGQLlFYmsDSdF2nXC7LHE0oDJBWJdZKYUXCyhRFoVQqMT8/z1tvvYVpmmSzWR555BHuvfdezpw5sy2cbjtL2K4rSaALhw4d4vHHH5cwzvj4OKZpEgwG5cyNRCJEo1G5hlSrVZaXl8lmszJCsyyLYrHIsWPHcByHRx55hHg8LgcdPqgfCdfo8XhqRP61mpTIj+opYlCrh3m9NT65YRgyuDh+/DhQW99mZmZ49tlnuXz58m2rNO96CK4oCu3t7fz8z/88oVCIU6dOsbCwQFNTE5qm0dnZSU9PD5qmUSwWURRFogCaphGJRCiVSni9XgKBgEyEw+EwJ0+exLIsPvWpT9He3g58YCEC1RCVU1HoE+URUfsql8sSiXBdd111VVhnqVTi+PHjWJbF+++/z9NPP80DDzyw7S3/WxVdbDXZDXEcB4/Hw9jYGCMjI8zMzMg6U0dHB21tbTLSUhSFhoYGaUnVapVCoUC5XMbr9dLY2Chnv8/no7+/n6tXrzIxMQHUJkRzczOqqspcSQQe1WpVDrpQcj6fZ2ZmhtXVVYrFoqwAh0IhmpqaJA/QNE1isRjJZJJSqQRAoVDgiSeeoL29fVdQ742y65bk9XoZGxsjGo2yurrK8vIyra2tjI+P09HRQSQSkWFwLBaTs1igC67rEggECIfD644kiMfjtLW1MTExweXLlwmFQjLBDYfDNDQ0yEBD0zRM05TJq7AyTdPwer3kcjlyuRzlclkqUkSFlmXR1NREV1cXnZ2dNDc3Mz8/z+joKMPDwywvL2/ZmrZkEruNOKiqSn9/P52dneTzeXw+H62treTzearVKj6fj+7ubgD5u1j0C4UChmHIMFrXdclRELPX5/NhmiZzc3ProKO2tjYZgtcnsMKK/H6/LIFUq1UWFxe5du2aRC8ymYys/sZiMcLhMJFIBE3TmJ6epqurC8uyaG5uZmVlZddd3q4pSbi6Q4cO0dzczMWLF5mcnERRFCYmJmTZu1gskkgkZKVUoNyCvBKNRolEIjKMri8VCPxOkEyuXr1a25WxBgcJF1YqlSRxxe/3E4/HcRyH5eVlwuEwyWSSxsZGrl69SiqVYmlpiWq1KkN5v99PY2Mjp06dIhaL0dLSQj6fl+vYbsuuWpKmabS2tsoBWVxc5Pz58yQSCfbu3YuqqrLkLEJkwTOIRCLSdYlIT6w1guMmCn9NTU309PQwOzsrB0+QVUTAEIvFaGpq4vLly6ysrOD1elldXSUSiRAOh+nr65MIRjAYZHZ2FsdxyOfzOI5DsVjEMAySyaRE28UatduibzeL3cweJTGYs7OznD9/nnPnzhEKhRgcHJSsn0AgIBdpUbhzHGddWC0CBnHalcfjIZfLsbS0JEsXIjAIhUIS3xM/oVCI7u5u2traMAyDV199lXQ6LZXg8Xhob2+nu7ub3t5eEokEALOzs6yurkr8b//+/WSzWVZXVxkdHZXg75YDry0SXXeFZixEhKiCLDI9Pc2hQ4dobW0lHA5L91aPIjQ2Nq6rGwkun7A2r9crXdro6KhEJ5qbm+nu7mZ8fJxcLifhJa/XSyQSYWZmRkaRc3Nzstoq3OqFCxeIRqM89thjDA8P09TUxNLSkkQnNE0jFovxzjvv0NDQwMrKCsVi8bYcHaDv5u1FaVvw4gTvQDxYPSJQKBRkEirQabFfVYTS9bsvDMOQ0I7Ihbq6uqQyRXAhiDBHjx5ldHSUAwcOyGhPrGUiwS2Xyxw7doxIJMLAwACO4zA9Pc3MzIwMSETdanp6WkaMW5GtGoOibHFXxVatWgxupVLhypUrJBIJaUHlclmCnl6vV7qoSqUiC4ECaxNMHDGwlUpFri3ZbFaua47j0NXVRVtbm1SScKe9vb0MDw/T39/Pk08+STKZlBNAUNA0TSOdTnPt2jWSySSPPvoo+/fvJxQKoSgKlUqFjo4OAoEAV65coVwuS5e6m7LrlVmRmwSDQUZGRkilUly4cIFEIkFTU5Ms5tVTc+vpv/WMVoF+C+tUVZVSqURvby9tbW14vV5CoZAceEFYjMfj9Pb2srq6KokoYiunWDdFJFitVnn77bdRVZXDhw/T3t7O8PCwdG2O4+D3+5mfn5cb2+7aEBw+KFEUCgXJbyuXy8RiMeLxuFx/CoWCHKhwOIxpmrJsEQgEpEXqus7S0hLj4+OkUimuXbsmmaSiLC4SYMuyyGazsmJ77do1CQcNDAwwNjaGrus0NzdTLpd577335PpWLBZlKSOVSknXbJqmxBAFRLWdwt9mL3fXqn4fBA67hLgLXCwWi0kKV0NDw7q6jXB7YtulyJmEq6t1uBaAvP322/z0pz9FVVUaGxt5/PHHGR4eloGGsAjXdYlEIpimyfz8PIZhUCwWOXr0KKVSifvvv5/R0VEikQiXL1+mVCqRSqUkWeXgwYOkUikuXryIaZqEQiEJvOZyOVnMDAaDdz8RRZQdRM1IBA2Li4uk02laW1tlLuPxeAgGg3KdEhGaGPQLFy5w9uxZCoUC8Xichx9+mNHRUVnIEwGAqOgGAgE5iGLdsW2byclJkskk99xzD+l0mitXrmCaJpFIhN7eXu69915aWlqYnp6Wu0NE1VgQMgUEteUxYevBw20hR4oISpBBwuEwXq+XlZUV5ufnZcRnGAZer5eWlha5VgCSVnz+/HlmZ2cJh8OSjiwQBVVViUajQG39ErUiRVFIJpM4jsP8/DymaVKpVHj77bcJh8Nks1kuXrzI8vIylmXR0NAgEfhwOCw3CTiOI2llnZ2dTE5OEolE7n5Kl8h9gsEgq6urqKpKKpWiqalJouCCJClIJ4LeJdydCB7EDI7FYhw4cICxsTEaGxspl8uUSiW5J6qpqUlWWYWLDAaDNDY24rouU1NT8jyId999l4aGBnp6emhpaSGRSMjTmefn57lw4QKTk5MSVlpdXSUcDtPT00MulyMajVIqlW5H4LB7jBdBFhG8AOHHBcAq3Fq1WpVgZv2hGfVMI6/Xy759+xgYGKCvr494PL4OaQgEAqTTaYla67qO1+uVdSNVVWloaMAwDFzXpampSVru2NgYgJxEx48fZ35+noWFBSzLIplM0tDQIBGGxcVFmpqaCIfDklexadnuacZbUdGN3qhy3WvXorKOjg7eeOMNbNumv79fWoXIh7LZrDyFvqGhgXg8Lg+EFxMoEokwOjoq6VgibxKHdNi2LTnhwsWKQESUwxVFobGxkWq1SiQSkbmSYRhcuXJFAqxiq0x9eiCQC8uy+Lu/+zu+8pWvEIvFWFhY2NKAb0d2zd0piiJncTweJxgMkslkaG1t5dy5c9K1ZTIZuR5EIhG5uCcSCQmyCpcokGzBYyiXy6yurkoSZalUWndyirBWwVQS9xJkTIHrFQoF5ubmmJ2dpVQqkUgkSCaTsr1QKEQ2myWbzRKNRonFYhw8ePC622J2Q3Z1TbIsi/HxcQ4cOMBnPvMZXnrpJQYGBtB1nXQ6TUNDgySJCGqViAgFF04kmMJ1GYaxTkmCuyA2cbmuSz6fl1w/Ed35fD4ASePK5/Nks1kJsmYyGZk3tbS0EA6HZTFSIBuxWIxjx45x//3309raKpm2W1HUzd5gcyPZVUuybZuJiQkmJyc5dOgQ3/ve9yTf+uTJkySTSfx+vxwMy7LkvlNN0yRHW5QcRJQoDmsShUAREpdKJRkwCGxPEC/rNw+Iaq+w5lAoJHE5ASOJPbiCIdvT00NzczOBQIAnn3xSElE+6ns6NiO7ftKeYRiSiH/fffcxNTVFf38/ra2tQK262tHRwcjICKOjo3R3dxMOhyX6LaAboRQBhNYjEsC6PMnn88nNY4J/JxQpFCUCFfEjKGPlcllWZsX/Afr6+jh27BhDQ0MEAgFeeeUVLl26JIObTcs2FLqrShKA6dGjR5mYmODQoUPkcjkMw+Cpp56ip6eHjo4OOjo6aG9vJxaLSfhFoBH11gI1CzUMg1QqhWVZNDY2SgxQRHxi0ESZfONxAAJtr99CKf4uMEQR9ofDYR588EGuXLnC5cuXGRsb4/jx4/z4xz+WHL7dXpdUYO1g2Z03WVEPunz5Mq+++irxeJyDBw/y2muvYRgGgUCAVCold5SLfUarq6uS82DbtuQ7LC8vSyUvLCwwMzNDJpOReVb9jnShiFwuJ3G4UqlEqVSSm6IFticsU5Q5xPoVDAYlP+Po0aN87nOfw7ZtvvOd77C8vHzbzgm/LeRIwzB46623GBwc5Omnn2Z6eppvf/vbPProowQCAbkmCfRaoAJik9jq6qrcSikOL9Q0jdnZWSqVCslkUpIaBQwVCAQol8usrKzQ1NREJBJhZWVFlhtUVV1HaRawlMD7TNOktbWVQqHASy+9xNjYGA8//DAvvPACJ06ckPz07e2s2Nz16hqGtKvuTiAOuq6zsrLC0aNH8fl8/NIv/RKxWIwzZ84QiURwHEdWOguFAouLi2QyGYrFIplMhrm5OWZmZkin05Ik0tDQQCAQIJ/PMzs7K8+IEJGhWE+ElYgKaz6flyiBoHaJomR92/F4nHK5zDvvvMPQ0BDPPvss8/Pzkjlbf1TAXR84CDFNk3fffZef/OQntLe3841vfIP29nZOnDgh+Q1zc3OkUinS6bQsuQtLnJubkyQVwTloa2sjGAxy9epVjh8/vq4cMT8/Tz6fl4GDsEzXdcnlcti2LUsOYu3K5/Osrq7i9/uZnZ3lRz/6Ed3d3Xz1q1/FMAy++93vMj8/v24b5m5ZUb3sqpLqt2Oqqsry8jLnz59ndRSqMqwAAAYASURBVHWVvr4+vvzlL2PbNm+88QaGYchQ2bv2ek9BLxZ88fq9S/VuJplM0tLSInMtgSIA6zjfgvAv9jGJgELs4BAkyIWFBU6dOsX999/P888/j+u6fOc73+GnP/3purMdfiYoXYCMngQd6/Tp0wwNDTE2NkZPTw9f+9rX+MEPfsD8/DzJZJK+vj4ZWQkaFSCTXr/fL09CURSFSCRCPB6XAYHIk5qbm2uvDF1jqlqWJXl+mqZRKBRkhCeOEJienubKlSuoqspzzz3Hww8/TC6X48UXX+THP/6xJGvWb8O8rbvPayNx84tv9dLfeqkvhdej2VNTU7zwwguoqsr999/P3r17GR4e5ty5c3z/+9/n5MmTdHV1MTg4KKuyi4uLLCwsoCgKy8vLpFIpAHp7e/H5fDJEb29vJxQKYRgG8XicVCpFNpulXC5L8kk8Hpe1oWAwSLVaJZPJcOLECaampti7dy9f+tKXSCaTzM/P88orr/Dyyy9LkLb+IJHtylYVu+uWtHFLiqZpzMzM8OKLLzI3NyffsNnf38/Xv/51Wdg7e/YsXq9X8sUfeughuRWzpaWFXC4n3Z84ojocDq/jySUSCWmRYr+RmP3z8/O8++678rCqAwcO8Pzzz9Pa2oplWUxMTPDDH/6QN954Q5b36wOG2ym3ZRNZ/WFQojxx9epVpqenicVidHR00N3dzd69exkYGOCZZ57BMAyuXbvG5OQk7733nlSK4EqIvMnv97O4uIiqqpJsMjs7S2NjoyScCPeYyWRIpVK0t7fT09PD0NCQPNBDlEyuXr3KiRMneOutt7h06ZJENgS1+XaBqqIt2CUl1c82kcnXfy7cj6AVr6yscObMGV5//XV6e3sZGRnh4MGDdHR0MDw8LEHO1dVVzp8/Lyus2WwWqG1jqVQqLC0tyckgkuRwOEwsFmNoaIjBwUHJ5wuHw5IeNj8/z/T0NFNTU0xMTHDx4kXZx/r9TBuf8XbQuWCHlbSx42Kxvt5LtMSD18/MbDbLmTNnGB8fp6WlhebmZtra2ujr65M04SNHjsjiYbFYlDBSLpeTjFhxepfoh0AhKpUKc3NzLC0tScWUSiVM02R5eVnyvoWIEsfGfgMy4RV5lmjnVpa2HWdZp6SdMWHhzsQuvZGREQzDWJf0iRyjfuedeDBRhxLupVwuc+nSJVZWVlhcXJTurv5YTrE7UJQ5CoWCHHCR4AqWz/z8vMyTRB9VVaW5uflDYKno78ZBF+WOhYUFjh49KoHezZwY6bpbK5zCti1JwXFcCaeIfKOe05DJZBgcHOSb3/zm9ppYk3oF1g/WjQbwhj1e69/GifJR+wbQ1NQkt34KDyEmmSg01ix0e4awPSUpYJoGpWJB8hXELBYY2LFjx1hcXJQFuI8atm6pe7chAhN1rWAwSCKRoL29nfb2dsrl8oeiQFHbCkZi22qrpqQtJECO42DZDn1Dg1jVKn6/D1UVb7Z0CUXjJFrbGNq3n2rVqtt14G6auXk3iMTuFAV9bTe7x+NBU1WUDcGEP+QQdV10rxd3GxOo7pWU3HLTkYKC5lpcfvOvSc9OgmuvvcXNXXeNfAjlg99vl2w8uN7ZMDOUWqfqfl//3Y1yq7+L19i5bt0obJyNa661WCxSTM0SFZN6k7K1s4WA/sYA/SuvYC394IYPsKPHhW7nwlt04EaXXldJdR+615nEH/roOm3Xf6Q1e1gq+XBcF22TViUpXZsZDFVde+GhpuPVbq5f6ZM33vg6/drttUo0eauu7Egvrjfu7vo/J4IqFWvzRwtsyZIcB8o3Obdgt6zpo4ro162Ucjv6LNyxtoXGdjaZ3cmb7aDcqF93or/bafOOv2f2E7m1qLB7e5M+kZ2RTyzpLpBPlHQXyCdKugtkXXT3D35t2k6idBvGTL5W23EgX3E21c+b9WuzinbcG9+r/m1dGxPRXTwhZluyW2m4pig1ciSg47oUSxVOL2dwlFt7v61gcdcbUDH4Aum6/v1cqagbJaIfXHk9xGL91Rv7sRXF3QrPs0UdbCt3v05/1A2fuUBcNThk2/x/Hm5E+waE0zkAAAAASUVORK5CYII=;strokeWidth=6;" parent="1" vertex="1">
          <mxGeometry x="690" y="463.42" width="92.2" height="93.96" as="geometry" />
        </mxCell>
        <mxCell id="fuJm7WYey03xl-y6ym7f-46" value="" style="shape=image;verticalLabelPosition=bottom;labelBackgroundColor=default;verticalAlign=top;aspect=fixed;imageAspect=0;image=data:image/png,iVBORw0KGgoAAAANSUhEUgAAAHQAAABnCAYAAADR2GYSAAAgAElEQVR4nO2deXRc133fP2+bfQazYbAQAEUSIkVQFEmZNqWaFilH8XFiR07sKJLbNE2TOsmxW6e10vY0yUlOUstJT0/TLE1PTtskpzmJsziRmzaObbaOHMW0JYoiJVJcQYAAF6yzALO/eW/e6x+De/kGBEkMRIAOrd85IDiDt9y5v/fbvr/vvaO8+fJX3Mn//ime2BzCb2h0LC64nZ914+QVRFGUOxyxdNya77t0bReUO1zEdV15jLv2Dwq0f667LY7jMLnooquqQsNVma+5RJru21DO3ZRvj1HcfVm/z+UCTUVFBQWFpSd1/R6gd2SdRahPhaXn5n41iu8wUdtevaPUv9+iLFfoO/L3Xt5R6H0mKryTC91PondysCL/eUc2VDqo9VetUMeFquUAN+t0eb3sLh3jHYRCe2Huel4vP/ZWslJd3tHzdaeD3RX/+7ZkpVt2em0FCBnqHUEQAN291V2XiaqAabuM5+s0rcZNw1p+iabrVeAKH+F2o1uqo1zxZKxwfWX54cve6xSVkddYyhRdWg/xSvfuRFYehrKK67q4KCiaQX+Xj6Dhu+M4FDp0uYmgiu4PoGx5D5FwGHeVWFjTddusU7npP+2y0mVvmpg73Pp2+ryTstfL6jsSRaFerZIdPcGgsvox6asb1ZI0bXyZrTz0qd9CcR0cx1m1JXgPu53hLj9WHrr82PWayG8DcV0X3TBoNh1e+vf/CJxxwHeHc1q/Wwpd5Yd3XRe/z4dGky/9n79EVVVisRiatgZQ/x1ZUVzXpV6vEwqHOXjwffgMHczVn9+Ry23dEVzHIRqLkYjHSaVSGIbR8WXekZXFdV0qlQquDFOduRq9c0zeRVVVutNp+vr6SKfTGIaxKtfbGqSLoijtLTKPP70bLSZxn5VEXH89W1lvRxzHoVqtUq1Wl0JPhwpt/eo8kQ4EAoTDYcLhMD6f75YTJCa32WziOI5UqKqqKIrSNvGqqqKqLfBqLRPuOM5NP+L64p6qqqJpmrz/t5s4joOqqq1xKwrq0hg9Cf9tpXOXS+vKimdyNE275eQ4joNt2ziugt10cJo2rmOjqDq6bqAZBrqq4DpNXMeBpWvCzUq9lSWLh8Z1wUXFcSzqZgPXcXGcJrguqq7j0zWaioKi+KVS73Sfmz56Bw+BeHg7EUVRWvO5NLaVSrKVz2v97liha0kem40KX/hvn+VL3zhPqaby5DOf4Iee2otulfjC7/0a3zxfZPOBD/D8P/s46YiCq64MMd9uol3XRaHJS5//z/zukXN0BRTm5mYxbUimuzGaNaLbDvEzn/ohUqFWdn6r2L/acuxOsvw6HSt3DffUxZnrleU3HYe6rfCep36Qbxz5Yb7w1XFePn6V4G9/lid3DnHw4GHeuvYSH3j/+9DtKnUzgGY3ZZxVZOfdlW4UaHOfiqK0XHqjxtRsgQff+zSHunN8+lM/xWguwE9/7jd4TzTL316YYW6hiN8J4Ljg8/naXK/47XXXLbhTAUUQARRp2aDguq3jvO+JsbZmVUVVFekR1Fs8rHdL1uZyOxHXxWk6KGqIB/Y8wfYzVS5ee5MXfuU3SP3CZ3ggGmHHIzvo8utUa1UcQHFtGrZLMBhEcR2ajkvTcXCaTZrNJooCum7g8xn4/QF8vlaNZtoKh37wE+wt15i98Co+nwGGD7teI/zQQzw3EkOtLLKo2Fh2E01TUTUDQ1eXHh6VpuOC62BZNq7bxHXFw6PguqBrGigKmq6jaSpmrYaj6gQNnabj4LoOdhNYOlfXVQzDwGf48Pn9NyWEd1vWXaGKoqBqKqri4gbSfM8zH6f5h/+FsTf+H//1D7bzmY+/i3KpQqVSoWb4ufT6l/nN3/tz1GaI2LZ38clPPEekPs5/+IUX+Nb4PB/82LNcf/VFLvt287nP/jv2D/WgRFu1sKbrRCIxGpaDrouP5mI1TJpOE18gyJXX/5pf/a0/wko9yL/68Y/wZ7/5G4zbvfzir/9HDnSX+fVf+mW++uYM3/PRjzD20heZj4/wyU98jOP/63f48ukK//Sf/xwfOrAFn+Lw1Rd/h7/+1gwKGk/+wMf5ge/ax/yFo/zqC/+JiwtRfuQTz/HaV36fQvoD/MGv/Rt6NVVa6aqqAvnP6pKilj/oQFYboL2iKAqaqhEIBPD7dFJb9vJDz3yEpKFw9C//iD8+8jrVepViscT85RP84mf+LWP2Lv7xM0/xjT/8Zf71r/0Bc1Uf6ajLpUujfOXIN2k0dd448qf84V+8zEKphGnWATAMg2AwQCQSIRAItCbNdVGX4qWi6Axsfwg1O8mp02+xaAcINXNcOPUWk1eukKuoDPaFuDj6Fl89eho1GuPVI3/OZ1/4XXK1EFdOHef3f/8LXLxyjZf+7Df52Rc+z+4nn+EDW5v8/M98ks//35O4oQEGkxaj577FV/7qbwkacax6hXq9ht1sdjLdcs6dDmK66i6B4Ktpjd2IZp2Jpqn4/T6CoRDxeJxd/+BDfOS7D4C7yIt//HneGMtTLhU4/vW/5pXJEunuILWmQzwV4eiXj/Dm+CTFmgXA5pFHGNnWD0AhN8/CYhHTbOC6Lpqm4ff7Ww+P34cqgH1PNm7bTdB0NBzm52YouypoCou5ObK5HOWl+2zdPsK+XZsxgGCqh717d5AyoJS7xtil8/zvv/grakYQjSpqV4JmOcuXv/J1rsxMU7V1QCWzfSf/5FPP89s/96NENBdFWUP8XGWmLHSoihfrKwq6puHz+YgnEnSnenni+3+Y9+/dhFNdYOzKDNXKAtlsoRVDbZNisYTVBLdUYq5QoG62Jppmg3K1hYXZjTq1WhXbtmViIhSnCm2itNW9juviALgOlXKFhu0ATWrVCrVqDdOyAbAaVSrVluU37QalcgUHaNoW+fws+UIDVYV6tUypXEUBKrkc+WIRs94AAiS6gmiaRiAQJBAIoOt6xzF0tfWnkA2hoLiAphsthcYTZLpT9G1+iGd/7CcZSQdpWk0sC9K9/QSAUtUEXMxKmejmPpKGIQstTdPR9Rt1quvJfG98KrWVwS7NhOHzo2sqqqKghUJENA3HcahXyywWq6CoS57HRdVUeR/D0FDEPTUdBQVFAdfxkxmM4dRNLLuJZdZwgZ6hXnwuqFrLVoLhCLFolEgkQjAYlApdrcgMuwODW3eFuq6L4jqMvnaEP/2ff8KX//Z1CETp600zvPsJfuqTP8rW7iihUISh3Yd4+rv2M3PuJK9+8zgltY/nPvwUqRAU8gsALC5kyc/MA3Dt6jwNV0fzlgKKgtIo88brX2cm2wC7xOunT1OyNHw+nUCwl137h3FL07z4hT/h0lwR7Aoz81U0pcn8xNXWfQp5CjPzNIDsfIH87BwVy6VcXMRSArz70EcYzgQ5dew4x05cYsvug3zv4yOoVoVr16aBEuPXr+AYEYLBAIZhbAg6JevQ1dp1595ZQcGh2ND47o8+i+u3QA+QjkcwfH7CH/yHbNozQ1eyG11N82PP/zx7X/8Ws7kG//KXvp+Hh/qwqnn2f/czDB800X0+dKePn959mHAsgy8QwPAZsr5TFRXFaWAZ/fz48z9PpVJG1X2ovhDhUBDTMPiBn/pFYsNfp+kLE8Iku1ihdzBOMBjiwUMf42ce/V4UzY9f7eFffHofiuqjK+LjRz/9adwm9HWnGMoM87MPbuXM+Umage08t2cvfbEgpSwcfPonOYBLOJ5G9wfx+/0bBjXqCkrHZtpZlgtoBvvf//3sOWiiLEUFVdNaCg2FyfRuatWYjoNpJvhg/xacpg2uA4qKpg2w+cHd1Gs1bLsV43RdJxgMEI1G8fn8noLdxYhmePqZHyE7P0epVMLnM4hGIgRDYQKuizK0nY8920+5XKLpuPgMg4Dfh+EP8L2bt2PW6zRMUz68jtPERUFT1RaQ4DgoqoambWH3o4dQlZYnUjWNvk2DbN/zGE6zSTgUIhaLoGm6xK03xkLXUVpli0pTEUiMIhMXXdcxDEMmNQC2bWNZFs1msw0Jsm0bKxymuZT6q6q6VKa0Eg+B7LTQHRdVgUgkgmEY6Lq+lPn65bl+v49IJCKTKcMwMAwD13WxAoE2YN8L8IvzBd7sbTaI90Qjwufz4Q8EN7RfrMP6N/cF4KyqaguoXwLswQust0ahqiq6rktFikkUMcg7uYqitJKbep1GoyHvJ7o72lJmLc5rNBryPMMw0DRNKtQLy4njV8J02yHJGwr1vifOV1VV3tN13ZugxvWQdbdQ13WxLIupqSlyuRy1JbfpzUyXT5y3b7r8/eV/F4oRyljeOvO2y8S5XkzY+1ooZTXgvFeh3tfesQaDQVKplGwzxmKxjuKpHEUH+tdbg1n9CZ2K4zgUi0Wef/55Tp48Ka0KVt+mEseJ83w+H+l0mqGhIYaGhkgkEti2Tb1ep1qtsrCwwMLCApFIhG3btpFKpWg0GiwuLlKv16nX60v1YYB6vU6hUCCXy5HNZllcXKTRaEgFe8d4u/bdSp/76aef5nOf+xyu6zIzMyPDTKcAfScedF0tVLjWUqnElStXuHbtGnDz072SeF0qgKZpxONxBgcH2b59O5s2bSIcDlOr1RgbG2N2dpZGo0EoFJIxze/3c/36dSYnJymXy5RKJYkmhUIhwuEwwWCQdDpNIpGgp6eHqakppqammJ2dZXFx8eYatwOpVquEQiGKxSLXr1+XlrqelB2p0PUy0mazSbVabd1jKZYul5XcloiDwWCQ/v5+hoeH2bJlC7FYDNM05cQLReVyOWKxGPv27SMSiWBZFgMDA3R3d3PhwgVGR0eZm5uTlmcYBsPDw3R3d2OaJpqmEY1G2bt3L7t37yaXy3H27FnGxsaoVCo3MRy9LTev0oVVe4+v1+tks1kGBgZoNpsdZbud6qUjC+00eRIfzLKsWz7pXksUsVHQMNLpNHv27GHXrl2oqsr09DQnTpygUChQrVYpl8sEAi0wPhQKEQi0WmkzMzPkcjkymQzvete7sCyLS5cuMTU1JZWTTqcZGRnhwIEDFAoFJicnuXr1KrOzs8RiMXp7e+nv72dkZISTJ09y9epVKpVK25iFLHehyz2PbdtUKhWZvXfSQO80HK57UrSc27OSeGOk67oMDg5y8OBBBgcHmZ+fJ5/Pk0gkqFQqXL16lYWFBWnBYpIcx6FWq/Hyyy+3eYSxsTGuX79OLpejUqlgmiaO45DL5fjSl77EN7/5TaLRKIlEgmQySX9/P7quU6vVmJubI5VK8dGPfpTJyUmOHj3KlStX2kqn1chyTlWn0gmRb0Pq0OWliRDve81mE5/Px2OPPcaHPvQhLMtidHQU27YZHByUZYzIEL2uzTRN/H4/fr8f0zTlcRcvXmR6epparUalUiEWixGLxbAsi1qtxpUrV7h06ZIcQzAYZHh4mD179tDf3080GmViYgJFURgaGuKDH/wgr732GufPn5fWutx9ijEtT6bWqsxOZf0ZC7cRL+UjGo3y1FNPceDAAU6dOsXly5fZsWMH6XSal156iQsXLlCr1WSN6rquVKJQRCaToVarUSqVsCyLmZkZLl++TCAQYPv27WQyGcLhsAQqcrkc4+PjLCwsoOs6juNw5swZLl68SCgUYufOnezbt49Go8GJEyeIxWI89thj9Pf3841vfIN8Pi/Hsm7S4aU7J4ndxbELS4tEIhw6dIjBwUFefPFFfD4fw8PDVKtV/u7v/o6xsTEMwyAajeI4DpVKBcMw2LZtGw888AD1eh2fz4fjOGiaJpWWzWZJpVIMDw8TiUSkdauqSigUolKpoKoq4XCYVCpFV1cXtm0zPz9PpVLhtddeY2JiggMHDjAyMsL58+c5ceIEIyMjvPe97+Xo0aMUCoVvKzrohluot2RpNptEo1EOHjxIMpnkyJEjpNNp9u3bx8zMjJywTCbDpk2bSCQSOI7DwsIC5XIZgEajgd/vx3VdGR+9YEF3dzfJZBJN02g2m9i2jWma1Ot1isUioVCIZDIplerz+ejt7aXRaDA6OsrU1BRHjhzh0KFD7N+/n9OnT3Py5Em2b99OT08PuVzuJqKZqqpvq9x5O3JPXK7IahVFYdu2bfT09PDWW2/R29vLAw88wMWLFzl9+jSFQoFIJCKtJ7yE5YZCIZrNpgQJxLX8SyQsYamBQIBGo4FlWSiKgmVZ2LaNqqpYlkU8HieRSMjrlMtlQqGQxIi3bt2KoijMzs5y8uRJuru72b17N8eOHWNqaoqRkRHq9ToTExMAHS3eWg9x3Xuwx4K3NBkcHOThhx/m7NmzNJtNhoeHuXLlCsePH6dUKjEwMMDg4CCGYVAoFCiVSvJcTdPo6urCMAwajYYE2L0lhagthQULURQFXdcJhULEYjFCoZDEmZvNpkyiuru72bt3L/F4nJmZGV577TWZXAnP8cQTT7Bp0yZ5XfEZ75W007PvIO6y36uV5eC1ZVkkEgkOHjzIpk2baDabpNNpFhYWeOuttzBNk5GRER555BG2bNnCwMAAvb29Mk4KBEqUD8IqFxYWyOVymKYpcVyRRInjxP8F9bPRaKDrOl1dXcRiMXlMi3/U3kjIZrNMTk4SCoWo1WocO3aMrVu38txzz9Hf3982nrslnc51i1OkrC7ZaRGN1zAoT9li2zaRSITDhw/z6KOPMjo6Kid1dHQUx3F4+OGH2bRpk+xaCIsS1MyVrE10UwCJmbquy+LiogQTvMoF2q4vFCweBLEKLJfL0dXVRTKZxLIsFhYW8Pl8hMNhZmdnmZiYYHBwkJGREYLB4C27NGuVTq+04TFUVVV27drF448/zvT0NOPj44RCIfL5PJOTk6RSKbq7uxHrJIVYltVW83mtXkyiwHH9fj+Li4tks1nS6TShUEg+TKLA94IC3jpUxFpoWXEoFCKTyWBZFpOTk5RKJRqNBps3b8Y0TY4ePUokEuGRRx5hfHyc0dHRVXds1kOky92o22cyGfbv38/i4iIvvfSSLDnm5+dZWFhgfn6esbExpqenyefzLCwsSBe6Ui8UaGudiezZNE2ZOFWrVZkcCQv0TroXqRKdFkBa5OLiogQsRGdGsPgE5qtpGg899BDxePyeKFNR1rDHwtsRAQTs37+fgYEBiY8KV1oqldi2bRs+n49AIEAgEGhb2eZ1oyIxEtmo6OgIC65WqzLpUhRFtssAGeei0ajs1ohyp16vywelteSi5Q1EkzocDlOv15mamgKQHZ3x8fEW33jXLkqlEq+88gq1Wm2jprZNNkyhiqLQ19fHo48+Sjab5c0335STPDs7SzAYZOfOnYiFR8LSxNMuyhARK0U7DWBycpKpqSmCwSDRaFTSTQQLQSg8n89LFGnLli08/PDD0t1bloWu69i2LWtJQJZCokMTiUQYHR1lfHyc/v5+kskkc3NzTE5OsnPnTt73vvexsLDAqVOn7k4t2qG1b4hCXdclEAjw4IMPEo1GeeWVV5idnSWTyRCLxZiampLFv2VZMrkRlgg3OEReeolAgy5cuEChUJClSCKR4IEHHqC3t5d8Ps/4+Djz8/OSLaEoimx6i05NrVaj0WhIyxTWKV6rqip5TqI2FfG1Wq1y/fp1Ll26xIc//GGmpqa4dOnSRkxt+zyzxj0WOjp86Qnr7+/nkUceoVAoMDExQSwWIxwOk8/nCQQCDA0Nye4J3AD1BX3EdV1qtVobKC+srauri0ajIcGBWq0mr3X16lXZB4UWWzAajRKLxWSsFS5dENZEmQLtK6oFrSSdTlMoFJifn6e7u1uCE7Ozs+RyOTZv3kwqlbrrGe9qZMNc7pYtW+jp6eHkyZNomkYymZRKikajN1mjsBARY72cH8ETEvGwp6cHTdOYm5ujVquhqiq5XE4mM+JcVVWJRCL09fURj8epVqvU63UJSASW2H6if2mapry/qGnFg+L3+6lUKly+fJl0Ok1XVxfZbJaxsTF27NhBb2/vRk1tm2yIQlVVpb+/n3w+z7lz5zBNk1gsxvz8PI1Gg0Qi0Ra3hGVCK9MU7TGxhY43kRGdGl3XqdfrMrsVfxO4qm3bBINBuru7SafTqKpKvV6X3Rq/399W6yqKImHA5Y3pTCZDIpHg3LlzFAoFGS7y+TxXrlxh165dDAwM3JVOTKcghb6WkzoVRVGIxWKcPXuW2dlZwuEwoVAI27Ypl8tMTExQLBZJp9PE43FZL4qC32tlQlFikuFGwiQeApEICUv2MgRFuWHbtjxPKNPn8xEMBuXYLMuS2bOgkQrXXCwWpcX6/X6ZGS8sLFAqlYhEIsDGwoCeGOqy2uC4luGJ/qOgjmzatAmfz0ej0ZCKmJmZQdd1kskkcIPpYBiGhOQEJVTEOIHpioRF1KE+n6+tZhX8XIH+JJNJ6WZFImQYhsSGhesVzAdoJUelUolKpSJ5TOVyWYaNcDgsWRMi1ppmBztG3SXZUKRItK/K5fLSPjwKO3bskKm/wErFxApLDAaDcgWXaZrkcjlZuoj4ViqVqNfrcoWXNyMW5YsgrIlGuYiHuq4TiUTaKC3eOGqaJuVymfn5eYrFIn6/n0QiQTgcJpfLyePF79sRtdcirrve29qsQWzblgW/KOANwyCZTBKNRiWIUKlU5N/kms6lZEngtj6fT1qPKF/y+Tzlclkq1Ot24Ub5UavVKBaLxGKxtmUYpmlKWE8oVmTLqqoSDAbp6emhp6dHZsnFYlE+HKKs6urqku25eyEbolDhcuv1OoFAAADTNAkGg5KBYNs2iUSCVCrVllWKB0EACuI6XriuUqlQLBaBGzHLu5eBSI6EkiuVinT3uq5L8MALDwqXLx4QYcXC9TcaDQlJingr7nGvmtsbDv25rkskEsG2bYrFokxMEomEXNIAyIa0SDQA2af0li5CAdlsViYvwoUahiEt2bKstuvXajWq1aqMeyJpEtmwGKv33mIsXrrpwsICtVqNWq0my6hGo0G1WqVSqcjFURspG6ZQUUsCEq0RyYl40gWjfDlL0Evr8La/dF2XPVBvN0Z0XkKhkCRRi/cFtpvL5QgGg5J/BMiMWJQ/IgyI87ydHVVV6erqol6vY9u2xG67u7slX+m+VqggW4vsMpFI0NfX11aCCIKX3++nVCpRrVZlDIMb8VK857ouxWJRxl1xjOAqhUIhrl5trcj20l4cx2F+fp5IJEJXV5cMCeJHuFq4QSsR2bJwz+rSsn9d15menpZKFiBDp4TquyUbptByudzmZqvVKoVCoW2dpUj7va5N1H0r9Rir1apcf+JtiYnzxdY2osxZvkRRKKm5tKGV+BH1pneVmkiSRBIUCoWwLIvZ2VnpEQzDIJFIoOs6lUpFAiZvRzo5e21Y7holGo0SDAala5qammJ6elouGhLb0QjXKtyrUJDXAv1+P41GQ8YwuOGmRQyNx+PEYjEikQi5XK5tLMJKs9kssVhMZqYiUxX3FzFUWJ8om7xrPsX4xDqcYDBILpejUCgwMDCw4aSxDVOosA5RsgAEAgE5gd61H8ICbuwGdgPfFT+1Wk2uOPPCez6fj76+PhKJhIQcFUWhWCy2dUsEPeXy5cts3bqVRCIhM1avMr20F13XJWwovIa31Orq6iIUCrXRTDdadAXk9i/reqOlzFPEpGQyKSfHSw/xggViUgOBAMFgUBbu1WqVbDYrY6xIWqLRKL29vZIyUq/XicfjBAIBcrmcXHC8nJFQKpWIRqNtpZKXLOZtqgtWg2AGLiwskEwmaTabdHd3S4agt2OzkaK3th6D1XhrEcLWon/DMAiFQgSDQQkaiC4L3FjMK5IObytNuDQxuaZpytJGnB+JROjt7SWVSkkA37ZtCUT09vYSDAaZnp5mcXERoM3SRGz3Jj5CufV6vQ0NEg/g7OysTKDE2lRosQNFW26jZd3XhwLSvVWrVTRNIxKJUC6XsSyLQCDQFiMBCXYDMvOs1WryQfD7/cTjcYrFIpqmyeV/4XAYQE6yN3tWFIV4PI5hGLJuBUin0xKpEq5WYL/hcJhGoyFrS5F8BYNBoJUXCAhShA3BMvTu+bCRsmEx1Mu0E3Fmfn5eWqmA+wQf1jAM/H6/tE6hcPG+APFN05S0E2E9ArD3xjmvJYdCITnhoVBIPkBeVyzKEgE+iPcByW0SiZxAkXbu3EkoFKJQKEjG4n2ZFLmuy9DQEHv27JHxRdSIrusSj8fbtoWp1WpyQrxUzuV83Hg83laqwA0GoHCbIlHyrlP1Jl0C8DBNU8ZOL2Kkqir5fF6WWJFIRHaK6vU6qVSKWq1GIpFg69atTE9PMz09LVt+Gy0bCs739PTg8/kolUqk02kJv0UiEekmhbV6s0xRyHsnWyRPgHSVInkRf1vO4fVuN7N8awDxUHgx2WKxiKqqmKYp6Zwi9qtq6ztrVFWlUChIwtnly5fJZrP392Il13XJ5/NkMhmGh4d5/fXXyWQyZDIZJicnpdv0guhiQykByIvreBEfL8PBqzDLsigUCrImFQRqL+IDtKFDgl9ULpclYiWgyHA4zJYtW2TrLZvNSsVWKhX6+/t597vfjWmakozmBTA2Um58s9I63tt1Xa5du0ZXVxf79u3jzJkzXLhwgaGhIZmVClBBTIKX2S7cn+hxAm3lipfqKc71xk0vQAE3W7TIYAFJZxEPjjgmEAjIDTtELK1UKtRqNQ4fPkxvby8XLlyQ9a4Y29sW5QaJ+s7ibtzqs7GxMU6cOEFvby/f933fRzQaZW5uToICXiWIFlexWGyLoV4lyI/gQWq8PCJhIcuVt7xr4qWxiBXhonwBZGwVjfnZ2VlJKBMr0Pr7+5mbm+PixYvMzc3ds14obNAeCwDXr1/nzJkzlEolDh8+zE/8xE/wxS9+kdHRUZlYeN0fIDk+XkULN+rdA1AoslqtSgoJcNMegN7EyUsT9Sre20wXrrdUKnHt2jXJ4xX84aeeeoqDBw9iWRbnzp3j/PnzzM3NSWjwXsiGJUX1ep3JyUlZ1z355JM8++yzHDt2TK4HFZtunj0AAAZhSURBVKuq4/E40Wi0reXlbWF5leRtaIv7eN238ACiJvWuIRXZrShRvEmU95oLCwtUKhWi0Si2bRMOh3nsscc4cOAApmly/PhxTp06xcTEhKTW3ItOC2wgY0FkrtlsVq79OHToEAcPHkRVVV555RVJ4RDxLBgMSnKXcKvCqoS1CRHvC9co9iwSYppmW50L7Q/B8ixbKFwsRRSLhnfs2METTzzB4OAgly9f5tixY5w7d45cLkepVJIWfrcVui6cIkXpeMfs1mA8liRaTq+++iqFQoH3v//9HD58mKGhIb72ta8xMzMjOTmixPAq0bvsXcQq4QLFa9GaExsmCqKXaIiLe/T19REIBGRjoKurS4ISQpm5XE7SY/bs2cNjjz1GPB5ndHSUl19+mYsXL8qujwBA7pV1wgZtr+oVEQsLhQJnzpyhVquxuLjI3r17eeaZZ/ibv/kbLly4QKPRIJfLyTpVDngJuK/VauTzeQkJCjqocOnlcpnFxUVyuRzValU2owVbXrTYBNIjKCuO40iapojJu3fv5vHHH6e3t5dyucyxY8c4deoUFy5ckAxE2HhUaCW5J5tmCBe6uLjI2bNnyWazjI+P8573vIfDhw8zPDzMpUuXuH79ulzOIBIj0bERa0sEN9bn80kWn0CALMuiWq1KKy+Xy22IUT6fl9cWSwXL5bKkp4yMjLB//376+vqoVqscP36csbExJiYmmJ2dpVQqSXRJKPNeWifcw21thJimybVr18jn85w/f55t27bx4IMPsnPnTnbs2CFXdQlLENCd4zgEg0HpHkXsi8VixONxarUahUIBVVVJJBKSge/NokXnRlEUuXNmd3c3IyMjbN++nWQySS6X4+jRo4yPj3P16lUKhUKbe10OIHi5R/dCNnR9qPe3V4T1jI+PMzMzw+nTp0kmkwwNDbFlyxaeeOIJFhcXKRQKLC4uUiwWJXNAxE4viCB2PxHb33hbc6Kp7u3aJJNJMpkMPT09pFIpFEVhamqKr33ta1y8eJH5+Xmq1Wob3rvSkv5bvd5I6WgD5LVEiNUgJt7yolwuU6lUmJubY2JigrNnz5LJZBgYGGBgYICRkREZUwXjzktsFouPRO8VkHHTsiy5Qtx7X9GonpmZ4fXXX2dmZobZ2VmpSJEVL+/crFZWsuT1kg0BFrxg+2o6+QLREYuFLl++zBtvvCF3I+np6aG7u5tUKkUymaS7u5uuri6ZFXvLk0AgIK1OKNW2bbLZLOfOnWNyclJ2UwQTfvka0eXjWq14j11pn+DVXWOJyrrK43Wv61gPEbSOVCpFJpNhrfcTViHgwKmpKZn8iOWAXiKZdy96L6PdNE0JspfLZWnlYjdQUbu+XWsSrhmQrIm1bE/e6TD0a9euo2paJwvQOhhMyzpDoRAvvPCCtNTleOxaZDXnrybzXC83aFmWXCVu27YskQTUuHpR5BcIrgpYCAYDVNepdSd4OdFoVG53Kna6XG8i8r1Q4vJ7qKrK6OgoXV1d9Pb2EolEOv7+s05FTyZTzDtN1iOcCoVGIhEajYaMc9Fo9J4xyzdKhEIDgQDxeJxMJiNbc+sp+np31kWzWnx/iViuJ2rH+1lE/uDde6nTGNrpFK3tcXGh6en2exvTtxKRFHjJWPe7eKkvy9e63koExabpybI74R+sSaGapqEbBvYSbWO1ChIWeZ8bphTXvbE4SlGUVTW+BXrlsvovKfBKOzivcMdM17Kb2Kg8tOsRwEVVVNwOY/y9h7A3Xjp5hgMRH6GoQrFcptEhA7+z9pmmE6tc59z/+AyG4UPs+rhRBrf8Prd7MFb0Ap3k/3dbOpmkpW9yNOs14tUplJB+9/uhLhAwdPZEXJzaa3Bv9iZsk5U+oAu39ulLJ6z0Z7f9kNvcdIWG8G1Okn9y2++zmluogPOAj5myhbtKla5aoQrguC6LdRfYuO/DvK0VbtgobsiK47nTPN9moHf6DAoOYUPFXuWH7cjl2s53SDbzbSirjRIb/iUC78j6ivodmXLex/KOhd5nosKSf37HUu8LecdC7zN5R6H3mbQtyXdXseuj663Al1UxnSA5K8p6u/0Oqq5vA4ptR3W2ytJef4rrYjebXF+o4yzNqPgsK15QQH3iCViDrGaulGWB/XYFvewN3PHCN8bruLffBGQteYWy0gmre6tjWT7zfhUCPoP/Dz0a/bGm86HLAAAAAElFTkSuQmCC;" parent="1" vertex="1">
          <mxGeometry x="686.02" y="600" width="100.15" height="88.92" as="geometry" />
        </mxCell>
        <mxCell id="fuJm7WYey03xl-y6ym7f-48" value="SVM" style="shape=dataStorage;whiteSpace=wrap;html=1;fixedSize=1;strokeWidth=2;" parent="1" vertex="1">
          <mxGeometry x="130" y="540" width="78" height="80" as="geometry" />
        </mxCell>
        <mxCell id="fuJm7WYey03xl-y6ym7f-49" value="" style="shape=dataStorage;whiteSpace=wrap;html=1;fixedSize=1;strokeWidth=2;" parent="1" vertex="1">
          <mxGeometry x="209.5" y="540" width="110" height="80" as="geometry" />
        </mxCell>
        <mxCell id="fuJm7WYey03xl-y6ym7f-51" value="&amp;nbsp;ENSEMBLE" style="text;html=1;align=center;verticalAlign=middle;resizable=0;points=[];autosize=1;strokeColor=none;fillColor=none;" parent="1" vertex="1">
          <mxGeometry x="219" y="565" width="90" height="30" as="geometry" />
        </mxCell>
        <mxCell id="fuJm7WYey03xl-y6ym7f-52" value="DECISION TREE" style="shape=dataStorage;whiteSpace=wrap;html=1;fixedSize=1;strokeWidth=2;" parent="1" vertex="1">
          <mxGeometry x="319.5" y="540" width="155" height="80" as="geometry" />
        </mxCell>
        <mxCell id="fuJm7WYey03xl-y6ym7f-53" value="KNN" style="shape=dataStorage;whiteSpace=wrap;html=1;fixedSize=1;strokeWidth=2;" parent="1" vertex="1">
          <mxGeometry x="474.5" y="540" width="80" height="80" as="geometry" />
        </mxCell>
        <mxCell id="fuJm7WYey03xl-y6ym7f-63" value="" style="endArrow=none;html=1;rounded=0;endSize=10;strokeWidth=3;" parent="1" edge="1">
          <mxGeometry width="50" height="50" relative="1" as="geometry">
            <mxPoint x="800" y="360" as="sourcePoint" />
            <mxPoint x="800" y="120" as="targetPoint" />
            <Array as="points" />
          </mxGeometry>
        </mxCell>
        <mxCell id="fuJm7WYey03xl-y6ym7f-71" value="" style="endArrow=classic;html=1;rounded=0;entryX=-0.005;entryY=0.579;entryDx=0;entryDy=0;entryPerimeter=0;endSize=10;strokeWidth=3;" parent="1" target="sv7QqwGItXfnHkpMQwmk-6" edge="1">
          <mxGeometry width="50" height="50" relative="1" as="geometry">
            <mxPoint x="210" y="120" as="sourcePoint" />
            <mxPoint x="490" y="180" as="targetPoint" />
            <Array as="points">
              <mxPoint x="240" y="120" />
            </Array>
          </mxGeometry>
        </mxCell>
        <mxCell id="fuJm7WYey03xl-y6ym7f-72" value="" style="edgeStyle=none;orthogonalLoop=1;jettySize=auto;html=1;rounded=0;entryX=0.007;entryY=0.675;entryDx=0;entryDy=0;entryPerimeter=0;endSize=10;strokeWidth=4;" parent="1" target="fuJm7WYey03xl-y6ym7f-3" edge="1">
          <mxGeometry width="100" relative="1" as="geometry">
            <mxPoint x="470" y="120" as="sourcePoint" />
            <mxPoint x="540" y="130" as="targetPoint" />
            <Array as="points" />
          </mxGeometry>
        </mxCell>
        <mxCell id="fuJm7WYey03xl-y6ym7f-75" value="" style="endArrow=none;html=1;rounded=0;exitX=0.998;exitY=0.463;exitDx=0;exitDy=0;exitPerimeter=0;strokeWidth=3;" parent="1" source="sv7QqwGItXfnHkpMQwmk-12" edge="1">
          <mxGeometry width="50" height="50" relative="1" as="geometry">
            <mxPoint x="440" y="230" as="sourcePoint" />
            <mxPoint x="800" y="121" as="targetPoint" />
            <Array as="points" />
          </mxGeometry>
        </mxCell>
        <mxCell id="fuJm7WYey03xl-y6ym7f-76" value="" style="edgeStyle=none;orthogonalLoop=1;jettySize=auto;html=1;rounded=0;strokeWidth=3;endSize=10;startSize=10;" parent="1" edge="1">
          <mxGeometry width="100" relative="1" as="geometry">
            <mxPoint x="800" y="360" as="sourcePoint" />
            <mxPoint x="620" y="360" as="targetPoint" />
            <Array as="points" />
          </mxGeometry>
        </mxCell>
        <mxCell id="fuJm7WYey03xl-y6ym7f-78" value="" style="endArrow=none;html=1;rounded=0;strokeWidth=3;" parent="1" edge="1">
          <mxGeometry width="50" height="50" relative="1" as="geometry">
            <mxPoint x="570" y="580" as="sourcePoint" />
            <mxPoint x="610" y="580" as="targetPoint" />
            <Array as="points" />
          </mxGeometry>
        </mxCell>
        <mxCell id="fuJm7WYey03xl-y6ym7f-79" value="" style="endArrow=none;html=1;rounded=0;endSize=10;startSize=9;strokeWidth=3;" parent="1" edge="1">
          <mxGeometry width="50" height="50" relative="1" as="geometry">
            <mxPoint x="610" y="580" as="sourcePoint" />
            <mxPoint x="610" y="520" as="targetPoint" />
            <Array as="points" />
          </mxGeometry>
        </mxCell>
        <mxCell id="fuJm7WYey03xl-y6ym7f-80" value="" style="endArrow=none;html=1;rounded=0;strokeWidth=3;" parent="1" edge="1">
          <mxGeometry width="50" height="50" relative="1" as="geometry">
            <mxPoint x="610" y="650" as="sourcePoint" />
            <mxPoint x="610" y="580" as="targetPoint" />
          </mxGeometry>
        </mxCell>
        <mxCell id="fuJm7WYey03xl-y6ym7f-81" value="" style="edgeStyle=none;orthogonalLoop=1;jettySize=auto;html=1;rounded=0;entryX=0.002;entryY=0.626;entryDx=0;entryDy=0;entryPerimeter=0;strokeWidth=3;endSize=10;" parent="1" target="fuJm7WYey03xl-y6ym7f-45" edge="1">
          <mxGeometry width="100" relative="1" as="geometry">
            <mxPoint x="610" y="520" as="sourcePoint" />
            <mxPoint x="660" y="560" as="targetPoint" />
            <Array as="points" />
          </mxGeometry>
        </mxCell>
        <mxCell id="fuJm7WYey03xl-y6ym7f-82" value="" style="edgeStyle=none;orthogonalLoop=1;jettySize=auto;html=1;rounded=0;entryX=-0.002;entryY=0.574;entryDx=0;entryDy=0;entryPerimeter=0;strokeWidth=3;endSize=10;" parent="1" target="fuJm7WYey03xl-y6ym7f-46" edge="1">
          <mxGeometry width="100" relative="1" as="geometry">
            <mxPoint x="610" y="651" as="sourcePoint" />
            <mxPoint x="620" y="680" as="targetPoint" />
            <Array as="points" />
          </mxGeometry>
        </mxCell>
        <mxCell id="fuJm7WYey03xl-y6ym7f-95" value="" style="endArrow=classic;html=1;rounded=0;exitX=0.5;exitY=1;exitDx=0;exitDy=0;strokeWidth=3;endSize=10;" parent="1" source="fuJm7WYey03xl-y6ym7f-14" edge="1">
          <mxGeometry width="50" height="50" relative="1" as="geometry">
            <mxPoint x="440" y="620" as="sourcePoint" />
            <mxPoint x="368" y="500" as="targetPoint" />
          </mxGeometry>
        </mxCell>
        <mxCell id="fuJm7WYey03xl-y6ym7f-96" value="&lt;b&gt;INPUT IMAGES&lt;/b&gt;" style="rounded=0;whiteSpace=wrap;html=1;strokeWidth=2;fontSize=13;" parent="1" vertex="1">
          <mxGeometry x="78.5" y="170" width="120" height="30" as="geometry" />
        </mxCell>
        <mxCell id="-xtX0rIObCDY4ffGwxX4-5" value="" style="endArrow=none;dashed=1;html=1;rounded=0;strokeWidth=3;" parent="1" edge="1">
          <mxGeometry width="50" height="50" relative="1" as="geometry">
            <mxPoint x="39" y="702" as="sourcePoint" />
            <mxPoint x="39" as="targetPoint" />
          </mxGeometry>
        </mxCell>
        <mxCell id="-xtX0rIObCDY4ffGwxX4-6" value="" style="endArrow=none;dashed=1;html=1;rounded=0;strokeWidth=3;" parent="1" edge="1">
          <mxGeometry width="50" height="50" relative="1" as="geometry">
            <mxPoint x="39" y="702" as="sourcePoint" />
            <mxPoint x="819" y="702" as="targetPoint" />
          </mxGeometry>
        </mxCell>
        <mxCell id="-xtX0rIObCDY4ffGwxX4-7" value="" style="endArrow=none;dashed=1;html=1;rounded=0;strokeWidth=3;" parent="1" edge="1">
          <mxGeometry width="50" height="50" relative="1" as="geometry">
            <mxPoint x="39" as="sourcePoint" />
            <mxPoint x="819" as="targetPoint" />
          </mxGeometry>
        </mxCell>
        <mxCell id="-xtX0rIObCDY4ffGwxX4-8" value="" style="endArrow=none;dashed=1;html=1;rounded=0;strokeWidth=3;" parent="1" edge="1">
          <mxGeometry width="50" height="50" relative="1" as="geometry">
            <mxPoint x="820" y="702" as="sourcePoint" />
            <mxPoint x="820" as="targetPoint" />
          </mxGeometry>
        </mxCell>
        <mxCell id="i_qRnxeFILmMiMsNS68O-7" value="Contrast" style="ellipse;whiteSpace=wrap;html=1;strokeWidth=2;" parent="1" vertex="1">
          <mxGeometry x="129.5" y="299" width="61.5" height="39" as="geometry" />
        </mxCell>
        <mxCell id="i_qRnxeFILmMiMsNS68O-8" value="Correlation" style="ellipse;whiteSpace=wrap;html=1;strokeWidth=2;" parent="1" vertex="1">
          <mxGeometry x="198.5" y="299" width="78" height="39" as="geometry" />
        </mxCell>
        <mxCell id="i_qRnxeFILmMiMsNS68O-9" value="Homogeneity" style="ellipse;whiteSpace=wrap;html=1;strokeWidth=2;" parent="1" vertex="1">
          <mxGeometry x="286" y="299" width="88" height="39" as="geometry" />
        </mxCell>
        <mxCell id="i_qRnxeFILmMiMsNS68O-10" value="Kurtosis" style="ellipse;whiteSpace=wrap;html=1;strokeWidth=2;" parent="1" vertex="1">
          <mxGeometry x="383" y="299" width="72" height="39" as="geometry" />
        </mxCell>
        <mxCell id="i_qRnxeFILmMiMsNS68O-11" value="Skewness" style="ellipse;whiteSpace=wrap;html=1;strokeWidth=2;" parent="1" vertex="1">
          <mxGeometry x="461" y="299" width="76" height="39" as="geometry" />
        </mxCell>
        <mxCell id="i_qRnxeFILmMiMsNS68O-12" value="Mean" style="ellipse;whiteSpace=wrap;html=1;strokeWidth=2;" parent="1" vertex="1">
          <mxGeometry x="542.86" y="299" width="68.14" height="39" as="geometry" />
        </mxCell>
        <mxCell id="i_qRnxeFILmMiMsNS68O-13" value="Variance" style="ellipse;whiteSpace=wrap;html=1;strokeWidth=2;" parent="1" vertex="1">
          <mxGeometry x="220" y="351" width="79" height="39" as="geometry" />
        </mxCell>
        <mxCell id="i_qRnxeFILmMiMsNS68O-14" value="Standard Deviation" style="ellipse;whiteSpace=wrap;html=1;strokeWidth=2;" parent="1" vertex="1">
          <mxGeometry x="310.17" y="351" width="117" height="39" as="geometry" />
        </mxCell>
        <mxCell id="i_qRnxeFILmMiMsNS68O-15" value="Smoothness" style="ellipse;whiteSpace=wrap;html=1;strokeWidth=2;" parent="1" vertex="1">
          <mxGeometry x="440" y="351" width="92.83" height="39" as="geometry" />
        </mxCell>
        <mxCell id="i_qRnxeFILmMiMsNS68O-16" value="RMS" style="ellipse;whiteSpace=wrap;html=1;strokeWidth=2;" parent="1" vertex="1">
          <mxGeometry x="543.36" y="357.5" width="65" height="32.5" as="geometry" />
        </mxCell>
        <mxCell id="i_qRnxeFILmMiMsNS68O-19" value="&lt;b&gt;FEATURE EXTRACTION&lt;/b&gt;" style="rounded=0;whiteSpace=wrap;html=1;strokeWidth=2;" parent="1" vertex="1">
          <mxGeometry x="283.86" y="403" width="169" height="39" as="geometry" />
        </mxCell>
        <mxCell id="-d0dzMsjZXotBXS2M1kD-1" value="Entropy" style="ellipse;whiteSpace=wrap;html=1;strokeWidth=2;gradientDirection=east;" parent="1" vertex="1">
          <mxGeometry x="130" y="351" width="78" height="39" as="geometry" />
        </mxCell>
      </root>
    </mxGraphModel>
  </diagram>
</mxfile>
